<?xml version="1.0" encoding="utf-8"?>
<!-- Generator: Adobe Illustrator 21.1.0, SVG Export Plug-In . SVG Version: 6.00 Build 0)  -->
<svg version="1.1" id="Ebene_1" xmlns="http://www.w3.org/2000/svg" xmlns:xlink="http://www.w3.org/1999/xlink" x="0px" y="0px"
	 viewBox="0 0 194.1 58.5" style="enable-background:new 0 0 194.1 58.5;" xml:space="preserve">
<style type="text/css">
	.st0{fill:#039AA3;}
</style>
<g>
	<g>
		<path class="st0" d="M20,31.2c-1.1,0.6-3.7,1.1-6.4,1.1C4.6,32.2,0,25.7,0,17S4.6,1.8,13.4,1.8c3,0,5.5,0.8,6.6,1.2l-0.3,4.9
			c-1.1-0.6-2.8-1.6-5.6-1.6C9.6,6.3,5.8,9.3,5.8,17s3.9,10.7,8.4,10.7c2.6,0,4.4-0.6,5.6-1.5L20,31.2z"/>
		<path class="st0" d="M33,9.6c4.5,0,9.6,2.3,9.6,11.2c0,9.2-5.1,11.3-9.6,11.3s-9.6-2.1-9.6-11.3C23.4,12,28.6,9.6,33,9.6z
			 M33,28.4c3.4,0,4.2-3.9,4.2-7.5s-0.8-7.5-4.2-7.5s-4.2,3.9-4.2,7.5S29.6,28.4,33,28.4z"/>
		<path class="st0" d="M64.7,0v28.1c0,1.6,0,2.9,0.2,3.7H60c-0.1-0.6-0.2-1.9-0.2-3.4h-0.1c-0.8,1.9-2.4,3.7-5.8,3.7
			c-5.4,0-7.7-5.2-7.7-11.2c0-7.1,2.8-11.3,7.5-11.3c3.1,0,4.9,1.8,5.6,3.5h0.1V0H64.7z M55.3,28.3c3.1,0,4.2-3.3,4.2-7.5
			c0-4.2-1.2-7.3-4.1-7.3c-2.9,0-3.9,2.8-3.9,7.2C51.4,25.7,52.2,28.3,55.3,28.3z"/>
		<path class="st0" d="M85.6,30.7c-1.1,0.5-3.4,1.4-6.5,1.4c-7,0-10.1-5-10.1-10.9c0-6.5,3.4-11.6,9-11.6c4.7,0,8.7,2.8,8.7,11.7v1
			H74c0,3.7,1.5,6,5.6,6c3.2,0,4.7-1,5.7-1.7L85.6,30.7z M81.6,19c0-3.9-1.3-5.8-3.6-5.8c-2.8,0-3.9,2.9-3.9,5.8H81.6z"/>
		<path class="st0" d="M114.9,7.1L114.9,7.1l-7.5,24.7h-3.9L96.5,7.1h-0.1v24.7h-4.9V2.2h8.1l6.1,22.1h0.1L112,2.2h7.8v29.6h-4.9
			V7.1z"/>
		<path class="st0" d="M141.3,30.7c-1.1,0.5-3.4,1.4-6.5,1.4c-7,0-10.1-5-10.1-10.9c0-6.5,3.4-11.6,9-11.6c4.7,0,8.7,2.8,8.7,11.7v1
			h-12.6c0,3.7,1.5,6,5.6,6c3.2,0,4.7-1,5.7-1.7L141.3,30.7z M137.3,19c0-3.9-1.3-5.8-3.6-5.8c-2.8,0-3.9,2.9-3.9,5.8H137.3z"/>
		<path class="st0" d="M148.4,5.5l5.3-1.6V10h4.4v3.9h-4.4v11.3c0,2.3,0.8,3,2.4,3c0.9,0,1.6-0.3,2-0.5v3.7
			c-0.8,0.4-1.9,0.7-3.5,0.7c-3.9,0-6.1-1.8-6.1-6.4v-12H145V10h3.5V5.5z"/>
		<path class="st0" d="M177.4,30.7c-1.1,0.5-3.4,1.4-6.5,1.4c-7,0-10.1-5-10.1-10.9c0-6.5,3.4-11.6,9-11.6c4.7,0,8.7,2.8,8.7,11.7v1
			h-12.6c0,3.7,1.5,6,5.6,6c3.2,0,4.7-1,5.7-1.7L177.4,30.7z M173.4,19c0-3.9-1.3-5.8-3.6-5.8c-2.8,0-3.9,2.9-3.9,5.8H173.4z"/>
		<path class="st0" d="M182.8,13.6c0-1.4,0-2.6-0.2-3.6h4.7c0,1.3,0.2,2.7,0.2,4h0.1c0.6-1.7,2.3-4.3,5.6-4.3c0.3,0,0.6,0.1,0.9,0.1
			v4.9c-0.5-0.1-0.9-0.2-1.5-0.2c-2.2,0-4.5,1.3-4.5,5.4v12h-5.3V13.6z"/>
	</g>
	<g>
		<path class="st0" d="M149.5,45.3h2.4v13h-2.4V45.3z"/>
		<path class="st0" d="M154.4,50.3c0-0.6,0-1.2-0.1-1.6h2.2c0,0.5,0.1,1,0.1,1.5h0.1h0c0.3-0.6,1-1.6,2.6-1.6c2.2,0,2.8,1.6,2.8,3.6
			v6.2h-2.3v-5.8c0-1.5-0.4-2.1-1.3-2.1c-1.2,0-1.6,1-1.6,2.3v5.6h-2.3V50.3z"/>
		<path class="st0" d="M163.8,56.1c0.4,0.1,1.3,0.6,2.4,0.6c0.8,0,1.5-0.2,1.5-1c0-0.4-0.2-0.7-1-1.2l-1-0.6c-1-0.6-2-1.2-2-2.7
			c0-1.3,1.3-2.7,3.3-2.7c1.2,0,2.2,0.3,2.4,0.4l-0.1,1.8c-0.6-0.2-1.2-0.4-2-0.4c-0.9,0-1.3,0.4-1.3,0.9c0,0.5,0.4,0.8,1.1,1.2
			l1.1,0.7c1.2,0.8,1.8,1.3,1.8,2.4c0,1.8-1.5,2.8-3.6,2.8c-1.2,0-2.2-0.3-2.7-0.5L163.8,56.1z"/>
		<path class="st0" d="M171.8,44.6h2.4v2.3h-2.4V44.6z M171.9,48.7h2.3v9.6h-2.3V48.7z"/>
		<path class="st0" d="M184.4,44.4v12.4c0,0.7,0,1.3,0.1,1.6h-2.2c0-0.3-0.1-0.8-0.1-1.5h-0.1c-0.4,0.8-1.1,1.6-2.6,1.6
			c-2.4,0-3.4-2.3-3.4-4.9c0-3.1,1.3-5,3.3-5c1.4,0,2.1,0.8,2.5,1.5h0v-5.8H184.4z M180.2,56.8c1.4,0,1.8-1.5,1.8-3.3
			c0-1.9-0.5-3.2-1.8-3.2c-1.3,0-1.7,1.3-1.7,3.2C178.5,55.7,178.9,56.8,180.2,56.8z"/>
		<path class="st0" d="M193.6,57.9c-0.5,0.2-1.5,0.6-2.9,0.6c-3.1,0-4.4-2.2-4.4-4.8c0-2.9,1.5-5.1,4-5.1c2.1,0,3.8,1.2,3.8,5.1v0.4
			h-5.6c0,1.6,0.7,2.6,2.4,2.6c1.4,0,2.1-0.4,2.5-0.7L193.6,57.9z M191.8,52.7c0-1.7-0.6-2.6-1.6-2.6c-1.2,0-1.7,1.3-1.7,2.6H191.8z
			"/>
	</g>
</g>
</svg>
