<?xml version="1.0" encoding="UTF-8" standalone="no"?>
<!DOCTYPE svg PUBLIC "-//W3C//DTD SVG 1.1//EN" "http://www.w3.org/Graphics/SVG/1.1/DTD/svg11.dtd">
<svg width="100%" height="100%" viewBox="0 0 227 90" version="1.1" xmlns="http://www.w3.org/2000/svg" xmlns:xlink="http://www.w3.org/1999/xlink" xml:space="preserve" xmlns:serif="http://www.serif.com/" style="fill-rule:evenodd;clip-rule:evenodd;stroke-linejoin:round;stroke-miterlimit:1.41421;">
    <g transform="matrix(1,0,0,1,-139.144,-378.45)">
        <path d="M268.38,388.92C268.387,389.238 268.343,389.556 268.25,389.86C268.171,390.109 268.049,390.343 267.89,390.55C267.741,390.739 267.558,390.898 267.35,391.02C267.153,391.138 266.941,391.228 266.72,391.29C266.985,391.337 267.239,391.432 267.47,391.57C267.702,391.707 267.908,391.883 268.08,392.09C268.261,392.307 268.403,392.554 268.5,392.82C268.608,393.118 268.662,393.433 268.66,393.75C268.663,394.13 268.592,394.507 268.45,394.86C268.309,395.202 268.085,395.504 267.8,395.74C267.473,396.006 267.095,396.204 266.69,396.32C266.173,396.468 265.637,396.539 265.1,396.53L263,396.53L263,386.3L265,386.3C265.523,386.292 266.044,386.356 266.55,386.49C266.936,386.592 267.297,386.773 267.61,387.02C267.877,387.237 268.084,387.52 268.21,387.84C268.332,388.187 268.39,388.553 268.38,388.92ZM267.07,388.92C267.08,388.474 266.893,388.046 266.56,387.75C266.105,387.406 265.538,387.242 264.97,387.29L264.29,387.29L264.29,390.83L265,390.83C265.573,390.872 266.14,390.689 266.58,390.32C266.913,389.963 267.089,389.488 267.07,389L267.07,388.92ZM267.26,393.65C267.283,393.155 267.085,392.675 266.72,392.34C266.281,391.994 265.728,391.823 265.17,391.86L264.29,391.86L264.29,395.46L265.09,395.46C265.679,395.513 266.268,395.353 266.75,395.01C267.106,394.666 267.296,394.184 267.27,393.69L267.26,393.65ZM275.26,396.52L274.16,396.52L274.16,395.72C274.107,395.813 274.043,395.901 273.97,395.98C273.858,396.106 273.731,396.217 273.59,396.31C273.415,396.422 273.227,396.513 273.03,396.58C272.796,396.663 272.548,396.703 272.3,396.7C272.011,396.704 271.723,396.657 271.45,396.56C271.198,396.469 270.974,396.314 270.8,396.11C270.606,395.873 270.466,395.597 270.39,395.3C270.287,394.898 270.24,394.484 270.25,394.07L270.25,389.39L271.45,389.39L271.45,394C271.412,394.443 271.514,394.887 271.74,395.27C271.96,395.535 272.296,395.677 272.64,395.65C272.954,395.662 273.263,395.57 273.52,395.39C273.727,395.244 273.916,395.073 274.08,394.88L274.08,389.41L275.28,389.41L275.28,396.54L275.26,396.52ZM280.99,396.52L280.99,392C281.03,391.546 280.925,391.091 280.69,390.7C280.462,390.427 280.115,390.282 279.76,390.31C279.442,390.299 279.129,390.394 278.87,390.58C278.663,390.73 278.475,390.905 278.31,391.1L278.31,396.6L277.11,396.6L277.11,389.47L278.21,389.47L278.21,390.27C278.263,390.176 278.327,390.089 278.4,390.01C278.514,389.882 278.645,389.771 278.79,389.68C278.966,389.57 279.154,389.479 279.35,389.41C279.588,389.328 279.838,389.287 280.09,389.29C280.383,389.286 280.674,389.333 280.95,389.43C281.202,389.521 281.426,389.676 281.6,389.88C281.795,390.118 281.938,390.394 282.02,390.69C282.129,391.091 282.18,391.505 282.17,391.92L282.17,396.6L281,396.6L280.99,396.52ZM283.67,393.06C283.651,392.445 283.746,391.831 283.95,391.25C284.11,390.814 284.358,390.415 284.68,390.08C284.96,389.795 285.302,389.579 285.68,389.45C286.044,389.327 286.426,389.262 286.81,389.26C287.008,389.257 287.205,389.274 287.4,389.31C287.545,389.337 287.686,389.38 287.82,389.44L287.82,386L289.02,385.87L289.02,396.51L287.92,396.51L287.92,395.8C287.873,395.884 287.819,395.964 287.76,396.04C287.665,396.158 287.554,396.262 287.43,396.35C287.271,396.465 287.096,396.556 286.91,396.62C286.675,396.698 286.428,396.735 286.18,396.73C285.836,396.737 285.495,396.669 285.18,396.53C284.868,396.385 284.596,396.165 284.39,395.89C284.141,395.551 283.958,395.167 283.85,394.76C283.703,394.216 283.632,393.654 283.64,393.09L283.67,393.06ZM286.49,395.63C286.659,395.633 286.828,395.61 286.99,395.56C287.129,395.516 287.26,395.452 287.38,395.37C287.481,395.304 287.575,395.227 287.66,395.14C287.722,395.075 287.779,395.004 287.83,394.93L287.83,390.53C287.711,390.455 287.583,390.394 287.45,390.35C287.275,390.298 287.093,390.274 286.91,390.28C286.644,390.277 286.379,390.325 286.13,390.42C285.882,390.519 285.665,390.681 285.5,390.89C285.307,391.144 285.164,391.432 285.08,391.74C284.97,392.157 284.919,392.588 284.93,393.02C284.923,393.437 284.966,393.853 285.06,394.26C285.125,394.546 285.244,394.818 285.41,395.06C285.54,395.247 285.716,395.399 285.92,395.5C286.087,395.59 286.271,395.645 286.46,395.66L286.49,395.63ZM295.49,391.8C295.49,392.11 295.49,392.37 295.49,392.6C295.49,392.83 295.49,393.02 295.43,393.19L291.79,393.19C291.772,393.851 291.961,394.501 292.33,395.05C292.673,395.458 293.188,395.68 293.72,395.65C293.909,395.653 294.098,395.63 294.28,395.58C294.433,395.537 294.581,395.476 294.72,395.4C294.83,395.34 294.933,395.27 295.03,395.19L295.21,395.03L295.66,395.88L295.44,396.1C295.319,396.209 295.184,396.303 295.04,396.38C294.844,396.487 294.636,396.571 294.42,396.63C294.133,396.703 293.836,396.736 293.54,396.73C293.126,396.737 292.715,396.662 292.33,396.51C291.97,396.362 291.653,396.124 291.41,395.82C291.136,395.467 290.935,395.062 290.82,394.63C290.67,394.066 290.599,393.484 290.61,392.9C290.601,392.345 290.675,391.793 290.83,391.26C290.949,390.845 291.15,390.457 291.42,390.12C291.651,389.835 291.945,389.609 292.28,389.46C292.611,389.314 292.968,389.239 293.33,389.24C293.934,389.203 294.523,389.443 294.93,389.89C295.324,390.455 295.498,391.145 295.42,391.83L295.49,391.8ZM293.23,390.19C292.828,390.191 292.451,390.394 292.23,390.73C291.939,391.191 291.783,391.725 291.78,392.27L294.38,392.27C294.385,392.2 294.385,392.13 294.38,392.06C294.38,391.97 294.38,391.86 294.38,391.75C294.404,391.345 294.299,390.942 294.08,390.6C293.863,390.319 293.512,390.174 293.16,390.22L293.23,390.19ZM300.17,390.83C300.038,390.697 299.894,390.577 299.74,390.47C299.499,390.306 299.211,390.225 298.92,390.24C298.658,390.221 298.398,390.3 298.19,390.46C298.032,390.591 297.94,390.785 297.94,390.99C297.935,391.23 298.016,391.465 298.17,391.65C298.38,391.869 298.618,392.057 298.88,392.21L299.33,392.48C299.76,392.723 300.145,393.038 300.47,393.41C301.081,394.23 301.009,395.383 300.3,396.12C299.838,396.533 299.228,396.742 298.61,396.7C298.354,396.704 298.098,396.674 297.85,396.61C297.654,396.558 297.463,396.488 297.28,396.4C297.133,396.331 296.995,396.244 296.87,396.14C296.774,396.06 296.684,395.973 296.6,395.88L297.18,394.88L297.4,395.09C297.493,395.176 297.593,395.253 297.7,395.32C297.825,395.399 297.96,395.463 298.1,395.51C298.268,395.561 298.444,395.585 298.62,395.58C298.91,395.598 299.197,395.513 299.43,395.34C299.612,395.203 299.719,394.988 299.72,394.76C299.721,394.61 299.698,394.462 299.65,394.32C299.605,394.198 299.537,394.086 299.45,393.99C299.351,393.884 299.24,393.79 299.12,393.71L298.67,393.41L298.22,393.13C297.84,392.882 297.503,392.575 297.22,392.22C296.956,391.87 296.821,391.438 296.84,391C296.833,390.493 297.053,390.008 297.44,389.68C297.634,389.511 297.858,389.378 298.1,389.29C298.359,389.195 298.634,389.147 298.91,389.15C299.149,389.145 299.388,389.172 299.62,389.23C299.941,389.315 300.239,389.473 300.49,389.69L300.72,389.9L300.17,390.83ZM306.04,396.52L306.04,392C306.074,391.565 305.987,391.129 305.79,390.74C305.607,390.472 305.293,390.323 304.97,390.35C304.791,390.346 304.612,390.369 304.44,390.42C304.296,390.467 304.159,390.53 304.03,390.61C303.918,390.682 303.814,390.765 303.72,390.86L303.5,391.1L303.5,396.6L302.3,396.6L302.3,389.47L303.4,389.47L303.4,390.27C303.465,390.168 303.539,390.071 303.62,389.98C303.73,389.856 303.854,389.745 303.99,389.65C304.15,389.54 304.325,389.452 304.51,389.39C304.726,389.319 304.953,389.285 305.18,389.29C305.901,389.245 306.582,389.641 306.9,390.29C306.984,390.176 307.078,390.069 307.18,389.97C307.464,389.711 307.808,389.525 308.18,389.43C308.391,389.368 308.61,389.337 308.83,389.34C310.277,389.34 311,390.18 311,391.86L311,396.65L309.8,396.65L309.8,392C309.84,391.557 309.73,391.114 309.49,390.74C309.263,390.472 308.921,390.327 308.57,390.35C308.27,390.341 307.976,390.428 307.73,390.6C307.537,390.737 307.359,390.894 307.2,391.07L307.2,396.6L306,396.6L306.04,396.52ZM313.99,396.52L312.79,396.52L312.79,389.39L313.99,389.39L313.99,396.52ZM313.39,387.66C313.168,387.669 312.953,387.581 312.8,387.42C312.648,387.25 312.569,387.027 312.58,386.8C312.57,386.576 312.649,386.356 312.8,386.19C312.953,386.029 313.168,385.941 313.39,385.95C313.609,385.943 313.82,386.03 313.97,386.19C314.12,386.357 314.199,386.576 314.19,386.8C314.2,387.027 314.121,387.25 313.97,387.42C313.815,387.611 313.576,387.716 313.33,387.7L313.39,387.66ZM319.72,396.52L319.72,392C319.76,391.546 319.655,391.091 319.42,390.7C319.192,390.427 318.845,390.282 318.49,390.31C318.172,390.298 317.858,390.393 317.6,390.58C317.39,390.73 317.199,390.905 317.03,391.1L317.03,396.6L315.83,396.6L315.83,389.47L316.93,389.47L316.93,390.27C316.984,390.177 317.047,390.089 317.12,390.01C317.234,389.883 317.366,389.772 317.51,389.68C317.686,389.57 317.874,389.479 318.07,389.41C318.308,389.328 318.558,389.287 318.81,389.29C319.103,389.286 319.394,389.333 319.67,389.43C319.922,389.522 320.146,389.677 320.32,389.88C320.515,390.118 320.658,390.394 320.74,390.69C320.847,391.091 320.898,391.505 320.89,391.92L320.89,396.6L319.69,396.6L319.72,396.52ZM323.93,396.52L322.73,396.52L322.73,389.39L323.93,389.39L323.93,396.52ZM323.33,387.66C323.108,387.668 322.893,387.58 322.74,387.42C322.588,387.25 322.509,387.027 322.52,386.8C322.51,386.576 322.589,386.356 322.74,386.19C323.067,385.874 323.593,385.874 323.92,386.19C324.07,386.357 324.149,386.576 324.14,386.8C324.15,387.027 324.071,387.25 323.92,387.42C323.762,387.613 323.519,387.718 323.27,387.7L323.33,387.66ZM328.84,390.82C328.709,390.686 328.565,390.565 328.41,390.46C328.169,390.297 327.881,390.216 327.59,390.23C327.328,390.211 327.068,390.29 326.86,390.45C326.702,390.581 326.61,390.775 326.61,390.98C326.605,391.22 326.686,391.455 326.84,391.64C327.05,391.859 327.289,392.047 327.55,392.2L328,392.47C328.43,392.714 328.815,393.028 329.14,393.4C329.751,394.22 329.679,395.373 328.97,396.11C328.508,396.523 327.898,396.732 327.28,396.69C327.024,396.694 326.768,396.664 326.52,396.6C326.324,396.548 326.133,396.478 325.95,396.39C325.803,396.321 325.665,396.234 325.54,396.13C325.444,396.049 325.354,395.962 325.27,395.87L325.85,394.87L326.06,395.08C326.155,395.167 326.259,395.244 326.37,395.31C326.495,395.389 326.629,395.453 326.77,395.5C326.938,395.551 327.114,395.575 327.29,395.57C327.583,395.59 327.874,395.505 328.11,395.33C328.288,395.191 328.392,394.976 328.39,394.75C328.393,394.6 328.37,394.451 328.32,394.31C328.275,394.188 328.207,394.076 328.12,393.98C328.021,393.875 327.91,393.781 327.79,393.7L327.35,393.4L326.9,393.12C326.521,392.871 326.183,392.564 325.9,392.21C325.636,391.86 325.501,391.428 325.52,390.99C325.51,390.484 325.727,390 326.11,389.67C326.305,389.501 326.528,389.369 326.77,389.28C327.029,389.185 327.304,389.137 327.58,389.14C327.819,389.135 328.058,389.162 328.29,389.22C328.468,389.268 328.64,389.338 328.8,389.43C328.925,389.501 329.042,389.585 329.15,389.68L329.3,390L328.84,390.82ZM334.01,390.36L332.45,390.36L332.45,394.36C332.423,394.704 332.488,395.05 332.64,395.36C332.795,395.557 333.04,395.663 333.29,395.64C333.446,395.645 333.602,395.621 333.75,395.57C333.847,395.536 333.941,395.492 334.03,395.44L334.19,396.44C334.077,396.515 333.956,396.579 333.83,396.63C333.588,396.725 333.33,396.769 333.07,396.76C332.558,396.798 332.054,396.612 331.69,396.25C331.337,395.757 331.174,395.153 331.23,394.55L331.23,390.4L330.37,390.4L330.37,389.6L331.23,389.42L331.36,387.42L332.43,387.42L332.43,389.42L334.14,389.42L334.01,390.36ZM339.85,391.79C339.85,392.1 339.85,392.36 339.85,392.59C339.85,392.82 339.85,393.01 339.79,393.18L336.15,393.18C336.132,393.841 336.32,394.492 336.69,395.04C337.033,395.448 337.548,395.67 338.08,395.64C338.272,395.644 338.464,395.621 338.65,395.57C338.803,395.526 338.95,395.466 339.09,395.39C339.2,395.33 339.304,395.26 339.4,395.18L339.59,395.02L340.03,395.87L339.81,396.09C339.689,396.199 339.554,396.293 339.41,396.37C339.214,396.477 339.006,396.561 338.79,396.62C338.502,396.693 338.206,396.726 337.91,396.72C337.496,396.727 337.085,396.652 336.7,396.5C336.34,396.352 336.023,396.114 335.78,395.81C335.506,395.457 335.305,395.052 335.19,394.62C335.04,394.056 334.97,393.474 334.98,392.89C334.968,392.336 335.039,391.783 335.19,391.25C335.31,390.835 335.511,390.448 335.78,390.11C336.011,389.825 336.305,389.599 336.64,389.45C336.974,389.303 337.335,389.228 337.7,389.23C338.306,389.198 338.896,389.436 339.31,389.88C339.703,390.449 339.874,391.143 339.79,391.83L339.85,391.79ZM337.59,390.18C337.188,390.181 336.811,390.384 336.59,390.72C336.299,391.181 336.143,391.715 336.14,392.26L338.74,392.26C338.745,392.19 338.745,392.12 338.74,392.05C338.74,391.96 338.74,391.85 338.74,391.74C338.764,391.335 338.659,390.932 338.44,390.59C338.223,390.316 337.877,390.176 337.53,390.22L337.59,390.18ZM344.59,390.43L344.4,390.36C344.267,390.342 344.133,390.342 344,390.36C343.679,390.342 343.363,390.45 343.12,390.66C342.922,390.843 342.768,391.069 342.67,391.32L342.67,396.55L341.47,396.55L341.47,389.42L342.57,389.42L342.57,390.42C342.624,390.277 342.691,390.14 342.77,390.01C342.85,389.875 342.951,389.753 343.07,389.65C343.195,389.546 343.337,389.465 343.49,389.41C343.68,389.346 343.88,389.316 344.08,389.32C344.216,389.301 344.354,389.301 344.49,389.32L344.73,389.39L344.59,390.43ZM346.98,396.51L345.78,396.51L345.78,389.38L346.98,389.38L346.98,396.51ZM346.39,387.65C346.165,387.661 345.946,387.573 345.79,387.41C345.638,387.24 345.559,387.017 345.57,386.79C345.561,386.566 345.64,386.347 345.79,386.18C345.946,386.017 346.165,385.929 346.39,385.94C346.609,385.933 346.82,386.02 346.97,386.18C347.121,386.346 347.2,386.566 347.19,386.79C347.201,387.017 347.122,387.24 346.97,387.41C346.817,387.605 346.578,387.714 346.33,387.7L346.39,387.65ZM353.82,396.51L352.72,396.51L352.72,395.71C352.666,395.803 352.602,395.89 352.53,395.97C352.418,396.096 352.29,396.206 352.15,396.3C351.975,396.412 351.787,396.503 351.59,396.57C351.356,396.652 351.108,396.693 350.86,396.69C350.567,396.695 350.276,396.647 350,396.55C349.748,396.458 349.524,396.303 349.35,396.1C349.158,395.862 349.018,395.586 348.94,395.29C348.839,394.888 348.792,394.474 348.8,394.06L348.8,389.38L350,389.38L350,394C349.962,394.443 350.064,394.887 350.29,395.27C350.51,395.535 350.846,395.677 351.19,395.65C351.504,395.662 351.813,395.571 352.07,395.39C352.281,395.245 352.473,395.074 352.64,394.88L352.64,389.41L353.84,389.41L353.84,396.54L353.82,396.51ZM359.41,396.51L359.41,392C359.444,391.565 359.357,391.129 359.16,390.74C358.977,390.472 358.663,390.323 358.34,390.35C358.161,390.346 357.982,390.37 357.81,390.42C357.666,390.467 357.528,390.53 357.4,390.61C357.287,390.68 357.183,390.764 357.09,390.86L356.87,391.1L356.87,396.6L355.6,396.6L355.6,389.47L356.7,389.47L356.7,390.27C356.766,390.168 356.84,390.071 356.92,389.98C357.03,389.856 357.154,389.745 357.29,389.65C357.451,389.54 357.626,389.453 357.81,389.39C358.026,389.319 358.253,389.285 358.48,389.29C359.201,389.245 359.882,389.641 360.2,390.29C360.283,390.174 360.376,390.067 360.48,389.97C360.605,389.852 360.742,389.748 360.89,389.66C361.06,389.562 361.241,389.485 361.43,389.43C361.644,389.367 361.867,389.337 362.09,389.34C363.537,389.34 364.26,390.18 364.26,391.86L364.26,396.65L363.06,396.65L363.06,392C363.1,391.557 362.99,391.114 362.75,390.74C362.523,390.472 362.181,390.327 361.83,390.35C361.53,390.34 361.235,390.428 360.99,390.6C360.796,390.736 360.618,390.894 360.46,391.07L360.46,396.6L359.26,396.6L359.41,396.51ZM265.82,405.34L264.36,405.34L264.36,411.49L263.16,411.49L263.16,405.34L262.3,405.34L262.3,404.54L263.16,404.38L263.16,403C263.15,402.66 263.204,402.32 263.32,402C263.416,401.747 263.562,401.515 263.75,401.32C263.923,401.143 264.135,401.009 264.37,400.93C264.615,400.849 264.872,400.808 265.13,400.81C265.351,400.803 265.571,400.837 265.78,400.91C265.905,400.952 266.025,401.006 266.14,401.07L265.89,402.07L265.64,401.94C265.512,401.892 265.377,401.868 265.24,401.87C264.994,401.856 264.754,401.956 264.59,402.14C264.408,402.44 264.331,402.792 264.37,403.14L264.37,404.42L265.97,404.42L265.82,405.34ZM272,411.49L270.9,411.49L270.9,410.69C270.845,410.783 270.782,410.87 270.71,410.95C270.598,411.076 270.47,411.186 270.33,411.28C270.155,411.393 269.967,411.483 269.77,411.55C269.536,411.633 269.289,411.674 269.04,411.67C268.751,411.675 268.463,411.628 268.19,411.53C267.938,411.439 267.714,411.284 267.54,411.08C267.346,410.843 267.206,410.567 267.13,410.27C267.028,409.868 266.981,409.454 266.99,409.04L266.99,404.36L268.19,404.36L268.19,409C268.152,409.443 268.253,409.887 268.48,410.27C268.7,410.535 269.036,410.677 269.38,410.65C269.694,410.661 270.003,410.57 270.26,410.39C270.471,410.245 270.663,410.074 270.83,409.88L270.83,404.41L272.03,404.41L272.03,411.54L272,411.49ZM269,402.31C269.009,402.514 268.933,402.714 268.79,402.86C268.513,403.128 268.067,403.128 267.79,402.86C267.513,402.547 267.513,402.073 267.79,401.76C268.067,401.492 268.513,401.492 268.79,401.76C268.944,401.916 269.021,402.132 269,402.35L269,402.31ZM271.29,402.31C271.298,402.514 271.222,402.713 271.08,402.86C270.803,403.128 270.357,403.128 270.08,402.86C269.803,402.547 269.803,402.073 270.08,401.76C270.357,401.492 270.803,401.492 271.08,401.76C271.222,401.922 271.287,402.137 271.26,402.35L271.29,402.31ZM276.94,405.42L276.75,405.34C276.617,405.322 276.483,405.322 276.35,405.34C276.029,405.321 275.713,405.429 275.47,405.64C275.272,405.823 275.118,406.049 275.02,406.3L275.02,411.53L273.82,411.53L273.82,404.4L274.92,404.4L274.92,405.4C274.969,405.257 275.033,405.12 275.11,404.99C275.19,404.855 275.291,404.733 275.41,404.63C275.533,404.521 275.676,404.436 275.83,404.38C276.02,404.316 276.22,404.286 276.42,404.29C276.556,404.272 276.694,404.272 276.83,404.29L277.08,404.36L276.94,405.42ZM286.57,403.86C286.577,404.178 286.533,404.496 286.44,404.8C286.361,405.049 286.239,405.283 286.08,405.49C285.935,405.679 285.755,405.838 285.55,405.96C285.353,406.078 285.141,406.169 284.92,406.23C285.185,406.278 285.439,406.372 285.67,406.51C285.902,406.647 286.108,406.823 286.28,407.03C286.462,407.25 286.605,407.501 286.7,407.77C286.808,408.068 286.863,408.383 286.86,408.7C286.863,409.08 286.792,409.457 286.65,409.81C286.508,410.152 286.285,410.454 286,410.69C285.673,410.956 285.295,411.153 284.89,411.27C284.373,411.419 283.837,411.49 283.3,411.48L281.21,411.48L281.21,401.28L283.21,401.28C283.732,401.269 284.254,401.329 284.76,401.46C285.145,401.564 285.505,401.745 285.82,401.99C286.089,402.21 286.295,402.496 286.42,402.82C286.525,403.17 286.566,403.536 286.54,403.9L286.57,403.86ZM285.26,403.86C285.272,403.416 285.09,402.988 284.76,402.69C284.306,402.345 283.739,402.181 283.17,402.23L282.49,402.23L282.49,405.77L283.16,405.77C283.729,405.808 284.292,405.625 284.73,405.26C285.066,404.905 285.247,404.429 285.23,403.94L285.26,403.86ZM285.45,408.59C285.476,408.092 285.278,407.607 284.91,407.27C284.471,406.924 283.918,406.753 283.36,406.79L282.48,406.79L282.48,410.38L283.28,410.38C283.869,410.434 284.459,410.274 284.94,409.93C285.267,409.594 285.441,409.138 285.42,408.67L285.45,408.59ZM289.63,411.46L288.43,411.46L288.43,404.33L289.63,404.33L289.63,411.46ZM289,402.68C288.778,402.688 288.563,402.6 288.41,402.44C288.257,402.267 288.178,402.041 288.19,401.81C288.181,401.586 288.26,401.367 288.41,401.2C288.57,401.054 288.784,400.982 289,401C289.219,400.993 289.43,401.08 289.58,401.24C289.73,401.407 289.809,401.626 289.8,401.85C289.812,402.081 289.733,402.307 289.58,402.48C289.423,402.625 289.213,402.698 289,402.68ZM292.63,409.87C292.612,410.088 292.657,410.307 292.76,410.5C292.867,410.63 293.033,410.698 293.2,410.68C293.29,410.691 293.38,410.691 293.47,410.68L293.64,410.62L293.75,411.51L293.42,411.63C293.211,411.685 292.996,411.708 292.78,411.7C292.41,411.722 292.047,411.587 291.78,411.33C291.492,410.954 291.36,410.481 291.41,410.01L291.41,401L292.61,400.87L292.61,409.87L292.63,409.87ZM294.5,408.07C294.481,407.455 294.576,406.841 294.78,406.26C294.939,405.823 295.187,405.425 295.51,405.09C295.789,404.804 296.131,404.588 296.51,404.46C296.874,404.337 297.256,404.273 297.64,404.27C297.838,404.267 298.035,404.284 298.23,404.32C298.374,404.348 298.515,404.391 298.65,404.45L298.65,401L299.85,400.87L299.85,411.51L298.75,411.51L298.75,410.75C298.705,410.838 298.651,410.922 298.59,411C298.494,411.117 298.383,411.221 298.26,411.31C298.101,411.425 297.926,411.516 297.74,411.58C297.505,411.658 297.258,411.695 297.01,411.69C296.666,411.698 296.324,411.63 296.01,411.49C295.698,411.345 295.426,411.125 295.22,410.85C294.97,410.511 294.787,410.128 294.68,409.72C294.544,409.181 294.483,408.626 294.5,408.07ZM297.32,410.64C297.493,410.644 297.665,410.62 297.83,410.57C297.968,410.525 298.099,410.461 298.22,410.38C298.318,410.314 298.409,410.236 298.49,410.15C298.553,410.085 298.609,410.015 298.66,409.94L298.66,405.54C298.541,405.466 298.413,405.405 298.28,405.36C298.105,405.308 297.923,405.284 297.74,405.29C297.474,405.287 297.209,405.335 296.96,405.43C296.713,405.529 296.495,405.691 296.33,405.9C296.135,406.153 295.992,406.442 295.91,406.75C295.795,407.167 295.741,407.598 295.75,408.03C295.743,408.447 295.787,408.863 295.88,409.27C295.945,409.557 296.063,409.828 296.23,410.07C296.357,410.256 296.529,410.407 296.73,410.51C296.917,410.601 297.122,410.649 297.33,410.65L297.32,410.64ZM306.7,411.53L305.6,411.53L305.6,410.73C305.545,410.823 305.482,410.91 305.41,410.99C305.297,411.115 305.17,411.226 305.03,411.32C304.855,411.433 304.667,411.523 304.47,411.59C304.236,411.673 303.989,411.714 303.74,411.71C303.451,411.715 303.163,411.668 302.89,411.57C302.637,411.48 302.413,411.325 302.24,411.12C302.046,410.883 301.906,410.607 301.83,410.31C301.728,409.908 301.681,409.494 301.69,409.08L301.69,404.4L302.89,404.4L302.89,409C302.852,409.443 302.953,409.887 303.18,410.27C303.4,410.535 303.736,410.677 304.08,410.65C304.394,410.661 304.703,410.57 304.96,410.39C305.167,410.244 305.356,410.073 305.52,409.88L305.52,404.41L306.72,404.41L306.72,411.54L306.7,411.53ZM312.44,411.53L312.44,406.94C312.479,406.485 312.37,406.029 312.13,405.64C311.905,405.369 311.561,405.224 311.21,405.25C310.892,405.238 310.578,405.333 310.32,405.52C310.109,405.669 309.918,405.844 309.75,406.04L309.75,411.54L308.55,411.54L308.55,404.41L309.65,404.41L309.65,405.21C309.703,405.116 309.767,405.029 309.84,404.95C309.954,404.822 310.085,404.711 310.23,404.62C310.405,404.508 310.593,404.418 310.79,404.35C311.028,404.267 311.278,404.227 311.53,404.23C311.823,404.226 312.114,404.274 312.39,404.37C312.642,404.461 312.866,404.616 313.04,404.82C313.237,405.057 313.38,405.333 313.46,405.63C313.568,406.031 313.619,406.445 313.61,406.86L313.61,411.54L312.41,411.54L312.44,411.53ZM320.55,405.33L319.66,405.33C319.891,405.717 320.008,406.16 320,406.61C320.002,406.952 319.937,407.292 319.81,407.61C319.695,407.902 319.518,408.165 319.29,408.38C319.062,408.592 318.793,408.755 318.5,408.86C318.179,408.973 317.84,409.027 317.5,409.02L317.3,409.02L317.11,409.02C316.976,409.082 316.851,409.163 316.74,409.26C316.614,409.367 316.544,409.525 316.55,409.69C316.549,409.829 316.612,409.962 316.72,410.05C316.886,410.157 317.083,410.206 317.28,410.19L318.19,410.19C318.506,410.187 318.822,410.22 319.13,410.29C319.399,410.35 319.654,410.463 319.88,410.62C320.093,410.773 320.264,410.975 320.38,411.21C320.505,411.479 320.567,411.773 320.56,412.07C320.564,412.438 320.478,412.802 320.31,413.13C320.144,413.451 319.908,413.732 319.62,413.95C319.296,414.194 318.93,414.377 318.54,414.49C318.075,414.622 317.593,414.686 317.11,414.68C316.489,414.724 315.873,414.546 315.37,414.18C314.965,413.819 314.747,413.292 314.78,412.75C314.775,412.512 314.822,412.277 314.92,412.06C315.009,411.878 315.124,411.71 315.26,411.56C315.373,411.429 315.505,411.315 315.65,411.22L316,411C315.689,410.766 315.515,410.389 315.54,410C315.534,409.83 315.572,409.661 315.65,409.51C315.715,409.384 315.799,409.27 315.9,409.17C315.985,409.09 316.079,409.019 316.18,408.96L316.4,408.85C316.032,408.679 315.725,408.4 315.52,408.05C315.279,407.628 315.161,407.146 315.18,406.66C315.179,406.318 315.243,405.978 315.37,405.66C315.488,405.376 315.665,405.12 315.89,404.91C316.113,404.708 316.375,404.555 316.66,404.46C316.963,404.359 317.281,404.309 317.6,404.31C317.925,404.308 318.248,404.369 318.55,404.49L320.72,404.49L320.55,405.33ZM317.24,411.33C317.057,411.347 316.873,411.347 316.69,411.33C316.598,411.382 316.511,411.442 316.43,411.51C316.343,411.583 316.266,411.667 316.2,411.76C316.127,411.868 316.07,411.986 316.03,412.11C315.982,412.262 315.958,412.421 315.96,412.58C315.958,412.609 315.956,412.638 315.956,412.668C315.956,413.255 316.439,413.738 317.026,413.738C317.091,413.738 317.156,413.732 317.22,413.72C317.785,413.764 318.349,413.616 318.82,413.3C319.143,413.069 319.337,412.697 319.34,412.3C319.37,412.012 319.244,411.73 319.01,411.56C318.745,411.402 318.439,411.325 318.13,411.34L317.22,411.34L317.24,411.33ZM318.83,406.64C318.872,406.239 318.741,405.839 318.47,405.54C318.239,405.326 317.935,405.208 317.62,405.21C317.292,405.204 316.974,405.322 316.73,405.54C316.235,406.187 316.235,407.093 316.73,407.74C317.229,408.176 317.981,408.176 318.48,407.74C318.753,407.435 318.88,407.026 318.83,406.62L318.83,406.64ZM267.75,426.54L266.65,426.54L266.65,425.74C266.596,425.833 266.532,425.92 266.46,426C266.349,426.126 266.221,426.237 266.08,426.33C265.906,426.447 265.718,426.541 265.52,426.61C265.286,426.693 265.039,426.734 264.79,426.73C264.497,426.736 264.206,426.689 263.93,426.59C263.682,426.497 263.461,426.342 263.29,426.14C263.096,425.903 262.956,425.627 262.88,425.33C262.777,424.928 262.73,424.514 262.74,424.1L262.74,419.42L263.94,419.42L263.94,424C263.902,424.443 264.003,424.887 264.23,425.27C264.45,425.535 264.786,425.677 265.13,425.65C265.444,425.662 265.753,425.57 266.01,425.39C266.217,425.244 266.406,425.073 266.57,424.88L266.57,419.41L267.77,419.41L267.77,426.54L267.75,426.54ZM273.49,426.54L273.49,421.95C273.527,421.495 273.418,421.04 273.18,420.65C272.952,420.377 272.605,420.232 272.25,420.26C271.932,420.249 271.619,420.344 271.36,420.53C271.154,420.681 270.966,420.855 270.8,421.05L270.8,426.55L269.6,426.55L269.6,419.42L270.7,419.42L270.7,420.22C270.753,420.126 270.817,420.039 270.89,419.96C271.004,419.832 271.135,419.721 271.28,419.63C271.459,419.518 271.65,419.427 271.85,419.36C272.088,419.277 272.338,419.236 272.59,419.24C272.883,419.237 273.174,419.284 273.45,419.38C273.702,419.472 273.926,419.627 274.1,419.83C274.296,420.067 274.439,420.343 274.52,420.64C274.629,421.041 274.68,421.455 274.67,421.87L274.67,426.55L273.47,426.55L273.49,426.54ZM276.16,423.08C276.141,422.465 276.236,421.851 276.44,421.27C276.598,420.833 276.847,420.434 277.17,420.1C277.449,419.814 277.791,419.598 278.17,419.47C278.534,419.346 278.916,419.282 279.3,419.28C279.498,419.277 279.695,419.294 279.89,419.33C280.035,419.357 280.176,419.4 280.31,419.46L280.31,416L281.51,415.87L281.51,426.51L280.41,426.51L280.41,425.75C280.364,425.838 280.311,425.922 280.25,426C280.155,426.118 280.044,426.222 279.92,426.31C279.761,426.425 279.586,426.516 279.4,426.58C279.165,426.658 278.918,426.695 278.67,426.69C278.326,426.698 277.984,426.63 277.67,426.49C277.358,426.345 277.087,426.125 276.88,425.85C276.63,425.511 276.447,425.128 276.34,424.72C276.2,424.178 276.136,423.619 276.15,423.06L276.16,423.08ZM278.98,425.65C279.153,425.655 279.325,425.631 279.49,425.58C279.628,425.535 279.759,425.471 279.88,425.39C280.056,425.272 280.208,425.123 280.33,424.95L280.33,420.55C280.211,420.476 280.083,420.415 279.95,420.37C279.775,420.317 279.593,420.293 279.41,420.3C279.144,420.297 278.879,420.345 278.63,420.44C278.383,420.54 278.166,420.701 278,420.91C277.806,421.163 277.663,421.452 277.58,421.76C277.466,422.177 277.412,422.608 277.42,423.04C277.413,423.457 277.457,423.873 277.55,424.28C277.615,424.567 277.733,424.838 277.9,425.08C278.152,425.434 278.565,425.641 279,425.63L278.98,425.65ZM286.77,426.54L286.77,416.27L291.77,416.27L291.68,417.27L288.02,417.27L288.02,421.06L291.39,421.06L291.39,422.06L288.02,422.06L288.02,426.47L286.73,426.47L286.77,426.54ZM292.7,423C292.689,422.428 292.766,421.858 292.93,421.31C293.056,420.885 293.267,420.491 293.55,420.15C293.796,419.858 294.108,419.628 294.46,419.48C295.161,419.192 295.949,419.192 296.65,419.48C296.994,419.627 297.297,419.857 297.53,420.15C297.802,420.494 298.002,420.888 298.12,421.31C298.271,421.86 298.342,422.429 298.33,423C298.343,423.578 298.269,424.154 298.11,424.71C297.986,425.139 297.775,425.537 297.49,425.88C297.244,426.169 296.932,426.396 296.58,426.54C296.23,426.678 295.857,426.75 295.48,426.75C295.103,426.752 294.73,426.681 294.38,426.54C294.036,426.397 293.734,426.17 293.5,425.88C293.23,425.535 293.03,425.141 292.91,424.72C292.757,424.16 292.686,423.58 292.7,423ZM297.08,423C297.128,422.285 296.983,421.57 296.66,420.93C296.412,420.531 295.975,420.288 295.505,420.288C295.035,420.288 294.598,420.531 294.35,420.93C294.051,421.576 293.93,422.291 294,423C293.955,423.692 294.101,424.384 294.42,425C294.669,425.398 295.111,425.634 295.58,425.62C296.046,425.635 296.486,425.398 296.73,425C297.026,424.378 297.151,423.687 297.09,423L297.08,423ZM302.98,420.49L302.79,420.41C302.657,420.392 302.523,420.392 302.39,420.41C302.069,420.391 301.753,420.499 301.51,420.71C301.312,420.893 301.158,421.119 301.06,421.37L301.06,426.6L299.86,426.6L299.86,419.47L301,419.47L301,420.47C301.049,420.327 301.113,420.19 301.19,420.06C301.27,419.925 301.371,419.803 301.49,419.7C301.614,419.592 301.756,419.507 301.91,419.45C302.1,419.386 302.3,419.356 302.5,419.36C302.636,419.342 302.774,419.342 302.91,419.36L303.15,419.43L302.98,420.49ZM307.19,420.88C307.058,420.747 306.914,420.627 306.76,420.52C306.519,420.356 306.231,420.275 305.94,420.29C305.678,420.271 305.418,420.35 305.21,420.51C305.052,420.641 304.96,420.835 304.96,421.04C304.955,421.28 305.036,421.515 305.19,421.7C305.396,421.918 305.632,422.107 305.89,422.26L306.34,422.53C306.773,422.774 307.161,423.088 307.49,423.46C308.101,424.28 308.029,425.433 307.32,426.17C306.858,426.583 306.248,426.792 305.63,426.75C305.374,426.754 305.118,426.724 304.87,426.66C304.674,426.608 304.483,426.537 304.3,426.45C304.153,426.381 304.015,426.294 303.89,426.19C303.794,426.11 303.704,426.023 303.62,425.93L304.2,424.93L304.41,425.14C304.501,425.228 304.602,425.305 304.71,425.37C304.836,425.448 304.97,425.512 305.11,425.56C305.278,425.612 305.454,425.635 305.63,425.63C305.923,425.651 306.214,425.565 306.45,425.39C306.629,425.252 306.733,425.036 306.73,424.81C306.732,424.66 306.708,424.512 306.66,424.37C306.615,424.248 306.547,424.136 306.46,424.04C306.362,423.934 306.251,423.84 306.13,423.76L305.68,423.46L305.23,423.18C304.851,422.93 304.514,422.623 304.23,422.27C303.966,421.92 303.831,421.488 303.85,421.05C303.848,420.795 303.902,420.542 304.01,420.31C304.114,420.088 304.264,419.89 304.45,419.73C304.645,419.561 304.868,419.429 305.11,419.34C305.37,419.246 305.644,419.199 305.92,419.2C306.159,419.195 306.398,419.222 306.63,419.28C306.809,419.327 306.98,419.398 307.14,419.49C307.268,419.562 307.388,419.646 307.5,419.74L307.73,419.95L307.19,420.88ZM313.28,420.82L313.14,420.68C313.063,420.612 312.979,420.551 312.89,420.5C312.776,420.433 312.656,420.379 312.53,420.34C312.378,420.293 312.219,420.269 312.06,420.27C311.813,420.268 311.568,420.315 311.34,420.41C311.111,420.508 310.912,420.663 310.76,420.86C310.579,421.102 310.446,421.377 310.37,421.67C310.269,422.065 310.222,422.472 310.23,422.88C310.223,423.324 310.266,423.766 310.36,424.2C310.422,424.506 310.541,424.798 310.71,425.06C310.844,425.26 311.031,425.419 311.25,425.52C311.474,425.616 311.716,425.663 311.96,425.66C312.252,425.68 312.544,425.614 312.8,425.47C312.946,425.379 313.083,425.276 313.21,425.16L313.7,426C313.635,426.075 313.565,426.145 313.49,426.21C313.38,426.304 313.259,426.385 313.13,426.45C312.959,426.538 312.777,426.605 312.59,426.65C312.348,426.707 312.099,426.734 311.85,426.73C311.472,426.734 311.096,426.67 310.74,426.54C310.387,426.409 310.073,426.188 309.83,425.9C309.549,425.559 309.341,425.164 309.22,424.74C309.056,424.165 308.978,423.568 308.99,422.97C308.976,422.379 309.068,421.789 309.26,421.23C309.413,420.77 309.666,420.35 310,420C310.282,419.715 310.623,419.496 311,419.36C311.564,419.143 312.18,419.098 312.77,419.23C312.95,419.273 313.125,419.337 313.29,419.42C313.42,419.484 313.541,419.565 313.65,419.66L313.88,419.88L313.28,420.82ZM318.94,426.57L318.94,421.98C318.979,421.526 318.874,421.071 318.64,420.68C318.411,420.409 318.064,420.264 317.71,420.29C317.392,420.28 317.079,420.375 316.82,420.56C316.614,420.712 316.426,420.886 316.26,421.08L316.26,426.58L315.06,426.58L315.06,416L316.26,415.87L316.26,420.1L316.45,419.86C316.552,419.744 316.67,419.643 316.8,419.56C316.969,419.452 317.15,419.365 317.34,419.3C317.582,419.222 317.836,419.185 318.09,419.19C318.649,419.165 319.191,419.389 319.57,419.8C319.985,420.38 320.18,421.089 320.12,421.8L320.12,426.48L318.92,426.48L318.94,426.57ZM326.94,426.57L325.84,426.57L325.84,425.77C325.787,425.864 325.723,425.951 325.65,426.03C325.539,426.157 325.411,426.268 325.27,426.36C325.096,426.477 324.908,426.571 324.71,426.64C324.476,426.723 324.229,426.764 323.98,426.76C323.687,426.766 323.396,426.719 323.12,426.62C322.868,426.528 322.644,426.373 322.47,426.17C322.277,425.932 322.137,425.656 322.06,425.36C321.957,424.958 321.91,424.544 321.92,424.13L321.92,419.45L323.12,419.45L323.12,424C323.082,424.443 323.183,424.887 323.41,425.27C323.631,425.534 323.967,425.676 324.31,425.65C324.624,425.662 324.933,425.57 325.19,425.39C325.397,425.244 325.586,425.073 325.75,424.88L325.75,419.41L326.96,419.41L326.96,426.54L326.94,426.57ZM332.68,426.57L332.68,421.98C332.719,421.526 332.614,421.071 332.38,420.68C332.152,420.407 331.805,420.262 331.45,420.29C331.132,420.279 330.819,420.374 330.56,420.56C330.35,420.711 330.159,420.885 329.99,421.08L329.99,426.58L328.79,426.58L328.79,419.45L329.89,419.45L329.89,420.25C329.942,420.155 330.006,420.068 330.08,419.99C330.193,419.862 330.325,419.75 330.47,419.66C330.646,419.549 330.834,419.458 331.03,419.39C331.268,419.307 331.518,419.266 331.77,419.27C332.063,419.267 332.354,419.314 332.63,419.41C332.881,419.502 333.105,419.657 333.28,419.86C333.474,420.098 333.617,420.374 333.7,420.67C333.808,421.071 333.859,421.485 333.85,421.9L333.85,426.58L332.65,426.58L332.68,426.57ZM340.79,420.37L339.9,420.37C340.131,420.757 340.248,421.2 340.24,421.65C340.245,421.992 340.184,422.331 340.06,422.65C339.944,422.938 339.766,423.197 339.54,423.41C339.313,423.623 339.044,423.786 338.75,423.89C338.43,424.006 338.091,424.064 337.75,424.06L337.56,424.06L337.37,424.06C337.235,424.121 337.111,424.202 337,424.3C336.873,424.406 336.803,424.565 336.81,424.73C336.806,424.873 336.869,425.01 336.98,425.1C337.146,425.207 337.343,425.256 337.54,425.24L338.45,425.24C338.767,425.238 339.082,425.275 339.39,425.35C339.66,425.409 339.915,425.521 340.14,425.68C340.353,425.833 340.524,426.035 340.64,426.27C340.766,426.539 340.827,426.833 340.82,427.13C340.823,427.498 340.737,427.862 340.57,428.19C340.403,428.511 340.167,428.79 339.88,429.01C339.554,429.249 339.189,429.429 338.8,429.54C338.338,429.671 337.86,429.735 337.38,429.73C336.759,429.773 336.143,429.596 335.64,429.23C335.233,428.87 335.015,428.342 335.05,427.8C335.044,427.562 335.092,427.326 335.19,427.11C335.275,426.925 335.387,426.754 335.52,426.6C335.634,426.469 335.765,426.355 335.91,426.26L336.23,426.06C335.919,425.826 335.745,425.449 335.77,425.06C335.764,424.89 335.802,424.721 335.88,424.57C335.945,424.444 336.029,424.33 336.13,424.23C336.214,424.146 336.308,424.072 336.41,424.01L336.62,423.9C336.254,423.731 335.947,423.456 335.74,423.11C335.349,422.354 335.298,421.466 335.6,420.67C335.716,420.385 335.894,420.129 336.12,419.92C336.343,419.719 336.605,419.565 336.89,419.47C337.193,419.369 337.511,419.319 337.83,419.32C338.172,419.312 338.512,419.373 338.83,419.5L341,419.5L340.79,420.37ZM337.48,426.37C337.297,426.387 337.113,426.387 336.93,426.37C336.837,426.42 336.75,426.481 336.67,426.55C336.583,426.623 336.505,426.707 336.44,426.8C336.366,426.908 336.309,427.026 336.27,427.15C336.222,427.302 336.198,427.461 336.2,427.62C336.197,427.653 336.196,427.685 336.196,427.718C336.196,428.305 336.679,428.788 337.266,428.788C337.331,428.788 337.396,428.782 337.46,428.77C338.029,428.816 338.596,428.668 339.07,428.35C339.393,428.119 339.587,427.747 339.59,427.35C339.62,427.062 339.494,426.78 339.26,426.61C338.995,426.452 338.689,426.375 338.38,426.39L337.47,426.39L337.48,426.37ZM339.07,421.68C339.112,421.279 338.981,420.879 338.71,420.58C338.477,420.363 338.168,420.244 337.85,420.25C337.522,420.244 337.204,420.362 336.96,420.58C336.465,421.227 336.465,422.133 336.96,422.78C337.194,422.995 337.502,423.113 337.82,423.11C338.148,423.119 338.467,423.001 338.71,422.78C339.001,422.461 339.13,422.026 339.06,421.6L339.07,421.68Z" style="fill:rgb(29,29,27);fill-rule:nonzero;"/>
    </g>
    <g transform="matrix(1,0,0,1,51.6864,-37.81)">
        <path d="M61.01,95.87L62.88,95.87L62.88,120.84L58.52,120.84L58.52,95.87L61.01,95.87Z" style="fill:rgb(248,210,0);fill-rule:nonzero;"/>
    </g>
    <g transform="matrix(1,0,0,1,51.6864,-37.81)">
        <path d="M61.01,70.78L62.88,70.78L62.88,95.87L58.52,95.87L58.52,70.78L61.01,70.78Z" style="fill:rgb(227,6,19);fill-rule:nonzero;"/>
    </g>
    <g transform="matrix(1,0,0,1,-139.144,-378.45)">
        <path d="M238,395.29C239.28,397.29 240.28,397.29 241.79,397.29C240.809,396.505 239.973,395.554 239.32,394.48L237,390.73C236.761,389.572 236.159,388.521 235.28,387.73C235.527,387.643 235.762,387.526 235.98,387.38C234.46,387.38 232.98,386.61 232.11,386.61C232.077,386.606 232.043,386.603 232.009,386.603C231.594,386.603 231.248,386.935 231.23,387.35C231.374,387.986 231.996,388.405 232.64,388.3C232.891,388.296 233.142,388.273 233.39,388.23C233.918,388.83 234.228,389.592 234.27,390.39C234.27,392.02 232.27,393.3 230.34,393.3L230,393.3C229.603,392.748 229.34,392.111 229.23,391.44C229.23,390.14 230.08,389.08 230.08,387.79C230.075,387.243 229.885,386.714 229.54,386.29C229.773,386.099 229.967,385.865 230.11,385.6C229.933,385.659 229.746,385.683 229.56,385.67C228.61,385.67 227.84,385.42 227.09,385.42C226.66,385.42 226.55,385.55 226.55,385.68C226.541,385.719 226.541,385.761 226.55,385.8C226.392,385.737 226.228,385.691 226.06,385.66C225.826,385.618 225.588,385.598 225.35,385.6C224.44,385.6 224.11,385.98 224.11,386.31C224.176,386.731 224.336,387.131 224.58,387.48C224.891,387.318 225.231,387.216 225.58,387.18C226.122,387.266 226.569,387.655 226.73,388.18C226.492,388.216 226.251,388.233 226.01,388.23C225.457,388.206 224.911,388.098 224.39,387.91C224.525,388.229 224.803,388.467 225.14,388.55C225.727,388.73 226.33,388.854 226.94,388.92C226.874,389.09 226.75,389.232 226.59,389.32C226.551,389.332 226.509,389.332 226.47,389.32C225.873,389.211 225.289,389.037 224.73,388.8C225.09,389.466 225.697,389.965 226.42,390.19C225.596,391.053 224.953,392.074 224.53,393.19L224.2,393.19C222.2,393.19 220.27,391.91 220.27,390.28C220.312,389.482 220.622,388.72 221.15,388.12C221.398,388.163 221.649,388.186 221.9,388.19C222.547,388.301 223.176,387.88 223.32,387.24C223.302,386.825 222.956,386.493 222.541,386.493C222.507,386.493 222.473,386.496 222.44,386.5C221.61,386.5 220.1,387.27 218.57,387.27C218.788,387.416 219.023,387.533 219.27,387.62C218.391,388.411 217.789,389.462 217.55,390.62L215.22,394.36C214.567,395.434 213.731,396.385 212.75,397.17C214.26,397.17 215.26,397.17 216.54,395.17L217.74,393.25C217.831,393.501 217.941,393.746 218.07,393.98L215.69,397.79C215.037,398.864 214.201,399.815 213.22,400.6C214.73,400.6 215.73,400.6 217.01,398.6L219.01,395.32C219.16,395.48 219.32,395.64 219.5,395.8L216.61,400.43C215.958,401.504 215.122,402.456 214.14,403.24C215.65,403.24 216.65,403.24 217.93,401.24L220.75,396.73L221.32,397.07L217.88,402.58C217.227,403.653 216.391,404.604 215.41,405.39C216.92,405.39 217.92,405.39 219.2,403.39L222.74,397.72L223.38,397.95L219.38,404.36C218.726,405.433 217.89,406.384 216.91,407.17C218.42,407.17 219.42,407.17 220.7,405.17L224.97,398.34L225.1,398.34C225.221,398.681 225.288,399.039 225.3,399.4C225.3,401.55 223.89,403.4 222.2,404.91C222.352,404.958 222.511,404.979 222.67,404.97C222.913,404.991 223.157,404.991 223.4,404.97C222.925,405.894 222.37,406.774 221.74,407.6C221.116,407.492 220.484,407.431 219.85,407.42C219.821,407.415 219.792,407.413 219.763,407.413C219.472,407.413 219.233,407.652 219.233,407.943C219.233,407.972 219.235,408.001 219.24,408.03C219.235,408.46 219.422,408.871 219.75,409.15C219.85,408.89 220.06,408.55 221.08,408.55L221.18,408.55C220.88,408.88 219.95,409.63 219.95,410.24C220,410.768 220.422,411.19 220.95,411.24C220.934,411.127 220.934,411.013 220.95,410.9C221.048,410.336 221.329,409.819 221.75,409.43C221.745,409.513 221.745,409.597 221.75,409.68C221.75,410.84 221.86,411.38 222.59,411.38C222.845,411.372 223.091,411.281 223.29,411.12C222.888,410.758 222.699,410.213 222.79,409.68C222.79,409.51 222.79,409.35 222.79,409.12C222.803,408.957 222.803,408.793 222.79,408.63C222.98,408.614 223.17,408.614 223.36,408.63C223.842,408.563 224.327,408.735 224.66,409.09C225.01,408.856 225.259,408.499 225.36,408.09C225.36,408.083 225.36,408.076 225.36,408.069C225.36,407.762 225.108,407.509 224.8,407.509C224.763,407.509 224.726,407.513 224.69,407.52C224.49,407.52 223.84,407.65 223.3,407.65C223.691,406.961 224.143,406.309 224.65,405.7C224.734,406.01 224.912,406.286 225.16,406.49C225.26,405.538 225.604,404.629 226.16,403.85C226.292,404.609 226.356,405.379 226.35,406.15C226.35,409.04 225.65,411.15 224.18,411.58C224.388,411.943 224.763,412.179 225.18,412.21C225.737,412.042 226.167,411.594 226.31,411.03C226.47,411.45 226.9,412.49 227.31,412.49C227.72,412.49 228.17,411.49 228.31,411.03C228.453,411.594 228.883,412.042 229.44,412.21C229.857,412.179 230.232,411.943 230.44,411.58C228.97,411.17 228.27,409.04 228.27,406.15C228.265,405.379 228.329,404.61 228.46,403.85C229.017,404.628 229.362,405.538 229.46,406.49C229.707,406.285 229.885,406.009 229.97,405.7C230.476,406.309 230.928,406.962 231.32,407.65C230.78,407.65 230.14,407.52 229.93,407.52C229.894,407.513 229.857,407.509 229.82,407.509C229.512,407.509 229.26,407.762 229.26,408.069C229.26,408.076 229.26,408.083 229.26,408.09C229.361,408.498 229.611,408.855 229.96,409.09C230.293,408.735 230.778,408.563 231.26,408.63C231.45,408.614 231.64,408.614 231.83,408.63C231.817,408.793 231.817,408.957 231.83,409.12C231.83,409.35 231.83,409.52 231.83,409.68C231.921,410.213 231.732,410.758 231.33,411.12C231.529,411.28 231.775,411.371 232.03,411.38C232.77,411.38 232.87,410.85 232.87,409.68C232.875,409.597 232.875,409.513 232.87,409.43C233.291,409.819 233.572,410.336 233.67,410.9C233.686,411.013 233.686,411.127 233.67,411.24C234.198,411.19 234.62,410.768 234.67,410.24C234.67,409.63 233.74,408.88 233.44,408.55L233.54,408.55C234.54,408.55 234.76,408.89 234.87,409.15C235.198,408.871 235.385,408.46 235.38,408.03C235.385,408.001 235.387,407.972 235.387,407.943C235.387,407.652 235.148,407.413 234.857,407.413C234.828,407.413 234.799,407.415 234.77,407.42C234.136,407.432 233.504,407.492 232.88,407.6C232.25,406.774 231.695,405.894 231.22,404.97C231.463,404.991 231.707,404.991 231.95,404.97C232.109,404.978 232.268,404.958 232.42,404.91C230.73,403.45 229.32,401.55 229.32,399.4C229.333,399.039 229.4,398.681 229.52,398.34L229.65,398.34L233.92,405.17C235.2,407.17 236.2,407.17 237.71,407.17C236.729,406.384 235.893,405.433 235.24,404.36L231.24,397.95L231.88,397.72L235.42,403.39C236.7,405.39 237.7,405.39 239.21,405.39C238.229,404.605 237.393,403.654 236.74,402.58L233.3,397.07L233.87,396.73L236.69,401.24C237.97,403.24 238.97,403.24 240.48,403.24C239.499,402.455 238.663,401.504 238.01,400.43L235,395.94C235.17,395.79 235.33,395.63 235.48,395.46L237.48,398.74C238.76,400.74 239.76,400.74 241.27,400.74C240.289,399.955 239.453,399.004 238.8,397.93L236.42,394.12C236.549,393.886 236.659,393.641 236.75,393.39L238,395.29ZM218.89,390.9C218.957,389.796 219.461,388.763 220.29,388.03L220.55,388.09C219.933,388.71 219.554,389.528 219.48,390.4C219.48,392.48 221.71,394.29 224.22,394.29C224.22,394.47 224.22,394.66 224.22,394.85C224.203,395.136 224.203,395.424 224.22,395.71C221.37,395.71 218.86,393.4 218.86,390.91L218.89,390.9ZM222.72,408C223.205,408.007 223.69,407.974 224.17,407.9L224.51,407.9C224.72,407.9 224.88,407.9 224.88,408.17C224.828,408.411 224.69,408.625 224.49,408.77C224.116,408.495 223.65,408.376 223.19,408.44C222.909,408.449 222.628,408.476 222.35,408.52L222.3,408.52L222.3,408.61C222.333,408.825 222.35,409.042 222.35,409.26L222.35,409.83C222.293,410.308 222.41,410.791 222.68,411.19C222.604,411.202 222.526,411.202 222.45,411.19C222.03,411.19 221.91,411.01 221.91,409.79C221.91,409.55 221.91,409.32 221.91,409.16L221.91,409L221.86,409C221.19,409.481 220.723,410.194 220.55,411C220.339,410.862 220.196,410.64 220.16,410.39C220.393,409.802 220.784,409.29 221.29,408.91L221.64,408.56L221.53,408.56C221.341,408.504 221.147,408.47 220.95,408.46C220.456,408.397 219.958,408.546 219.58,408.87C219.474,408.673 219.416,408.454 219.41,408.23C219.4,408.138 219.425,408.045 219.48,407.97C219.547,407.922 219.629,407.901 219.71,407.91C220.38,407.925 221.049,407.989 221.71,408.1C222.429,407.165 223.052,406.16 223.57,405.1C223.668,405.059 223.774,405.038 223.88,405.04C224.13,405.056 224.326,405.269 224.32,405.52C223.663,406.26 223.124,407.097 222.72,408ZM230.43,405C230.536,404.998 230.642,405.019 230.74,405.06C231.258,406.12 231.882,407.125 232.6,408.06C233.261,407.949 233.93,407.885 234.6,407.87C234.681,407.861 234.763,407.882 234.83,407.93C234.886,408.004 234.911,408.098 234.9,408.19C234.894,408.414 234.836,408.633 234.73,408.83C234.352,408.506 233.854,408.357 233.36,408.42C233.163,408.43 232.969,408.464 232.78,408.52L232.73,408.52L232.67,408.52L233.06,408.91C233.566,409.29 233.957,409.802 234.19,410.39C234.154,410.64 234.011,410.862 233.8,411C233.626,410.194 233.159,409.481 232.49,409L232.44,409L232.44,409.85C232.44,411.07 232.32,411.25 231.9,411.25C231.824,411.262 231.746,411.262 231.67,411.25C231.94,410.851 232.057,410.368 232,409.89L232,409.32C232.001,409.102 232.018,408.885 232.05,408.67L232.05,408.58L232,408.58C231.722,408.536 231.441,408.509 231.16,408.5C230.7,408.437 230.234,408.556 229.86,408.83C229.66,408.685 229.522,408.471 229.47,408.23C229.47,407.98 229.63,407.96 229.83,407.96L230.17,407.96C230.65,408.034 231.135,408.067 231.62,408.06C231.203,407.143 230.646,406.296 229.97,405.55C229.967,405.527 229.965,405.503 229.965,405.48C229.965,405.222 230.172,405.008 230.43,405ZM227.12,388.39C227.022,388.023 226.844,387.681 226.6,387.39C226.345,387.052 225.953,386.843 225.53,386.82C225.241,386.84 224.957,386.908 224.69,387.02C224.561,386.794 224.473,386.547 224.43,386.29C224.43,386.11 224.74,385.93 225.32,385.93C226.61,385.93 227.38,386.51 227.38,387.49C227.354,387.801 227.266,388.104 227.12,388.38L227.12,388.39ZM227.7,387.12C227.657,386.852 227.551,386.598 227.39,386.38C227.39,386.13 227.5,385.89 227.91,386.09C227.787,386.274 227.768,386.509 227.86,386.71C228.072,386.635 228.216,386.435 228.22,386.21C228.88,386.36 228.4,387.25 227.7,387.11L227.7,387.12ZM230.21,395.73C230.244,395.445 230.26,395.157 230.26,394.87C230.26,394.71 230.26,394.52 230.26,394.31C232.75,394.31 234.93,392.48 234.93,390.42C234.855,389.549 234.476,388.731 233.86,388.11L234.12,388.05C234.948,388.783 235.452,389.816 235.52,390.92C235.5,393.38 233,395.68 230.21,395.73Z" style="fill:rgb(29,29,27);fill-rule:nonzero;"/>
    </g>
    <g transform="matrix(1,0,0,1,51.6864,-37.81)">
        <path d="M62.88,45.93L62.88,70.9L61.01,70.9L58.52,70.9L58.52,45.93L62.88,45.93Z" style="fill:rgb(29,29,27);fill-rule:nonzero;"/>
    </g>
    <g transform="matrix(1,0,0,1,-261.129,-346.15)">
        <path d="M265.88,356.91C265.888,356.857 265.893,356.804 265.893,356.751C265.893,356.203 265.441,355.751 264.893,355.751C264.848,355.751 264.804,355.754 264.76,355.76C264.745,355.759 264.731,355.759 264.716,355.759C264.091,355.759 263.576,356.274 263.576,356.899C263.576,356.977 263.584,357.054 263.6,357.13L263.6,359.27C263.6,360.65 264,361 264.76,361C265.156,361.021 265.549,360.923 265.89,360.72L265.89,358.83L264.73,358.83L264.73,358.13L266.73,358.13L266.73,361.2C266.138,361.521 265.473,361.683 264.8,361.67C263.46,361.67 262.8,360.98 262.8,359.23L262.8,357.16C262.789,357.077 262.783,356.994 262.783,356.91C262.783,355.907 263.609,355.08 264.613,355.08C264.675,355.08 264.738,355.084 264.8,355.09C266.17,355.09 266.8,355.59 266.8,356.91L265.96,356.91L265.88,356.91Z" style="fill:rgb(29,29,27);fill-rule:nonzero;"/>
    </g>
    <g transform="matrix(1,0,0,1,-261.129,-346.15)">
        <path d="M268.2,361.54L268.2,355.22L271.45,355.22L271.45,355.92L269,355.92L269,357.92L271.28,357.92L271.28,358.62L269,358.62L269,360.81L271.5,360.81L271.5,361.51L268.2,361.51L268.2,361.54Z" style="fill:rgb(29,29,27);fill-rule:nonzero;"/>
    </g>
    <g transform="matrix(1,0,0,1,-261.129,-346.15)">
        <path d="M272.51,361.54L272.51,355.22L275.64,355.22L275.64,355.92L273.31,355.92L273.31,357.92L275.52,357.92L275.52,358.62L273.31,358.62L273.31,361.51L272.51,361.51L272.51,361.54Z" style="fill:rgb(29,29,27);fill-rule:nonzero;"/>
    </g>
    <g transform="matrix(1,0,0,1,-261.129,-346.15)">
        <path d="M276.43,359.23L276.43,357.16C276.43,356.063 277.333,355.16 278.43,355.16C279.527,355.16 280.43,356.063 280.43,357.16L280.43,359.23C280.43,360.98 279.78,361.67 278.43,361.67C277.08,361.67 276.43,361 276.43,359.23ZM278.07,354.48L277.25,354.48L277.25,353.57L278.07,353.57L278.07,354.48ZM279.58,359.27L279.58,357.13C279.59,357.068 279.595,357.005 279.595,356.942C279.595,356.295 279.062,355.762 278.415,355.762C277.768,355.762 277.235,356.295 277.235,356.942C277.235,357.005 277.24,357.068 277.25,357.13L277.25,359.27C277.25,360.65 277.65,361 278.41,361C279.17,361 279.58,360.64 279.58,359.26L279.58,359.27ZM279.58,354.48L278.76,354.48L278.76,353.57L279.58,353.57L279.58,354.48Z" style="fill:rgb(29,29,27);fill-rule:nonzero;"/>
    </g>
    <g transform="matrix(1,0,0,1,-261.129,-346.15)">
        <path d="M282.59,358.63L282.59,361.54L281.79,361.54L281.79,355.22L284,355.22C284.029,355.218 284.059,355.217 284.088,355.217C284.873,355.217 285.518,355.863 285.518,356.647C285.518,356.698 285.515,356.749 285.51,356.8C285.559,357.506 285.05,358.138 284.35,358.24C285.08,358.35 285.35,358.6 285.35,359.87C285.375,360.425 285.449,360.977 285.57,361.52L284.73,361.52C284.547,360.836 284.467,360.128 284.49,359.42C284.483,358.969 284.111,358.602 283.66,358.602C283.603,358.602 283.546,358.608 283.49,358.62L282.54,358.62L282.59,358.63ZM282.59,357.93L283.8,357.93C284.285,357.903 284.669,357.497 284.669,357.011C284.669,356.967 284.666,356.924 284.66,356.88C284.668,356.834 284.671,356.787 284.671,356.74C284.671,356.268 284.283,355.88 283.811,355.88L283.81,355.88L282.59,355.88L282.59,357.93Z" style="fill:rgb(29,29,27);fill-rule:nonzero;"/>
    </g>
    <g transform="matrix(1,0,0,1,-261.129,-346.15)">
        <path d="M286.68,355.22L288.62,355.22C289.341,355.154 290.028,355.558 290.32,356.22C290.517,356.868 290.611,357.543 290.6,358.22C290.683,359.089 290.549,359.965 290.21,360.77C289.713,361.393 288.918,361.703 288.13,361.58L286.68,361.58L286.68,355.26L286.68,355.22ZM287.49,360.84L288.25,360.84C289.37,360.84 289.78,360.42 289.78,358.95L289.78,357.67C289.78,356.39 289.39,355.92 288.55,355.92L287.49,355.92L287.49,360.84Z" style="fill:rgb(29,29,27);fill-rule:nonzero;"/>
    </g>
    <g transform="matrix(1,0,0,1,-261.129,-346.15)">
        <path d="M292,361.54L292,355.22L295.25,355.22L295.25,355.92L292.8,355.92L292.8,357.92L295.08,357.92L295.08,358.62L292.8,358.62L292.8,360.81L295.3,360.81L295.3,361.51L292,361.51L292,361.54Z" style="fill:rgb(29,29,27);fill-rule:nonzero;"/>
    </g>
    <g transform="matrix(1,0,0,1,-261.129,-346.15)">
        <path d="M297.18,358.63L297.18,361.54L296.37,361.54L296.37,355.22L298.55,355.22C298.579,355.218 298.609,355.217 298.638,355.217C299.423,355.217 300.068,355.863 300.068,356.647C300.068,356.698 300.065,356.749 300.06,356.8C300.11,357.502 299.606,358.133 298.91,358.24C299.63,358.35 299.91,358.6 299.91,359.87C299.936,360.425 300.009,360.977 300.13,361.52L299.29,361.52C299.104,360.836 299.02,360.128 299.04,359.42C299.033,358.969 298.661,358.602 298.21,358.602C298.153,358.602 298.096,358.608 298.04,358.62L297.1,358.62L297.18,358.63ZM297.18,357.93L298.39,357.93C298.875,357.903 299.259,357.497 299.259,357.011C299.259,356.967 299.256,356.924 299.25,356.88C299.258,356.834 299.261,356.787 299.261,356.74C299.261,356.268 298.873,355.88 298.401,355.88L298.4,355.88L297.19,355.88L297.19,357.88L297.18,357.93Z" style="fill:rgb(29,29,27);fill-rule:nonzero;"/>
    </g>
    <g transform="matrix(1,0,0,1,-261.129,-346.15)">
        <path d="M304.8,355.22L304.8,355.92L303.14,355.92L303.14,361.54L302.34,361.54L302.34,355.92L300.68,355.92L300.68,355.22L304.81,355.22L304.8,355.22Z" style="fill:rgb(29,29,27);fill-rule:nonzero;"/>
    </g>
    <g transform="matrix(1,0,0,1,-261.129,-346.15)">
        <path d="M309.77,361.54L308.77,361.54L307,355.22L307.87,355.22L309.32,360.78L310.8,355.22L311.62,355.22L309.77,361.54Z" style="fill:rgb(29,29,27);fill-rule:nonzero;"/>
    </g>
    <g transform="matrix(1,0,0,1,-261.129,-346.15)">
        <path d="M312.41,359.23L312.41,357.16C312.41,356.063 313.313,355.16 314.41,355.16C315.507,355.16 316.41,356.063 316.41,357.16L316.41,359.23C316.41,360.98 315.76,361.67 314.41,361.67C313.06,361.67 312.41,361 312.41,359.23ZM315.56,359.23L315.56,357.09C315.57,357.028 315.575,356.965 315.575,356.902C315.575,356.255 315.042,355.722 314.395,355.722C313.748,355.722 313.215,356.255 313.215,356.902C313.215,356.965 313.22,357.028 313.23,357.09L313.23,359.23C313.23,360.61 313.63,360.96 314.39,360.96C315.15,360.96 315.56,360.64 315.56,359.26L315.56,359.23Z" style="fill:rgb(29,29,27);fill-rule:nonzero;"/>
    </g>
    <g transform="matrix(1,0,0,1,-261.129,-346.15)">
        <path d="M318.54,361.54L317.79,361.54L317.79,355.22L319.09,355.22L320.68,360.52L322.29,355.22L323.62,355.22L323.62,361.54L322.82,361.54L322.82,355.92L321.05,361.54L320.29,361.54L318.56,355.92L318.56,361.54L318.54,361.54Z" style="fill:rgb(29,29,27);fill-rule:nonzero;"/>
    </g>
</svg>
