<svg id="Ebene_4" data-name="Ebene 4" xmlns="http://www.w3.org/2000/svg" viewBox="0 0 226.77 155.91"><defs><style>.cls-1{fill:#fff;}.cls-2{fill:#1d1d1b;}.cls-3{fill:#f8d200;}.cls-4{fill:#e30613;}</style></defs><title>BMBF_gefördert vom_deutsch</title><rect class="cls-1" width="226.77" height="155.91"/><path class="cls-2" d="M268.38,388.92a3,3,0,0,1-.13.94,2.24,2.24,0,0,1-.36.69,1.94,1.94,0,0,1-.54.47,2.59,2.59,0,0,1-.63.27v0a2.23,2.23,0,0,1,.75.28,2.32,2.32,0,0,1,.61.52,2.45,2.45,0,0,1,.42.73,2.69,2.69,0,0,1,.16.93,2.9,2.9,0,0,1-.21,1.11,2.26,2.26,0,0,1-.65.88,3.12,3.12,0,0,1-1.11.58,5.42,5.42,0,0,1-1.59.21H263V386.3h2a5.7,5.7,0,0,1,1.55.19,2.91,2.91,0,0,1,1.06.53,2,2,0,0,1,.6.82A3,3,0,0,1,268.38,388.92Zm-1.31,0a1.52,1.52,0,0,0-.51-1.17,2.31,2.31,0,0,0-1.59-.46h-0.68v3.54H265a2.21,2.21,0,0,0,1.58-.51A1.83,1.83,0,0,0,267.07,389Zm0.19,4.73a1.67,1.67,0,0,0-.54-1.31,2.26,2.26,0,0,0-1.55-.48h-0.88v3.6h0.8a2.48,2.48,0,0,0,1.66-.45A1.71,1.71,0,0,0,267.27,393.69Zm8,2.87h-1.1v-0.8h0a1.45,1.45,0,0,1-.19.26,1.91,1.91,0,0,1-.38.33,2.59,2.59,0,0,1-.56.27,2.11,2.11,0,0,1-.73.12,2.43,2.43,0,0,1-.85-0.14,1.55,1.55,0,0,1-.65-0.45,2.09,2.09,0,0,1-.41-0.81,4.5,4.5,0,0,1-.14-1.23v-4.68h1.2V394a2.14,2.14,0,0,0,.29,1.27,1.06,1.06,0,0,0,.9.38,1.44,1.44,0,0,0,.88-0.26,3,3,0,0,0,.56-0.51v-5.47h1.2v7.13Zm5.73,0V392a2.16,2.16,0,0,0-.3-1.3,1.1,1.1,0,0,0-.93-0.39,1.44,1.44,0,0,0-.89.27,3.22,3.22,0,0,0-.56.52v5.5h-1.2v-7.13h1.1v0.8h0a1.36,1.36,0,0,1,.19-0.26,1.82,1.82,0,0,1,.39-0.33,2.82,2.82,0,0,1,.56-0.27,2.18,2.18,0,0,1,.74-0.12,2.49,2.49,0,0,1,.86.14,1.54,1.54,0,0,1,.65.45,2.19,2.19,0,0,1,.42.81,4.3,4.3,0,0,1,.15,1.23v4.68H281Zm2.68-3.46a5,5,0,0,1,.28-1.81,3.36,3.36,0,0,1,.73-1.17,2.56,2.56,0,0,1,1-.63,3.59,3.59,0,0,1,1.13-.19,3,3,0,0,1,.59.05,1.86,1.86,0,0,1,.42.13V386l1.2-.13v10.64h-1.1V395.8h0a1.85,1.85,0,0,1-.16.24,1.66,1.66,0,0,1-.33.31,2,2,0,0,1-.52.27,2.18,2.18,0,0,1-.73.11,2.35,2.35,0,0,1-1-.2,2.08,2.08,0,0,1-.79-0.64,3.36,3.36,0,0,1-.54-1.13A6.09,6.09,0,0,1,283.64,393.09Zm2.82,2.57a1.6,1.6,0,0,0,.5-0.07,1.5,1.5,0,0,0,.39-0.19,1.65,1.65,0,0,0,.28-0.23,1.67,1.67,0,0,0,.17-0.21v-4.4a1.74,1.74,0,0,0-.38-0.18,1.69,1.69,0,0,0-.54-0.07,2.13,2.13,0,0,0-.78.14,1.52,1.52,0,0,0-.63.47,2.48,2.48,0,0,0-.42.85,4.57,4.57,0,0,0-.15,1.28,5.13,5.13,0,0,0,.13,1.24,2.33,2.33,0,0,0,.35.8,1.35,1.35,0,0,0,.51.44A1.37,1.37,0,0,0,286.46,395.66Zm9-3.83c0,0.31,0,.57,0,0.8s0,0.42-.06.59h-3.64a3.18,3.18,0,0,0,.54,1.86,1.69,1.69,0,0,0,1.39.6,2,2,0,0,0,.56-0.07,2.11,2.11,0,0,0,.44-0.18,2,2,0,0,0,.31-0.21l0.18-.16,0.45,0.85-0.22.22a2,2,0,0,1-.4.28,2.9,2.9,0,0,1-.62.25,3.29,3.29,0,0,1-.88.1,3.14,3.14,0,0,1-1.21-.22,2.29,2.29,0,0,1-.92-0.69,3.35,3.35,0,0,1-.59-1.19,6.29,6.29,0,0,1-.21-1.73,5.52,5.52,0,0,1,.22-1.64,3.26,3.26,0,0,1,.59-1.14,2.33,2.33,0,0,1,.86-0.66,2.58,2.58,0,0,1,1.05-.22,2,2,0,0,1,1.6.65A2.83,2.83,0,0,1,295.42,391.83Zm-2.26-1.61a1.2,1.2,0,0,0-1,.54,2.91,2.91,0,0,0-.45,1.54h2.6a1.62,1.62,0,0,0,0-.21c0-.09,0-0.2,0-0.31a1.92,1.92,0,0,0-.3-1.15A1,1,0,0,0,293.16,390.22Zm6.94,0.64a3.1,3.1,0,0,0-.43-0.36,1.34,1.34,0,0,0-.82-0.23,1.07,1.07,0,0,0-.73.22,0.69,0.69,0,0,0-.25.53,1,1,0,0,0,.23.66,3.26,3.26,0,0,0,.71.56l0.45,0.27a4.37,4.37,0,0,1,1.14.93,2.1,2.1,0,0,1-.17,2.71,2.3,2.3,0,0,1-1.69.58,2.88,2.88,0,0,1-.76-0.09,3.23,3.23,0,0,1-.57-0.21,1.91,1.91,0,0,1-.41-0.26,2.72,2.72,0,0,1-.27-0.26l0.58-1,0.22,0.21a2,2,0,0,0,.3.23,1.84,1.84,0,0,0,.4.19,1.65,1.65,0,0,0,.52.07,1.23,1.23,0,0,0,.81-0.24,0.73,0.73,0,0,0,.29-0.58,1.34,1.34,0,0,0-.07-0.44,1,1,0,0,0-.2-0.33,1.9,1.9,0,0,0-.33-0.28l-0.45-.3-0.45-.28a4.25,4.25,0,0,1-1-.91,1.89,1.89,0,0,1-.38-1.22,1.7,1.7,0,0,1,.6-1.32,2.1,2.1,0,0,1,.66-0.39,2.29,2.29,0,0,1,.81-0.14,2.73,2.73,0,0,1,.71.08,2.19,2.19,0,0,1,.87.46l0.23,0.21Zm5.87,5.69V392a2.38,2.38,0,0,0-.25-1.26,0.9,0.9,0,0,0-.82-0.39,1.72,1.72,0,0,0-.53.07,1.88,1.88,0,0,0-.41.19,1.79,1.79,0,0,0-.31.25l-0.22.24v5.5h-1.2v-7.13h1.1v0.8h0a2.27,2.27,0,0,1,.22-0.29,2.06,2.06,0,0,1,.37-0.33,2.09,2.09,0,0,1,.52-0.26,2,2,0,0,1,.67-0.1,1.79,1.79,0,0,1,1.72,1,2.52,2.52,0,0,1,.28-0.32,2.35,2.35,0,0,1,1-.54,2.21,2.21,0,0,1,.65-0.09q2.17,0,2.17,2.52v4.79h-1.2V392a2,2,0,0,0-.31-1.26,1.11,1.11,0,0,0-.92-0.39,1.39,1.39,0,0,0-.84.25,3.22,3.22,0,0,0-.53.47c0,0.11,0,.23,0,0.35s0,0.26,0,.39v4.79H306Zm7.95,0h-1.2v-7.13h1.2v7.13Zm-0.6-8.86a0.77,0.77,0,0,1-.59-0.24,0.87,0.87,0,0,1-.22-0.62,0.85,0.85,0,0,1,.22-0.61,0.77,0.77,0,0,1,.59-0.24,0.76,0.76,0,0,1,.58.24,0.86,0.86,0,0,1,.22.61,0.88,0.88,0,0,1-.22.62A0.76,0.76,0,0,1,313.33,387.7Zm6.33,8.86V392a2.16,2.16,0,0,0-.3-1.3,1.1,1.1,0,0,0-.93-0.39,1.43,1.43,0,0,0-.89.27,3.24,3.24,0,0,0-.57.52v5.5h-1.2v-7.13h1.1v0.8h0a1.48,1.48,0,0,1,.19-0.26,1.88,1.88,0,0,1,.39-0.33,2.82,2.82,0,0,1,.56-0.27,2.19,2.19,0,0,1,.74-0.12,2.48,2.48,0,0,1,.86.14,1.56,1.56,0,0,1,.65.45,2.22,2.22,0,0,1,.42.81,4.44,4.44,0,0,1,.15,1.23v4.68h-1.2Zm4.21,0h-1.2v-7.13h1.2v7.13Zm-0.6-8.86a0.78,0.78,0,0,1-.59-0.24,0.87,0.87,0,0,1-.22-0.62,0.85,0.85,0,0,1,.22-0.61,0.85,0.85,0,0,1,1.18,0,0.86,0.86,0,0,1,.22.61,0.88,0.88,0,0,1-.22.62A0.77,0.77,0,0,1,323.27,387.7Zm5.51,3.16a2.82,2.82,0,0,0-.43-0.36,1.35,1.35,0,0,0-.82-0.23,1.07,1.07,0,0,0-.73.22,0.69,0.69,0,0,0-.25.53,1,1,0,0,0,.23.66,3.27,3.27,0,0,0,.71.56l0.45,0.27a4.38,4.38,0,0,1,1.14.93,2.1,2.1,0,0,1-.17,2.71,2.3,2.3,0,0,1-1.69.58,2.86,2.86,0,0,1-.76-0.09,3.19,3.19,0,0,1-.57-0.21,1.91,1.91,0,0,1-.41-0.26,2.9,2.9,0,0,1-.27-0.26l0.58-1,0.21,0.21a1.89,1.89,0,0,0,.31.23,1.82,1.82,0,0,0,.4.19,1.65,1.65,0,0,0,.52.07,1.24,1.24,0,0,0,.82-0.24,0.73,0.73,0,0,0,.28-0.58,1.24,1.24,0,0,0-.07-0.44,1,1,0,0,0-.2-0.33,1.93,1.93,0,0,0-.33-0.28l-0.44-.3-0.45-.28a4.31,4.31,0,0,1-1-.91,1.89,1.89,0,0,1-.38-1.22,1.7,1.7,0,0,1,.59-1.32,2.13,2.13,0,0,1,.66-0.39,2.29,2.29,0,0,1,.81-0.14,2.72,2.72,0,0,1,.71.08,2.15,2.15,0,0,1,.51.21,2.11,2.11,0,0,1,.35.25L329.3,390Zm5.17-.46h-1.56v4a1.93,1.93,0,0,0,.19,1,0.74,0.74,0,0,0,.65.28,1.28,1.28,0,0,0,.46-0.07,1.58,1.58,0,0,0,.28-0.13l0.16,1a2,2,0,0,1-.36.19,1.91,1.91,0,0,1-.76.13,1.77,1.77,0,0,1-1.38-.51,2.52,2.52,0,0,1-.46-1.7V390.4h-0.86v-0.8l0.86-.18,0.13-2h1.07v2h1.71Zm5.84,1.43c0,0.31,0,.57,0,0.8s0,0.42-.06.59h-3.64a3.17,3.17,0,0,0,.54,1.86,1.69,1.69,0,0,0,1.39.6,2,2,0,0,0,.57-0.07,2.17,2.17,0,0,0,.44-0.18,1.92,1.92,0,0,0,.31-0.21l0.19-.16,0.44,0.85-0.22.22a2,2,0,0,1-.4.28,2.86,2.86,0,0,1-.62.25,3.31,3.31,0,0,1-.88.1,3.15,3.15,0,0,1-1.21-.22,2.3,2.3,0,0,1-.92-0.69,3.35,3.35,0,0,1-.59-1.19,6.3,6.3,0,0,1-.21-1.73,5.56,5.56,0,0,1,.21-1.64,3.31,3.31,0,0,1,.59-1.14,2.32,2.32,0,0,1,.86-0.66,2.59,2.59,0,0,1,1.06-.22,2.05,2.05,0,0,1,1.61.65A2.83,2.83,0,0,1,339.79,391.83Zm-2.26-1.61a1.2,1.2,0,0,0-1,.54,2.91,2.91,0,0,0-.45,1.54h2.6a1.55,1.55,0,0,0,0-.21c0-.09,0-0.2,0-0.31a1.92,1.92,0,0,0-.3-1.15A1,1,0,0,0,337.53,390.22Zm7,0.25-0.19-.07a1.45,1.45,0,0,0-.4,0,1.24,1.24,0,0,0-.88.3,1.78,1.78,0,0,0-.45.66v5.23h-1.2v-7.13h1.1v1h0a2.48,2.48,0,0,1,.2-0.41,1.46,1.46,0,0,1,.3-0.36,1.38,1.38,0,0,1,.42-0.24,1.73,1.73,0,0,1,.59-0.09,1.46,1.46,0,0,1,.41,0l0.24,0.07Zm2.39,6.08h-1.2v-7.13h1.2v7.13Zm-0.59-8.86a0.78,0.78,0,0,1-.6-0.24,0.87,0.87,0,0,1-.22-0.62,0.86,0.86,0,0,1,.22-0.61,0.78,0.78,0,0,1,.6-0.24,0.76,0.76,0,0,1,.58.24,0.85,0.85,0,0,1,.22.61,0.87,0.87,0,0,1-.22.62A0.76,0.76,0,0,1,346.33,387.7Zm7.43,8.86h-1.1v-0.8h0a1.53,1.53,0,0,1-.19.26,2,2,0,0,1-.38.33,2.57,2.57,0,0,1-.56.27,2.12,2.12,0,0,1-.73.12,2.46,2.46,0,0,1-.86-0.14,1.56,1.56,0,0,1-.65-0.45,2.17,2.17,0,0,1-.41-0.81,4.68,4.68,0,0,1-.14-1.23v-4.68h1.2V394a2.14,2.14,0,0,0,.29,1.27,1.06,1.06,0,0,0,.9.38,1.43,1.43,0,0,0,.88-0.26,3,3,0,0,0,.57-0.51v-5.47h1.2v7.13Zm5.59,0V392a2.38,2.38,0,0,0-.25-1.26,0.9,0.9,0,0,0-.82-0.39,1.74,1.74,0,0,0-.53.07,1.87,1.87,0,0,0-.41.19,1.64,1.64,0,0,0-.31.25l-0.22.24v5.5H355.6v-7.13h1.1v0.8h0a2.56,2.56,0,0,1,.22-0.29,2.1,2.1,0,0,1,.37-0.33,2.17,2.17,0,0,1,.52-0.26,2,2,0,0,1,.67-0.1,1.79,1.79,0,0,1,1.72,1,2.17,2.17,0,0,1,.28-0.32,2.29,2.29,0,0,1,.41-0.31,2.45,2.45,0,0,1,.54-0.23,2.22,2.22,0,0,1,.66-0.09q2.17,0,2.17,2.52v4.79h-1.2V392a2,2,0,0,0-.31-1.26,1.11,1.11,0,0,0-.92-0.39,1.38,1.38,0,0,0-.84.25,3.11,3.11,0,0,0-.53.47c0,0.11,0,.23,0,0.35s0,0.26,0,.39v4.79h-1.2Zm-93.59,8.83h-1.46v6.15h-1.2v-6.15h-0.86v-0.8l0.86-.16V403a2.7,2.7,0,0,1,.16-1,2,2,0,0,1,.43-0.68,1.57,1.57,0,0,1,.62-0.39,2.37,2.37,0,0,1,.76-0.12,1.8,1.8,0,0,1,.65.1,2.19,2.19,0,0,1,.36.16l-0.25,1-0.25-.13a1.09,1.09,0,0,0-.4-0.07,0.81,0.81,0,0,0-.65.27,1.59,1.59,0,0,0-.22,1v1.28h1.6Zm6.18,6.15h-1.1v-0.8h0a1.62,1.62,0,0,1-.19.26,2,2,0,0,1-.38.33,2.53,2.53,0,0,1-.56.27,2.1,2.1,0,0,1-.73.12,2.4,2.4,0,0,1-.85-0.14,1.54,1.54,0,0,1-.65-0.45,2.1,2.1,0,0,1-.41-0.81,4.61,4.61,0,0,1-.14-1.23v-4.68h1.2V409a2.13,2.13,0,0,0,.29,1.27,1.06,1.06,0,0,0,.9.38,1.45,1.45,0,0,0,.88-0.26,3,3,0,0,0,.57-0.51v-5.47h1.2v7.13Zm-3-9.18a0.74,0.74,0,0,1-.21.55,0.72,0.72,0,0,1-1,0,0.83,0.83,0,0,1,0-1.1,0.72,0.72,0,0,1,1,0A0.74,0.74,0,0,1,269,402.35Zm2.29,0a0.75,0.75,0,0,1-.21.55,0.72,0.72,0,0,1-1,0,0.83,0.83,0,0,1,0-1.1,0.72,0.72,0,0,1,1,0A0.75,0.75,0,0,1,271.26,402.35Zm5.65,3.11-0.19-.08a1.49,1.49,0,0,0-.4,0,1.23,1.23,0,0,0-.88.3,1.77,1.77,0,0,0-.45.66v5.23h-1.2v-7.13h1.1v1h0a2.24,2.24,0,0,1,.19-0.41,1.45,1.45,0,0,1,.3-0.36,1.32,1.32,0,0,1,.42-0.25,1.73,1.73,0,0,1,.59-0.09,1.55,1.55,0,0,1,.41,0l0.25,0.07Zm9.63-1.56a3,3,0,0,1-.13.94,2.24,2.24,0,0,1-.36.69,1.89,1.89,0,0,1-.53.47,2.56,2.56,0,0,1-.63.27v0a2.24,2.24,0,0,1,.75.28,2.35,2.35,0,0,1,.61.52,2.43,2.43,0,0,1,.42.74,2.66,2.66,0,0,1,.16.93,2.91,2.91,0,0,1-.21,1.11,2.28,2.28,0,0,1-.65.88,3.13,3.13,0,0,1-1.11.58,5.4,5.4,0,0,1-1.59.21h-2.09V401.28h2a5.69,5.69,0,0,1,1.55.18,3,3,0,0,1,1.06.53,2,2,0,0,1,.6.83A3,3,0,0,1,286.54,403.9Zm-1.31,0a1.52,1.52,0,0,0-.5-1.17,2.3,2.3,0,0,0-1.59-.46h-0.68v3.54h0.67a2.22,2.22,0,0,0,1.57-.51A1.83,1.83,0,0,0,285.23,403.94Zm0.19,4.73a1.67,1.67,0,0,0-.54-1.32,2.26,2.26,0,0,0-1.55-.48h-0.88v3.59h0.8a2.47,2.47,0,0,0,1.66-.45A1.7,1.7,0,0,0,285.42,408.67Zm4.18,2.87h-1.2v-7.13h1.2v7.13ZM289,402.68a0.78,0.78,0,0,1-.59-0.24,0.88,0.88,0,0,1-.22-0.63,0.86,0.86,0,0,1,.22-0.61A0.78,0.78,0,0,1,289,401a0.76,0.76,0,0,1,.58.24,0.86,0.86,0,0,1,.22.61,0.88,0.88,0,0,1-.22.63A0.76,0.76,0,0,1,289,402.68Zm3.63,7.19a1.14,1.14,0,0,0,.13.63,0.5,0.5,0,0,0,.44.18,1.1,1.1,0,0,0,.27,0l0.17-.06,0.11,0.89-0.33.12a2.2,2.2,0,0,1-.64.07,1.33,1.33,0,0,1-1-.37,1.85,1.85,0,0,1-.37-1.32V401l1.2-.13v9Zm1.87-1.8a5,5,0,0,1,.28-1.81,3.32,3.32,0,0,1,.73-1.17,2.52,2.52,0,0,1,1-.63,3.63,3.63,0,0,1,1.13-.19,3,3,0,0,1,.59.05,2,2,0,0,1,.42.13V401l1.2-.13v10.64h-1.1v-0.76h0a1.5,1.5,0,0,1-.16.25,1.75,1.75,0,0,1-.33.31,2,2,0,0,1-.52.27,2.16,2.16,0,0,1-.73.11,2.33,2.33,0,0,1-1-.2,2.08,2.08,0,0,1-.79-0.64,3.32,3.32,0,0,1-.54-1.13A6,6,0,0,1,294.5,408.07Zm2.82,2.57a1.63,1.63,0,0,0,.51-0.07,1.57,1.57,0,0,0,.39-0.19,1.6,1.6,0,0,0,.27-0.23,1.58,1.58,0,0,0,.17-0.21v-4.4a1.86,1.86,0,0,0-.38-0.18,1.69,1.69,0,0,0-.54-0.07,2.12,2.12,0,0,0-.78.14,1.53,1.53,0,0,0-.63.47,2.41,2.41,0,0,0-.42.85,4.46,4.46,0,0,0-.16,1.28,5.17,5.17,0,0,0,.13,1.24,2.3,2.3,0,0,0,.35.8,1.35,1.35,0,0,0,.5.44A1.38,1.38,0,0,0,297.33,410.65Zm9.38,0.89h-1.1v-0.8h0a1.62,1.62,0,0,1-.19.26,2.07,2.07,0,0,1-.38.33,2.54,2.54,0,0,1-.56.27,2.09,2.09,0,0,1-.73.12,2.4,2.4,0,0,1-.85-0.14,1.51,1.51,0,0,1-.65-0.45,2.1,2.1,0,0,1-.41-0.81,4.57,4.57,0,0,1-.14-1.23v-4.68h1.2V409a2.13,2.13,0,0,0,.29,1.27,1.06,1.06,0,0,0,.9.38,1.45,1.45,0,0,0,.88-0.26,3,3,0,0,0,.56-0.51v-5.47h1.2v7.13Zm5.74,0v-4.59a2.13,2.13,0,0,0-.31-1.3,1.09,1.09,0,0,0-.92-0.39,1.43,1.43,0,0,0-.89.27,3.11,3.11,0,0,0-.57.52v5.5h-1.2v-7.13h1.1v0.8h0a1.35,1.35,0,0,1,.19-0.26,1.85,1.85,0,0,1,.39-0.33,2.63,2.63,0,0,1,.56-0.27,2.16,2.16,0,0,1,.74-0.12,2.51,2.51,0,0,1,.86.14,1.54,1.54,0,0,1,.65.45,2.14,2.14,0,0,1,.42.81,4.37,4.37,0,0,1,.15,1.23v4.68h-1.2Zm8.11-6.2h-0.89a2.41,2.41,0,0,1,.34,1.28,2.65,2.65,0,0,1-.19,1,2.13,2.13,0,0,1-.52.77,2.29,2.29,0,0,1-.79.48,2.85,2.85,0,0,1-1,.16h-0.2l-0.19,0a1.54,1.54,0,0,0-.37.24,0.54,0.54,0,0,0-.19.43,0.46,0.46,0,0,0,.17.36,0.9,0.9,0,0,0,.56.14h0.91a4.07,4.07,0,0,1,.94.1,2.13,2.13,0,0,1,.75.33,1.59,1.59,0,0,1,.5.59,1.93,1.93,0,0,1,.18.86,2.28,2.28,0,0,1-.25,1.06,2.42,2.42,0,0,1-.69.82,3.35,3.35,0,0,1-1.08.54,5,5,0,0,1-1.43.19,2.64,2.64,0,0,1-1.74-.5,1.77,1.77,0,0,1-.59-1.43,1.59,1.59,0,0,1,.14-0.69,2.17,2.17,0,0,1,.34-0.5,1.85,1.85,0,0,1,.39-0.34L316,411v0a1.16,1.16,0,0,1-.46-1,1,1,0,0,1,.11-0.49,1.36,1.36,0,0,1,.25-0.34,1.55,1.55,0,0,1,.28-0.21l0.22-.11v0a2,2,0,0,1-.88-0.8,2.6,2.6,0,0,1-.34-1.39,2.67,2.67,0,0,1,.19-1,2.15,2.15,0,0,1,.52-0.75,2.17,2.17,0,0,1,.77-0.45,2.94,2.94,0,0,1,.94-0.15,2.52,2.52,0,0,1,.95.18h2.17Zm-3.31,6a3,3,0,0,1-.55,0,1.79,1.79,0,0,0-.26.18,1.35,1.35,0,0,0-.23.25,1.41,1.41,0,0,0-.17.35,1.48,1.48,0,0,0-.07.47,1.07,1.07,0,0,0,1.26,1.14,2.52,2.52,0,0,0,1.6-.42,1.24,1.24,0,0,0,.52-1,0.81,0.81,0,0,0-.33-0.74,1.57,1.57,0,0,0-.88-0.22h-0.91Zm1.59-4.69a1.42,1.42,0,0,0-.36-1.1,1.24,1.24,0,0,0-.85-0.33,1.3,1.3,0,0,0-.89.33,1.81,1.81,0,0,0,0,2.2,1.33,1.33,0,0,0,1.75,0A1.42,1.42,0,0,0,318.83,406.62Zm-51.08,19.9h-1.1v-0.8h0a1.5,1.5,0,0,1-.19.26,1.89,1.89,0,0,1-.38.33,2.49,2.49,0,0,1-.56.28,2.1,2.1,0,0,1-.73.12,2.4,2.4,0,0,1-.86-0.14,1.55,1.55,0,0,1-.64-0.45,2.1,2.1,0,0,1-.41-0.81,4.51,4.51,0,0,1-.14-1.23v-4.68h1.2V424a2.13,2.13,0,0,0,.29,1.27,1.06,1.06,0,0,0,.9.38,1.44,1.44,0,0,0,.88-0.26,3,3,0,0,0,.56-0.51v-5.47h1.2v7.13Zm5.74,0v-4.59a2.16,2.16,0,0,0-.31-1.3,1.1,1.1,0,0,0-.93-0.39,1.44,1.44,0,0,0-.89.27,3.26,3.26,0,0,0-.56.52v5.5h-1.2v-7.13h1.1v0.8h0a1.37,1.37,0,0,1,.19-0.26,1.82,1.82,0,0,1,.39-0.33,2.7,2.7,0,0,1,.57-0.27,2.13,2.13,0,0,1,.74-0.12,2.54,2.54,0,0,1,.86.14,1.56,1.56,0,0,1,.65.45,2.18,2.18,0,0,1,.42.81,4.31,4.31,0,0,1,.15,1.23v4.68h-1.2Zm2.67-3.46a5,5,0,0,1,.28-1.81,3.31,3.31,0,0,1,.73-1.17,2.52,2.52,0,0,1,1-.63,3.55,3.55,0,0,1,1.13-.19,3,3,0,0,1,.59.05,1.88,1.88,0,0,1,.42.13V416l1.2-.13v10.64h-1.1v-0.76h0a1.61,1.61,0,0,1-.16.25,1.67,1.67,0,0,1-.33.31,2,2,0,0,1-.52.27,2.17,2.17,0,0,1-.73.11,2.33,2.33,0,0,1-1-.2,2.09,2.09,0,0,1-.79-0.64,3.32,3.32,0,0,1-.54-1.13A6,6,0,0,1,276.15,423.06Zm2.82,2.57a1.56,1.56,0,0,0,.51-0.07,1.59,1.59,0,0,0,.39-0.19,1.72,1.72,0,0,0,.45-0.44v-4.4a1.82,1.82,0,0,0-.38-0.18,1.65,1.65,0,0,0-.54-0.07,2.12,2.12,0,0,0-.78.14,1.54,1.54,0,0,0-.63.47,2.45,2.45,0,0,0-.42.85,4.52,4.52,0,0,0-.16,1.28,5.15,5.15,0,0,0,.13,1.24,2.3,2.3,0,0,0,.35.8A1.31,1.31,0,0,0,279,425.63Zm7.79,0.89V416.27h5l-0.09,1h-3.66v3.79h3.37v1h-3.37v4.41h-1.29ZM292.7,423a5.52,5.52,0,0,1,.23-1.69,3.26,3.26,0,0,1,.62-1.16,2.42,2.42,0,0,1,.91-0.67,2.88,2.88,0,0,1,2.19,0,2.26,2.26,0,0,1,.88.67,3.3,3.3,0,0,1,.59,1.16,5.91,5.91,0,0,1,.21,1.69,5.74,5.74,0,0,1-.22,1.71,3.24,3.24,0,0,1-.62,1.17,2.38,2.38,0,0,1-.91.66,3,3,0,0,1-1.1.21,2.9,2.9,0,0,1-1.1-.21,2.23,2.23,0,0,1-.88-0.66,3.4,3.4,0,0,1-.59-1.16A6,6,0,0,1,292.7,423Zm4.38,0a4,4,0,0,0-.42-2.07,1.36,1.36,0,0,0-2.31,0A4,4,0,0,0,294,423a3.81,3.81,0,0,0,.42,2,1.32,1.32,0,0,0,1.16.62,1.3,1.3,0,0,0,1.15-.62A3.86,3.86,0,0,0,297.09,423Zm5.9-2.51-0.19-.08a1.52,1.52,0,0,0-.4,0,1.23,1.23,0,0,0-.88.3,1.78,1.78,0,0,0-.45.66v5.23h-1.2v-7.13H301v1h0a2.24,2.24,0,0,1,.19-0.41,1.46,1.46,0,0,1,.3-0.36,1.35,1.35,0,0,1,.42-0.25,1.75,1.75,0,0,1,.59-0.09,1.54,1.54,0,0,1,.41,0l0.24,0.07Zm4.21,0.39a3.08,3.08,0,0,0-.43-0.36,1.34,1.34,0,0,0-.82-0.23,1.07,1.07,0,0,0-.73.22,0.69,0.69,0,0,0-.25.53,1,1,0,0,0,.23.66,3.22,3.22,0,0,0,.7.56l0.45,0.27a4.44,4.44,0,0,1,1.15.93,2.1,2.1,0,0,1-.17,2.71,2.3,2.3,0,0,1-1.69.58,2.87,2.87,0,0,1-.76-0.09,3.32,3.32,0,0,1-.57-0.21,1.89,1.89,0,0,1-.41-0.26,2.63,2.63,0,0,1-.27-0.26l0.58-1,0.21,0.21a1.69,1.69,0,0,0,.3.23,1.94,1.94,0,0,0,.4.19,1.61,1.61,0,0,0,.52.07,1.23,1.23,0,0,0,.82-0.24,0.72,0.72,0,0,0,.28-0.58,1.32,1.32,0,0,0-.07-0.44,1,1,0,0,0-.2-0.33,1.79,1.79,0,0,0-.33-0.28l-0.45-.3-0.45-.28a4.37,4.37,0,0,1-1-.91,1.89,1.89,0,0,1-.38-1.22,1.72,1.72,0,0,1,.16-0.74,1.75,1.75,0,0,1,.44-0.58,2.14,2.14,0,0,1,.66-0.39,2.34,2.34,0,0,1,.81-0.14,2.7,2.7,0,0,1,.71.08,2.09,2.09,0,0,1,.51.21,2.33,2.33,0,0,1,.36.25l0.23,0.21Zm6.09-.06-0.14-.14a1.49,1.49,0,0,0-.25-0.18,1.73,1.73,0,0,0-.36-0.16,1.56,1.56,0,0,0-.47-0.07,1.83,1.83,0,0,0-.72.14,1.45,1.45,0,0,0-.58.45,2.34,2.34,0,0,0-.39.81,4.52,4.52,0,0,0-.14,1.21,5.79,5.79,0,0,0,.13,1.32,2.5,2.5,0,0,0,.35.86,1.31,1.31,0,0,0,.54.46,1.75,1.75,0,0,0,.71.14,1.51,1.51,0,0,0,.84-0.19,2.81,2.81,0,0,0,.41-0.31L313.7,426a2.09,2.09,0,0,1-.21.21,1.77,1.77,0,0,1-.36.24,2.4,2.4,0,0,1-.54.2,3,3,0,0,1-.74.08,3.14,3.14,0,0,1-1.11-.19,2.19,2.19,0,0,1-.91-0.64,3.21,3.21,0,0,1-.61-1.16,6,6,0,0,1-.23-1.77,5,5,0,0,1,.27-1.74A3.28,3.28,0,0,1,310,420a2.7,2.7,0,0,1,1-.64,3.07,3.07,0,0,1,1.77-.13,2.38,2.38,0,0,1,.52.19,1.67,1.67,0,0,1,.36.24l0.23,0.22Zm5.66,5.75v-4.59a2.17,2.17,0,0,0-.3-1.3,1.11,1.11,0,0,0-.93-0.39,1.45,1.45,0,0,0-.89.27,3.37,3.37,0,0,0-.56.52v5.5h-1.2V416l1.2-.13v4.23h0l0.19-.24a1.64,1.64,0,0,1,.35-0.3,2.51,2.51,0,0,1,.54-0.26,2.28,2.28,0,0,1,.75-0.11,1.9,1.9,0,0,1,1.48.61,3,3,0,0,1,.55,2v4.68h-1.2Zm8,0h-1.1v-0.8h0a1.42,1.42,0,0,1-.19.26,1.8,1.8,0,0,1-.38.33,2.43,2.43,0,0,1-.56.28,2.09,2.09,0,0,1-.73.12,2.41,2.41,0,0,1-.86-0.14,1.56,1.56,0,0,1-.65-0.45,2.15,2.15,0,0,1-.41-0.81,4.53,4.53,0,0,1-.14-1.23v-4.68h1.2V424a2.13,2.13,0,0,0,.29,1.27,1.07,1.07,0,0,0,.9.38,1.44,1.44,0,0,0,.88-0.26,3,3,0,0,0,.56-0.51v-5.47h1.21v7.13Zm5.74,0v-4.59a2.17,2.17,0,0,0-.3-1.3,1.1,1.1,0,0,0-.93-0.39,1.44,1.44,0,0,0-.89.27,3.31,3.31,0,0,0-.57.52v5.5h-1.2v-7.13h1.1v0.8h0a1.24,1.24,0,0,1,.19-0.26,1.76,1.76,0,0,1,.39-0.33,2.71,2.71,0,0,1,.56-0.27,2.14,2.14,0,0,1,.74-0.12,2.54,2.54,0,0,1,.86.14,1.58,1.58,0,0,1,.65.45,2.24,2.24,0,0,1,.42.81,4.36,4.36,0,0,1,.15,1.23v4.68h-1.2Zm8.11-6.2h-0.89a2.41,2.41,0,0,1,.34,1.28,2.66,2.66,0,0,1-.18,1,2.15,2.15,0,0,1-.52.76,2.25,2.25,0,0,1-.79.48,2.83,2.83,0,0,1-1,.17h-0.19l-0.19,0a1.47,1.47,0,0,0-.37.24,0.53,0.53,0,0,0-.19.43,0.46,0.46,0,0,0,.17.37,0.9,0.9,0,0,0,.56.14h0.91a3.88,3.88,0,0,1,.94.11,2.06,2.06,0,0,1,.75.33,1.59,1.59,0,0,1,.5.59,1.92,1.92,0,0,1,.18.86,2.29,2.29,0,0,1-.25,1.06,2.47,2.47,0,0,1-.69.82,3.4,3.4,0,0,1-1.08.53,5,5,0,0,1-1.42.19,2.65,2.65,0,0,1-1.74-.5,1.76,1.76,0,0,1-.59-1.43,1.57,1.57,0,0,1,.14-0.69,2.16,2.16,0,0,1,.33-0.51,1.89,1.89,0,0,1,.39-0.34l0.32-.2v0a1.16,1.16,0,0,1-.46-1,1,1,0,0,1,.11-0.49,1.35,1.35,0,0,1,.25-0.34,1.49,1.49,0,0,1,.28-0.22l0.21-.11v0a2,2,0,0,1-.88-0.79,3,3,0,0,1-.14-2.44,2.09,2.09,0,0,1,.52-0.75,2.18,2.18,0,0,1,.77-0.45,2.94,2.94,0,0,1,.94-0.15,2.54,2.54,0,0,1,1,.18H341Zm-3.31,6a3,3,0,0,1-.55,0,1.45,1.45,0,0,0-.26.18,1.31,1.31,0,0,0-.23.25,1.33,1.33,0,0,0-.17.35,1.48,1.48,0,0,0-.07.47,1.07,1.07,0,0,0,1.26,1.15,2.52,2.52,0,0,0,1.61-.42,1.24,1.24,0,0,0,.52-1,0.81,0.81,0,0,0-.33-0.74,1.57,1.57,0,0,0-.88-0.22h-0.91Zm1.59-4.69a1.42,1.42,0,0,0-.36-1.1,1.23,1.23,0,0,0-.86-0.33,1.3,1.3,0,0,0-.89.33,1.81,1.81,0,0,0,0,2.2,1.25,1.25,0,0,0,.86.33,1.27,1.27,0,0,0,.89-0.33A1.41,1.41,0,0,0,339.06,421.6Z" transform="translate(-190.83 -340.64)"/><polygon class="cls-3" points="61.01 95.87 62.88 95.87 62.88 120.84 58.52 120.84 58.52 95.87 61.01 95.87"/><polygon class="cls-4" points="61.01 70.78 62.88 70.78 62.88 95.87 58.52 95.87 58.52 70.78 61.01 70.78"/><path class="cls-2" d="M238,395.29c1.28,2,2.28,2,3.79,2a10.76,10.76,0,0,1-2.47-2.81L237,390.73a5.54,5.54,0,0,0-1.72-3,3.11,3.11,0,0,0,.7-0.35c-1.52,0-3-.77-3.87-0.77a0.78,0.78,0,0,0-.88.74,1.24,1.24,0,0,0,1.41.95,4.83,4.83,0,0,0,.75-0.07,3.55,3.55,0,0,1,.88,2.16c0,1.63-2,2.91-3.93,2.91H230a4.41,4.41,0,0,1-.77-1.86c0-1.3.85-2.36,0.85-3.65a2.41,2.41,0,0,0-.54-1.5,2.31,2.31,0,0,0,.57-0.69,1.43,1.43,0,0,1-.55.07c-0.95,0-1.72-.25-2.47-0.25-0.43,0-.54.13-0.54,0.26a0.27,0.27,0,0,0,0,.12,2.61,2.61,0,0,0-.49-0.14,3.88,3.88,0,0,0-.71-0.06c-0.91,0-1.24.38-1.24,0.71a2.8,2.8,0,0,0,.47,1.17,2.78,2.78,0,0,1,1-.3,1.44,1.44,0,0,1,1.15,1,4.49,4.49,0,0,1-.72.05,5.46,5.46,0,0,1-1.62-.32,0,0,0,0,0,0,0,1.1,1.1,0,0,0,.75.64,9.71,9.71,0,0,0,1.8.37,0.78,0.78,0,0,1-.35.4,0.2,0.2,0,0,1-.12,0,8.23,8.23,0,0,1-1.74-.52,0,0,0,0,0,0,0,2.9,2.9,0,0,0,1.69,1.39,8.92,8.92,0,0,0-1.89,3h-0.33c-2,0-3.93-1.28-3.93-2.91a3.55,3.55,0,0,1,.88-2.16,4.82,4.82,0,0,0,.75.07,1.24,1.24,0,0,0,1.42-.95,0.78,0.78,0,0,0-.88-0.74c-0.83,0-2.34.77-3.87,0.77a3.1,3.1,0,0,0,.7.35,5.54,5.54,0,0,0-1.72,3l-2.33,3.74a10.77,10.77,0,0,1-2.47,2.81c1.51,0,2.51,0,3.79-2l1.2-1.92a5.2,5.2,0,0,0,.33.73l-2.38,3.81a10.75,10.75,0,0,1-2.47,2.81c1.51,0,2.51,0,3.79-2l2-3.28c0.15,0.16.31,0.32,0.49,0.48l-2.89,4.63a10.71,10.71,0,0,1-2.47,2.81c1.51,0,2.51,0,3.79-2l2.82-4.51,0.57,0.34-3.44,5.51a10.78,10.78,0,0,1-2.47,2.81c1.51,0,2.51,0,3.79-2l3.54-5.67,0.64,0.23-4,6.41a10.82,10.82,0,0,1-2.47,2.81c1.51,0,2.51,0,3.79-2l4.27-6.83,0.13,0a3.53,3.53,0,0,1,.2,1.06c0,2.15-1.41,4-3.1,5.51a1.32,1.32,0,0,0,.47.06,4.32,4.32,0,0,0,.73,0,17.57,17.57,0,0,1-1.66,2.63,12.37,12.37,0,0,0-1.89-.18,0.53,0.53,0,0,0-.61.61,1.45,1.45,0,0,0,.51,1.12c0.1-.26.31-0.6,1.33-0.6h0.1c-0.3.33-1.23,1.08-1.23,1.69a1.11,1.11,0,0,0,1,1,1.21,1.21,0,0,1,0-.34,2.61,2.61,0,0,1,.8-1.47,1.91,1.91,0,0,0,0,.25c0,1.16.11,1.7,0.84,1.7a1.17,1.17,0,0,0,.7-0.26,1.58,1.58,0,0,1-.5-1.44c0-.17,0-0.33,0-0.56a3.12,3.12,0,0,0,0-.49,3.4,3.4,0,0,1,.57,0,1.5,1.5,0,0,1,1.3.46,1.69,1.69,0,0,0,.7-1,0.56,0.56,0,0,0-.67-0.57c-0.2,0-.85.13-1.39,0.13a13.38,13.38,0,0,1,1.35-1.95,1.55,1.55,0,0,0,.51.79,5.54,5.54,0,0,1,1-2.64,12.8,12.8,0,0,1,.19,2.3c0,2.89-.7,5-2.17,5.43a1.26,1.26,0,0,0,1,.63,1.66,1.66,0,0,0,1.13-1.18c0.16,0.42.59,1.46,1,1.46s0.86-1,1-1.46a1.66,1.66,0,0,0,1.13,1.18,1.26,1.26,0,0,0,1-.63c-1.47-.41-2.17-2.54-2.17-5.43a13,13,0,0,1,.19-2.3,5.51,5.51,0,0,1,1,2.64,1.57,1.57,0,0,0,.51-0.79,13.61,13.61,0,0,1,1.35,1.95c-0.54,0-1.18-.13-1.39-0.13a0.56,0.56,0,0,0-.67.57,1.7,1.7,0,0,0,.7,1,1.5,1.5,0,0,1,1.3-.46,3.4,3.4,0,0,1,.57,0,3.18,3.18,0,0,0,0,.49c0,0.23,0,.4,0,0.56a1.58,1.58,0,0,1-.5,1.44,1.18,1.18,0,0,0,.7.26c0.74,0,.84-0.53.84-1.7a2,2,0,0,0,0-.25,2.61,2.61,0,0,1,.8,1.47,1.18,1.18,0,0,1,0,.34,1.11,1.11,0,0,0,1-1c0-.61-0.93-1.36-1.23-1.69h0.1c1,0,1.22.34,1.33,0.6a1.45,1.45,0,0,0,.51-1.12,0.53,0.53,0,0,0-.61-0.61,12.4,12.4,0,0,0-1.89.18,17.57,17.57,0,0,1-1.66-2.63,4.32,4.32,0,0,0,.73,0,1.33,1.33,0,0,0,.47-0.06c-1.69-1.46-3.1-3.36-3.1-5.51a3.57,3.57,0,0,1,.2-1.06l0.13,0,4.27,6.83c1.28,2,2.28,2,3.79,2a10.78,10.78,0,0,1-2.47-2.81l-4-6.41,0.64-.23,3.54,5.67c1.28,2,2.28,2,3.79,2a10.75,10.75,0,0,1-2.47-2.81l-3.44-5.51,0.57-.34,2.82,4.51c1.28,2,2.28,2,3.79,2a10.75,10.75,0,0,1-2.47-2.81L235,395.94c0.17-.15.33-0.31,0.48-0.48l2,3.28c1.28,2,2.28,2,3.79,2a10.75,10.75,0,0,1-2.47-2.81l-2.38-3.81a5.19,5.19,0,0,0,.33-0.73Zm-19.11-4.39a4.17,4.17,0,0,1,1.4-2.87l0.26,0.06a3.72,3.72,0,0,0-1.07,2.31c0,2.08,2.23,3.89,4.74,3.89,0,0.18,0,.37,0,0.56a7.38,7.38,0,0,0,0,.86C221.37,395.71,218.86,393.4,218.86,390.91ZM222.72,408l0,0h0a8.69,8.69,0,0,0,1.45-.1l0.34,0c0.21,0,.37,0,0.37.27a1,1,0,0,1-.39.6,1.78,1.78,0,0,0-1.3-.33,6.73,6.73,0,0,0-.84.08H222.3v0.09a4.32,4.32,0,0,1,.05.65v0.57a2,2,0,0,0,.33,1.36,0.74,0.74,0,0,1-.23,0c-0.42,0-.54-0.18-0.54-1.4,0-.24,0-0.47,0-0.63V409l-0.05,0a3.32,3.32,0,0,0-1.31,2,0.88,0.88,0,0,1-.39-0.61,3.43,3.43,0,0,1,1.13-1.48l0.35-.35,0,0-0.11,0a2.5,2.5,0,0,0-.58-0.1,1.76,1.76,0,0,0-1.37.41,1.43,1.43,0,0,1-.17-0.64,0.37,0.37,0,0,1,.07-0.26,0.33,0.33,0,0,1,.23-0.06h0a14,14,0,0,1,2,.19h0v0a17.67,17.67,0,0,0,1.86-3,0.76,0.76,0,0,1,.31-0.06,0.47,0.47,0,0,1,.44.48A9.71,9.71,0,0,0,222.72,408Zm7.71-3a0.77,0.77,0,0,1,.31.06,17.69,17.69,0,0,0,1.86,3v0h0a14,14,0,0,1,2-.19h0a0.33,0.33,0,0,1,.23.06,0.36,0.36,0,0,1,.07.26,1.43,1.43,0,0,1-.17.64,1.76,1.76,0,0,0-1.37-.41,2.51,2.51,0,0,0-.58.1h-0.05l-0.06,0,0.39,0.39a3.43,3.43,0,0,1,1.13,1.48,0.88,0.88,0,0,1-.39.61,3.33,3.33,0,0,0-1.31-2l-0.05,0v0.22c0,0.15,0,.38,0,0.63,0,1.22-.12,1.4-0.54,1.4a0.74,0.74,0,0,1-.23,0,2,2,0,0,0,.33-1.36v-0.57a4.61,4.61,0,0,1,.05-0.65v-0.09H232a6.73,6.73,0,0,0-.84-0.08,1.79,1.79,0,0,0-1.3.33,1,1,0,0,1-.39-0.6c0-.25.16-0.27,0.36-0.27l0.34,0a8.7,8.7,0,0,0,1.45.1h0v0a9.75,9.75,0,0,0-1.65-2.51A0.48,0.48,0,0,1,230.43,405Zm-3.31-16.61a2.61,2.61,0,0,0-.52-1,1.44,1.44,0,0,0-1.07-.57,2.64,2.64,0,0,0-.84.2,2.22,2.22,0,0,1-.26-0.73c0-.18.31-0.36,0.89-0.36,1.29,0,2.06.58,2.06,1.56A2.31,2.31,0,0,1,227.12,388.38Zm0.58-1.27a1.7,1.7,0,0,0-.31-0.74c0-.25.11-0.49,0.52-0.29a0.64,0.64,0,0,0-.05.62,0.54,0.54,0,0,0,.36-0.5C228.88,386.36,228.4,387.25,227.7,387.11Zm2.51,8.61a7.3,7.3,0,0,0,.05-0.86c0-.16,0-0.35,0-0.56,2.49,0,4.67-1.83,4.67-3.89a3.73,3.73,0,0,0-1.07-2.31l0.26-.06a4.18,4.18,0,0,1,1.4,2.87C235.5,393.38,233,395.68,230.21,395.73Z" transform="translate(-190.83 -340.64)"/><polygon class="cls-2" points="62.88 45.93 62.88 70.9 61.01 70.9 58.52 70.9 58.52 45.93 62.88 45.93"/><path class="cls-2" d="M265.88,356.91a1,1,0,0,0-1.12-1.15,1.14,1.14,0,0,0-1.16,1.37v2.14c0,1.38.4,1.73,1.16,1.73a2,2,0,0,0,1.13-.28v-1.89h-1.16v-0.7h2v3.07a3.89,3.89,0,0,1-1.93.47c-1.34,0-2-.69-2-2.44v-2.07a1.83,1.83,0,0,1,2-2.07c1.37,0,2,.5,2,1.82h-0.84Z" transform="translate(-190.83 -340.64)"/><path class="cls-2" d="M268.2,361.54v-6.32h3.25v0.7H269v2h2.28v0.7H269v2.19h2.5v0.7H268.2Z" transform="translate(-190.83 -340.64)"/><path class="cls-2" d="M272.51,361.54v-6.32h3.13v0.7h-2.33v2h2.21v0.7h-2.21v2.89h-0.8Z" transform="translate(-190.83 -340.64)"/><path class="cls-2" d="M276.43,359.23v-2.07a2,2,0,1,1,4,0v2.07c0,1.75-.65,2.44-2,2.44S276.43,361,276.43,359.23Zm1.64-4.75h-0.82v-0.91h0.82v0.91Zm1.51,4.79v-2.14a1.18,1.18,0,1,0-2.33,0v2.14c0,1.38.4,1.73,1.16,1.73S279.58,360.64,279.58,359.26Zm0-4.79h-0.82v-0.91h0.82v0.91Z" transform="translate(-190.83 -340.64)"/><path class="cls-2" d="M282.59,358.63v2.91h-0.8v-6.32H284a1.43,1.43,0,0,1,1.51,1.58,1.36,1.36,0,0,1-1.16,1.44v0c0.73,0.11,1,.36,1,1.63a9.52,9.52,0,0,0,.22,1.65h-0.84a7.22,7.22,0,0,1-.24-2.1,0.83,0.83,0,0,0-1-.8h-0.95Zm0-.7h1.21a0.92,0.92,0,0,0,.86-1.05,0.86,0.86,0,0,0-.85-1h-1.22v2Z" transform="translate(-190.83 -340.64)"/><path class="cls-2" d="M286.68,355.22h1.94a1.69,1.69,0,0,1,1.7,1,6.51,6.51,0,0,1,.28,2,5.27,5.27,0,0,1-.39,2.55,2.22,2.22,0,0,1-2.08.81h-1.45v-6.32Zm0.81,5.62h0.76c1.12,0,1.53-.42,1.53-1.89v-1.28c0-1.28-.39-1.75-1.23-1.75h-1.06v4.92Z" transform="translate(-190.83 -340.64)"/><path class="cls-2" d="M292,361.54v-6.32h3.25v0.7h-2.45v2h2.28v0.7h-2.28v2.19h2.5v0.7H292Z" transform="translate(-190.83 -340.64)"/><path class="cls-2" d="M297.18,358.63v2.91h-0.81v-6.32h2.18a1.43,1.43,0,0,1,1.51,1.58,1.36,1.36,0,0,1-1.15,1.44v0c0.72,0.11,1,.36,1,1.63a9.63,9.63,0,0,0,.22,1.65h-0.84a7.21,7.21,0,0,1-.25-2.1,0.83,0.83,0,0,0-1-.8h-0.94Zm0-.7h1.21a0.92,0.92,0,0,0,.86-1.05,0.86,0.86,0,0,0-.85-1h-1.21v2Z" transform="translate(-190.83 -340.64)"/><path class="cls-2" d="M304.8,355.22v0.7h-1.66v5.62h-0.8v-5.62h-1.66v-0.7h4.13Z" transform="translate(-190.83 -340.64)"/><path class="cls-2" d="M309.77,361.54h-1L307,355.22h0.87l1.45,5.56h0l1.48-5.56h0.82Z" transform="translate(-190.83 -340.64)"/><path class="cls-2" d="M312.41,359.23v-2.07a2,2,0,1,1,4,0v2.07c0,1.75-.65,2.44-2,2.44S312.41,361,312.41,359.23Zm3.15,0v-2.14a1.18,1.18,0,1,0-2.33,0v2.14c0,1.38.4,1.73,1.16,1.73S315.56,360.64,315.56,359.26Z" transform="translate(-190.83 -340.64)"/><path class="cls-2" d="M318.54,361.54h-0.75v-6.32h1.3l1.59,5.3h0l1.61-5.3h1.33v6.32h-0.8v-5.62h0l-1.77,5.62h-0.76l-1.73-5.62h0v5.62Z" transform="translate(-190.83 -340.64)"/></svg>