<?xml version="1.0" encoding="utf-8"?>
<!-- Generator: Adobe Illustrator 16.0.4, SVG Export Plug-In . SVG Version: 6.00 Build 0)  -->
<!DOCTYPE svg PUBLIC "-//W3C//DTD SVG 1.1//EN" "http://www.w3.org/Graphics/SVG/1.1/DTD/svg11.dtd">
<svg version="1.1" xmlns="http://www.w3.org/2000/svg" xmlns:xlink="http://www.w3.org/1999/xlink" x="0px" y="0px"
	 width="155.905px" height="85.04px" viewBox="0 0 155.905 85.04" enable-background="new 0 0 155.905 85.04" xml:space="preserve">
<g id="Ebene_2">
	<g>
		<path fill="#003C59" d="M29.823,68.071l-3.286-5.021v5.021h-0.416v-5.669h0.472l3.294,5.014v-5.014h0.408v5.669H29.823z"/>
		<path fill="#003C59" d="M35.257,68.095c-0.496,0-0.631-0.36-0.631-0.784c-0.216,0.568-0.824,0.863-1.439,0.863
			c-0.775,0-1.375-0.463-1.375-1.23c0-0.712,0.552-1.136,1.343-1.191l1.471-0.104v-0.392c0-0.664-0.448-0.911-1.056-0.911
			c-0.631,0-1.111,0.287-1.151,0.879H32.02c0.056-0.808,0.688-1.255,1.551-1.255c0.544,0,1.136,0.184,1.352,0.735
			c0.096,0.248,0.104,0.504,0.104,0.768v1.823c0,0.271,0.04,0.432,0.312,0.432c0.048,0,0.072,0,0.112-0.008v0.352
			C35.354,68.086,35.354,68.095,35.257,68.095z M34.626,66.016l-1.431,0.088c-0.592,0.04-0.976,0.352-0.976,0.84
			c0,0.575,0.432,0.863,1,0.863c1.007,0,1.407-0.815,1.407-1.583V66.016z"/>
		<path fill="#003C59" d="M38.045,68.126c-0.744,0-1.031-0.472-1.031-1.167v-2.519h-0.8v-0.368h0.8v-1.104l0.399-0.096v1.199h1.239
			v0.368h-1.239v2.503c0,0.472,0.128,0.807,0.664,0.807c0.216,0,0.416-0.031,0.632-0.071v0.352
			C38.484,68.079,38.269,68.126,38.045,68.126z"/>
		<path fill="#003C59" d="M39.954,62.961v-0.56h0.56v0.56H39.954z M40.025,68.071v-3.998h0.424v3.998H40.025z"/>
		<path fill="#003C59" d="M44.828,67.695c-0.28,0.28-0.671,0.479-1.167,0.479c-0.496,0-0.887-0.199-1.167-0.479
			c-0.416-0.416-0.568-0.943-0.568-1.623s0.152-1.207,0.568-1.623c0.28-0.28,0.671-0.479,1.167-0.479
			c0.496,0,0.888,0.199,1.167,0.479c0.416,0.416,0.568,0.943,0.568,1.623S45.244,67.279,44.828,67.695z M44.54,64.712
			c-0.208-0.216-0.496-0.352-0.88-0.352s-0.671,0.136-0.879,0.352c-0.36,0.376-0.448,0.84-0.448,1.359s0.088,0.983,0.448,1.359
			c0.208,0.216,0.496,0.352,0.879,0.352s0.672-0.136,0.88-0.352c0.359-0.376,0.448-0.84,0.448-1.359S44.899,65.088,44.54,64.712z"/>
		<path fill="#003C59" d="M49.629,68.071v-2.614c0-0.696-0.304-1.096-1.032-1.096c-0.983,0-1.327,0.848-1.327,1.711v1.999h-0.4
			v-3.998h0.352L47.27,64.8c0.224-0.503,0.792-0.831,1.351-0.831c0.919,0,1.407,0.567,1.407,1.463v2.639H49.629z"/>
		<path fill="#003C59" d="M54.878,68.095c-0.496,0-0.631-0.36-0.631-0.784c-0.216,0.568-0.824,0.863-1.439,0.863
			c-0.775,0-1.375-0.463-1.375-1.23c0-0.712,0.552-1.136,1.343-1.191l1.471-0.104v-0.392c0-0.664-0.448-0.911-1.056-0.911
			c-0.631,0-1.111,0.287-1.151,0.879h-0.399c0.056-0.808,0.688-1.255,1.551-1.255c0.544,0,1.136,0.184,1.352,0.735
			c0.096,0.248,0.104,0.504,0.104,0.768v1.823c0,0.271,0.04,0.432,0.312,0.432c0.048,0,0.072,0,0.112-0.008v0.352
			C54.975,68.086,54.975,68.095,54.878,68.095z M54.247,66.016l-1.431,0.088c-0.592,0.04-0.976,0.352-0.976,0.84
			c0,0.575,0.432,0.863,1,0.863c1.007,0,1.407-0.815,1.407-1.583V66.016z"/>
		<path fill="#003C59" d="M57.199,68.119c-0.512,0-0.8-0.264-0.8-0.848v-4.973h0.4v4.957c0,0.271,0.08,0.479,0.416,0.479
			c0.16,0,0.232,0,0.344-0.016v0.352C57.471,68.095,57.367,68.119,57.199,68.119z"/>
		<path fill="#003C59" d="M61.903,66.167h-3.054c0.008,0.464,0.16,0.896,0.416,1.2c0.224,0.264,0.536,0.423,0.968,0.423
			c0.352,0,0.655-0.128,0.871-0.352c0.144-0.151,0.256-0.327,0.304-0.567h0.416c-0.056,0.344-0.224,0.623-0.448,0.84
			c-0.288,0.287-0.688,0.463-1.143,0.463c-0.576,0-0.983-0.239-1.271-0.567c-0.328-0.384-0.512-0.911-0.512-1.519
			c0-0.504,0.08-1,0.392-1.424c0.336-0.456,0.8-0.695,1.359-0.695c1.08,0,1.711,0.928,1.711,1.935
			C61.911,66,61.903,66.072,61.903,66.167z M60.2,64.345c-0.823,0-1.343,0.663-1.343,1.455h2.646
			C61.487,65.041,61.016,64.345,60.2,64.345z"/>
		<path fill="#003C59" d="M65.989,67.695c-0.288,0.32-0.768,0.479-1.295,0.479c-0.543,0-1.007-0.168-1.311-0.512
			c-0.224-0.256-0.32-0.479-0.336-0.807h0.408c0.024,0.239,0.128,0.447,0.296,0.615c0.232,0.224,0.56,0.319,0.943,0.319
			c0.416,0,0.744-0.096,0.944-0.296c0.144-0.144,0.216-0.279,0.216-0.512c0-0.359-0.256-0.663-0.736-0.728l-0.775-0.104
			c-0.328-0.04-0.68-0.144-0.903-0.399c-0.144-0.168-0.224-0.376-0.224-0.632c0-0.32,0.136-0.584,0.344-0.775
			c0.288-0.265,0.68-0.376,1.096-0.376c0.479,0,0.935,0.151,1.207,0.472c0.184,0.216,0.296,0.479,0.304,0.735h-0.4
			c-0.016-0.128-0.072-0.328-0.2-0.479c-0.184-0.216-0.496-0.352-0.911-0.352c-0.312,0-0.544,0.056-0.72,0.184
			c-0.2,0.144-0.312,0.336-0.312,0.552c0,0.336,0.168,0.592,0.776,0.672l0.759,0.104c0.752,0.104,1.104,0.615,1.104,1.104
			C66.261,67.255,66.165,67.495,65.989,67.695z"/>
		<path fill="#003C59" d="M72.42,65.552l1.151,2.519h-0.456l-1.111-2.415H70.03v2.415h-0.416v-5.669h2.071
			c1.239,0,1.911,0.647,1.911,1.631C73.596,64.777,73.132,65.36,72.42,65.552z M71.685,62.793H70.03v2.479h1.655
			c0.935,0,1.479-0.432,1.479-1.239S72.62,62.793,71.685,62.793z"/>
		<path fill="#003C59" d="M78.104,66.167H75.05c0.008,0.464,0.16,0.896,0.416,1.2c0.224,0.264,0.536,0.423,0.968,0.423
			c0.352,0,0.655-0.128,0.872-0.352c0.144-0.151,0.256-0.327,0.304-0.567h0.416c-0.056,0.344-0.224,0.623-0.448,0.84
			c-0.288,0.287-0.688,0.463-1.143,0.463c-0.576,0-0.984-0.239-1.271-0.567c-0.328-0.384-0.512-0.911-0.512-1.519
			c0-0.504,0.08-1,0.392-1.424c0.336-0.456,0.8-0.695,1.359-0.695c1.08,0,1.711,0.928,1.711,1.935
			C78.112,66,78.104,66.072,78.104,66.167z M76.401,64.345c-0.824,0-1.343,0.663-1.343,1.455h2.646
			C77.688,65.041,77.216,64.345,76.401,64.345z"/>
		<path fill="#003C59" d="M80.948,62.61c-0.504,0-0.76,0.264-0.76,0.775v0.688h1.255v0.368h-1.255v3.63h-0.399v-3.63h-0.8v-0.368
			h0.8V63.37c0-0.607,0.375-1.119,1.127-1.119c0.232,0,0.416,0.016,0.608,0.048v0.359C81.364,62.633,81.18,62.61,80.948,62.61z"/>
		<path fill="#003C59" d="M85.7,66.167h-3.054c0.008,0.464,0.16,0.896,0.416,1.2c0.224,0.264,0.536,0.423,0.968,0.423
			c0.352,0,0.655-0.128,0.871-0.352c0.144-0.151,0.256-0.327,0.304-0.567h0.416c-0.056,0.344-0.224,0.623-0.448,0.84
			c-0.288,0.287-0.688,0.463-1.143,0.463c-0.576,0-0.983-0.239-1.271-0.567c-0.328-0.384-0.512-0.911-0.512-1.519
			c0-0.504,0.08-1,0.392-1.424c0.336-0.456,0.8-0.695,1.359-0.695c1.08,0,1.711,0.928,1.711,1.935
			C85.708,66,85.7,66.072,85.7,66.167z M83.997,64.345c-0.823,0-1.343,0.663-1.343,1.455H85.3
			C85.284,65.041,84.812,64.345,83.997,64.345z"/>
		<path fill="#003C59" d="M88.815,64.417c-0.999,0-1.271,0.896-1.271,1.735v1.919h-0.4v-3.998h0.352l0.048,0.808
			c0.176-0.552,0.711-0.848,1.271-0.848c0.128,0,0.264,0,0.392,0.024v0.399C89.08,64.424,88.943,64.417,88.815,64.417z"/>
		<path fill="#003C59" d="M93.515,66.167h-3.054c0.008,0.464,0.16,0.896,0.416,1.2c0.224,0.264,0.536,0.423,0.968,0.423
			c0.352,0,0.655-0.128,0.872-0.352c0.144-0.151,0.256-0.327,0.304-0.567h0.416c-0.056,0.344-0.224,0.623-0.448,0.84
			c-0.288,0.287-0.688,0.463-1.143,0.463c-0.576,0-0.984-0.239-1.271-0.567c-0.328-0.384-0.512-0.911-0.512-1.519
			c0-0.504,0.08-1,0.392-1.424c0.336-0.456,0.8-0.695,1.359-0.695c1.08,0,1.711,0.928,1.711,1.935
			C93.523,66,93.515,66.072,93.515,66.167z M91.812,64.345c-0.824,0-1.343,0.663-1.343,1.455h2.646
			C93.1,65.041,92.627,64.345,91.812,64.345z"/>
		<path fill="#003C59" d="M97.718,68.071v-2.614c0-0.696-0.304-1.096-1.031-1.096c-0.983,0-1.327,0.848-1.327,1.711v1.999h-0.4
			v-3.998h0.352l0.048,0.728c0.224-0.503,0.792-0.831,1.351-0.831c0.919,0,1.407,0.567,1.407,1.463v2.639H97.718z"/>
		<path fill="#003C59" d="M99.491,68.071v-0.447l2.559-3.175h-2.559v-0.376h2.99v0.44l-2.559,3.174h2.583v0.384H99.491z"/>
		<path fill="#003C59" d="M106.713,67.759c-0.264,0.256-0.624,0.415-1.087,0.415c-0.568,0-1.12-0.319-1.335-0.775v2.271h-0.4v-5.598
			h0.352l0.048,0.704c0.216-0.496,0.792-0.808,1.327-0.808c0.456,0,0.8,0.144,1.063,0.376c0.448,0.392,0.656,1.031,0.656,1.719
			C107.337,66.719,107.137,67.359,106.713,67.759z M106.401,64.641c-0.2-0.177-0.456-0.28-0.792-0.28
			c-0.352,0-0.616,0.128-0.816,0.319c-0.359,0.353-0.512,0.84-0.512,1.392c0,0.592,0.136,1.056,0.504,1.399
			c0.2,0.191,0.472,0.312,0.84,0.312c0.375,0,0.647-0.136,0.855-0.352c0.312-0.336,0.448-0.848,0.448-1.359
			C106.929,65.504,106.769,64.968,106.401,64.641z"/>
		<path fill="#003C59" d="M110.475,64.417c-1,0-1.271,0.896-1.271,1.735v1.919h-0.4v-3.998h0.352l0.048,0.808
			c0.176-0.552,0.711-0.848,1.271-0.848c0.128,0,0.264,0,0.392,0.024v0.399C110.738,64.424,110.603,64.417,110.475,64.417z"/>
		<path fill="#003C59" d="M114.626,67.695c-0.28,0.28-0.671,0.479-1.167,0.479c-0.496,0-0.887-0.199-1.167-0.479
			c-0.416-0.416-0.568-0.943-0.568-1.623s0.152-1.207,0.568-1.623c0.28-0.28,0.671-0.479,1.167-0.479
			c0.496,0,0.888,0.199,1.167,0.479c0.416,0.416,0.568,0.943,0.568,1.623S115.042,67.279,114.626,67.695z M114.338,64.712
			c-0.208-0.216-0.496-0.352-0.88-0.352s-0.671,0.136-0.879,0.352c-0.36,0.376-0.448,0.84-0.448,1.359s0.088,0.983,0.448,1.359
			c0.208,0.216,0.496,0.352,0.879,0.352s0.672-0.136,0.88-0.352c0.36-0.376,0.448-0.84,0.448-1.359S114.698,65.088,114.338,64.712z"
			/>
		<path fill="#003C59" d="M116.15,69.726c-0.232,0-0.36-0.024-0.552-0.056v-0.368c0.16,0.023,0.288,0.048,0.52,0.048
			c0.472,0,0.664-0.288,0.664-0.783v-4.494h0.4v4.51C117.182,69.247,116.901,69.726,116.15,69.726z M116.694,62.961v-0.56h0.551
			v0.56H116.694z"/>
		<path fill="#003C59" d="M122.102,66.167h-3.054c0.008,0.464,0.16,0.896,0.416,1.2c0.224,0.264,0.536,0.423,0.968,0.423
			c0.352,0,0.655-0.128,0.871-0.352c0.144-0.151,0.256-0.327,0.304-0.567h0.416c-0.056,0.344-0.224,0.623-0.448,0.84
			c-0.288,0.287-0.688,0.463-1.143,0.463c-0.576,0-0.983-0.239-1.271-0.567c-0.328-0.384-0.512-0.911-0.512-1.519
			c0-0.504,0.08-1,0.392-1.424c0.336-0.456,0.8-0.695,1.359-0.695c1.08,0,1.711,0.928,1.711,1.935
			C122.109,66,122.102,66.072,122.102,66.167z M120.398,64.345c-0.823,0-1.343,0.663-1.343,1.455h2.646
			C121.686,65.041,121.214,64.345,120.398,64.345z"/>
		<path fill="#003C59" d="M126.409,68.071l-1.407-2.135l-1.047,1.144v0.991h-0.408v-5.772h0.408v4.205l2.247-2.431h0.503
			l-1.415,1.543l1.607,2.455H126.409z"/>
		<path fill="#003C59" d="M129.55,68.126c-0.744,0-1.032-0.472-1.032-1.167v-2.519h-0.799v-0.368h0.799v-1.104l0.4-0.096v1.199
			h1.239v0.368h-1.239v2.503c0,0.472,0.128,0.807,0.664,0.807c0.216,0,0.416-0.031,0.632-0.071v0.352
			C129.99,68.079,129.774,68.126,129.55,68.126z"/>
		<path fill="#003C59" d="M22.192,79.071v-5.669h1.047v5.669H22.192z"/>
		<path fill="#003C59" d="M26.93,74.362v4.709h-1.031v-4.709h-1.679v-0.96h4.39v0.96H26.93z"/>
		<path fill="#003C59" d="M28.814,77.056v-0.896h2.743v0.896H28.814z"/>
		<path fill="#003C59" d="M36.556,78.567c-0.432,0.432-1.095,0.607-1.791,0.607c-0.6,0-1.231-0.159-1.695-0.583
			c-0.336-0.304-0.592-0.784-0.592-1.319h1.056c0,0.279,0.128,0.527,0.296,0.695c0.24,0.24,0.624,0.304,0.951,0.304
			c0.392,0,0.768-0.08,0.983-0.304c0.128-0.136,0.224-0.271,0.224-0.544c0-0.415-0.32-0.607-0.672-0.671
			c-0.384-0.072-0.879-0.088-1.255-0.152c-0.784-0.128-1.439-0.64-1.439-1.583c0-0.448,0.2-0.823,0.496-1.119
			c0.376-0.368,1-0.6,1.663-0.6c0.608,0,1.2,0.191,1.583,0.552c0.335,0.319,0.567,0.735,0.575,1.207h-1.055
			c-0.008-0.2-0.112-0.416-0.248-0.56c-0.184-0.192-0.56-0.304-0.863-0.304c-0.32,0-0.688,0.071-0.919,0.312
			c-0.12,0.128-0.192,0.271-0.192,0.479c0,0.368,0.24,0.56,0.576,0.616c0.36,0.056,0.863,0.096,1.231,0.144
			c0.847,0.12,1.559,0.672,1.559,1.639C37.028,77.912,36.836,78.288,36.556,78.567z"/>
		<path fill="#003C59" d="M38.167,74.337v-1.031h1.072v1.031H38.167z M38.199,79.071v-4.158h1.016v4.158H38.199z"/>
		<path fill="#003C59" d="M43.746,78.503c-0.288,0.359-0.792,0.655-1.423,0.655s-1.159-0.304-1.447-0.655
			c-0.312-0.392-0.456-0.912-0.456-1.52s0.144-1.127,0.456-1.52c0.288-0.352,0.815-0.655,1.447-0.655s1.135,0.296,1.423,0.655
			c0.192,0.248,0.304,0.576,0.32,0.904h-0.983c-0.008-0.152-0.056-0.28-0.12-0.384c-0.12-0.185-0.336-0.312-0.64-0.312
			c-0.272,0-0.472,0.112-0.607,0.256c-0.24,0.264-0.28,0.664-0.28,1.056s0.04,0.783,0.28,1.048c0.136,0.144,0.335,0.264,0.607,0.264
			c0.304,0,0.52-0.128,0.64-0.312c0.064-0.104,0.112-0.231,0.12-0.383h0.983C44.049,77.927,43.938,78.255,43.746,78.503z"/>
		<path fill="#003C59" d="M47.779,79.071v-2.566c0-0.479-0.16-0.775-0.688-0.775c-0.6,0-0.855,0.64-0.855,1.151v2.19h-1v-5.772h1
			v2.055c0.24-0.352,0.704-0.544,1.135-0.544c0.888,0,1.407,0.632,1.407,1.487v2.774H47.779z"/>
		<path fill="#003C59" d="M53.74,77.304h-2.783c-0.008,0.319,0.104,0.623,0.304,0.815c0.144,0.136,0.344,0.256,0.615,0.256
			c0.288,0,0.464-0.057,0.608-0.2c0.088-0.088,0.16-0.2,0.2-0.352h0.959c-0.024,0.248-0.192,0.575-0.352,0.768
			c-0.352,0.415-0.872,0.583-1.399,0.583c-0.567,0-0.983-0.199-1.311-0.512c-0.416-0.399-0.64-0.983-0.64-1.663
			c0-0.663,0.2-1.255,0.6-1.663c0.312-0.319,0.76-0.527,1.327-0.527c0.616,0,1.175,0.248,1.519,0.768
			c0.304,0.456,0.376,0.928,0.36,1.447C53.748,77.024,53.74,77.215,53.74,77.304z M52.493,75.848
			c-0.136-0.144-0.344-0.239-0.631-0.239c-0.304,0-0.552,0.128-0.696,0.319c-0.144,0.185-0.208,0.376-0.216,0.648h1.799
			C52.741,76.264,52.653,76.025,52.493,75.848z"/>
		<path fill="#003C59" d="M57.031,75.8c-0.704,0-1.072,0.504-1.072,1.176v2.095h-1.007v-4.158h0.848l0.088,0.624
			c0.192-0.479,0.688-0.68,1.175-0.68c0.104,0,0.208,0.008,0.312,0.024v0.959C57.263,75.817,57.143,75.8,57.031,75.8z"/>
		<path fill="#003C59" d="M60.92,79.071v-2.566c0-0.479-0.16-0.775-0.688-0.775c-0.6,0-0.855,0.64-0.855,1.151v2.19h-1v-5.772h1
			v2.055c0.24-0.352,0.704-0.544,1.135-0.544c0.888,0,1.407,0.632,1.407,1.487v2.774H60.92z"/>
		<path fill="#003C59" d="M66.881,77.304h-2.783c-0.008,0.319,0.104,0.623,0.304,0.815c0.144,0.136,0.344,0.256,0.615,0.256
			c0.288,0,0.464-0.057,0.608-0.2c0.088-0.088,0.16-0.2,0.2-0.352h0.959c-0.024,0.248-0.192,0.575-0.352,0.768
			c-0.352,0.415-0.872,0.583-1.399,0.583c-0.567,0-0.983-0.199-1.311-0.512c-0.416-0.399-0.64-0.983-0.64-1.663
			c0-0.663,0.2-1.255,0.6-1.663c0.312-0.319,0.76-0.527,1.327-0.527c0.616,0,1.175,0.248,1.519,0.768
			c0.304,0.456,0.376,0.928,0.36,1.447C66.889,77.024,66.881,77.215,66.881,77.304z M65.633,75.848
			c-0.136-0.144-0.344-0.239-0.631-0.239c-0.304,0-0.552,0.128-0.696,0.319c-0.144,0.185-0.208,0.376-0.216,0.648h1.799
			C65.881,76.264,65.793,76.025,65.633,75.848z"/>
		<path fill="#003C59" d="M68.06,74.337v-1.031h1.071v1.031H68.06z M68.091,79.071v-4.158h1.016v4.158H68.091z"/>
		<path fill="#003C59" d="M72.118,79.126c-0.839,0-1.255-0.479-1.255-1.279v-2.11h-0.76v-0.824h0.76v-1.055l0.999-0.248v1.303h1.048
			v0.824h-1.048v2.022c0,0.32,0.144,0.456,0.464,0.456c0.208,0,0.376-0.008,0.647-0.04v0.84
			C72.694,79.086,72.414,79.126,72.118,79.126z"/>
		<path fill="#003C59" d="M76.039,74.337v-1.031h1.071v1.031H76.039z M76.071,79.071v-4.158h1.016v4.158H76.071z"/>
		<path fill="#003C59" d="M81.006,79.071V76.52c0-0.487-0.16-0.783-0.688-0.783c-0.352,0-0.583,0.224-0.719,0.527
			c-0.144,0.328-0.136,0.76-0.136,1.111v1.695h-1v-4.158h0.84l0.072,0.536c0.248-0.439,0.744-0.64,1.223-0.64
			c0.888,0,1.407,0.624,1.407,1.487v2.774H81.006z"/>
		<path fill="#003C59" d="M85.223,79.071v-5.669h1.047v5.669H85.223z"/>
		<path fill="#003C59" d="M90.281,79.071V76.52c0-0.487-0.16-0.783-0.688-0.783c-0.352,0-0.583,0.224-0.72,0.527
			c-0.144,0.328-0.136,0.76-0.136,1.111v1.695h-1v-4.158h0.84l0.072,0.536c0.248-0.439,0.744-0.64,1.223-0.64
			c0.888,0,1.407,0.624,1.407,1.487v2.774H90.281z"/>
		<path fill="#003C59" d="M95.439,79.071l-0.064-0.456c-0.248,0.384-0.712,0.552-1.167,0.552c-0.416,0-0.76-0.144-1.016-0.352
			c-0.496-0.408-0.735-1.031-0.735-1.815c0-0.815,0.248-1.446,0.744-1.854c0.256-0.208,0.591-0.336,1.015-0.336
			c0.528,0,0.912,0.176,1.087,0.392v-1.902h1v5.772H95.439z M94.407,75.649c-0.312,0-0.527,0.144-0.671,0.327
			c-0.208,0.272-0.264,0.648-0.264,1.008c0,0.36,0.056,0.743,0.264,1.016c0.144,0.184,0.36,0.328,0.671,0.328
			c0.784,0,0.943-0.744,0.943-1.344S95.191,75.649,94.407,75.649z"/>
		<path fill="#003C59" d="M100.423,79.071l-0.072-0.544c-0.2,0.408-0.664,0.647-1.191,0.647c-0.888,0-1.439-0.6-1.439-1.486v-2.775
			h1v2.551c0,0.488,0.192,0.792,0.72,0.792c0.232,0,0.392-0.088,0.512-0.208c0.24-0.224,0.304-0.6,0.304-0.936v-2.199h1v4.158
			H100.423z"/>
		<path fill="#003C59" d="M105.634,78.695c-0.336,0.336-0.855,0.479-1.423,0.479c-0.528,0-1-0.151-1.343-0.479
			c-0.24-0.231-0.439-0.575-0.439-0.968h0.935c0,0.185,0.096,0.385,0.224,0.488c0.16,0.128,0.344,0.184,0.632,0.184
			c0.335,0,0.847-0.071,0.847-0.527c0-0.24-0.16-0.4-0.416-0.439c-0.368-0.057-0.784-0.08-1.151-0.16
			c-0.568-0.12-0.952-0.584-0.952-1.111c0-0.424,0.176-0.72,0.424-0.936c0.304-0.264,0.744-0.416,1.263-0.416
			c0.496,0,1,0.16,1.303,0.488c0.224,0.239,0.368,0.551,0.368,0.855h-0.952c0-0.16-0.072-0.288-0.168-0.393
			c-0.12-0.119-0.336-0.191-0.543-0.191c-0.144,0-0.28,0-0.432,0.063c-0.176,0.072-0.32,0.225-0.32,0.44
			c0,0.296,0.256,0.384,0.48,0.415c0.376,0.049,0.479,0.057,0.888,0.12c0.655,0.104,1.135,0.52,1.135,1.176
			C105.994,78.183,105.85,78.479,105.634,78.695z"/>
		<path fill="#003C59" d="M108.787,79.126c-0.839,0-1.255-0.479-1.255-1.279v-2.11h-0.76v-0.824h0.76v-1.055l0.999-0.248v1.303
			h1.048v0.824h-1.048v2.022c0,0.32,0.144,0.456,0.464,0.456c0.208,0,0.376-0.008,0.647-0.04v0.84
			C109.363,79.086,109.083,79.126,108.787,79.126z"/>
		<path fill="#003C59" d="M112.842,75.8c-0.704,0-1.072,0.504-1.072,1.176v2.095h-1.007v-4.158h0.848l0.088,0.624
			c0.192-0.479,0.688-0.68,1.175-0.68c0.104,0,0.208,0.008,0.312,0.024v0.959C113.074,75.817,112.954,75.8,112.842,75.8z"/>
		<path fill="#003C59" d="M114.163,74.337v-1.031h1.071v1.031H114.163z M114.195,79.071v-4.158h1.016v4.158H114.195z"/>
		<path fill="#003C59" d="M120.213,77.304h-2.783c-0.008,0.319,0.104,0.623,0.304,0.815c0.144,0.136,0.344,0.256,0.615,0.256
			c0.288,0,0.464-0.057,0.608-0.2c0.088-0.088,0.16-0.2,0.2-0.352h0.959c-0.024,0.248-0.192,0.575-0.352,0.768
			c-0.352,0.415-0.872,0.583-1.399,0.583c-0.567,0-0.983-0.199-1.311-0.512c-0.416-0.399-0.64-0.983-0.64-1.663
			c0-0.663,0.2-1.255,0.6-1.663c0.312-0.319,0.76-0.527,1.327-0.527c0.616,0,1.175,0.248,1.519,0.768
			c0.304,0.456,0.376,0.928,0.36,1.447C120.221,77.024,120.213,77.215,120.213,77.304z M118.965,75.848
			c-0.136-0.144-0.344-0.239-0.631-0.239c-0.304,0-0.552,0.128-0.696,0.319c-0.144,0.185-0.208,0.376-0.216,0.648h1.799
			C119.213,76.264,119.125,76.025,118.965,75.848z"/>
		<path fill="#003C59" d="M126.221,77.952v1.119h-1v-1.119h-2.479v-0.943l2.039-3.494h1.087l-2.071,3.534h1.423v-1.304h1v1.304
			h0.704v0.903H126.221z"/>
		<path fill="#003C59" d="M127.944,79.071v-1.247h1.215v1.247H127.944z"/>
		<path fill="#003C59" d="M133.231,78.679c-0.288,0.279-0.696,0.495-1.295,0.495s-1.007-0.216-1.295-0.495
			c-0.576-0.552-0.664-1.479-0.664-2.391c0-0.912,0.088-1.839,0.664-2.391c0.288-0.28,0.696-0.496,1.295-0.496
			s1.007,0.216,1.295,0.496c0.576,0.552,0.664,1.479,0.664,2.391C133.895,77.2,133.807,78.127,133.231,78.679z M131.936,74.33
			c-1.031,0-0.943,1.239-0.943,1.959s-0.088,1.959,0.943,1.959s0.943-1.239,0.943-1.959S132.967,74.33,131.936,74.33z"/>
	</g>
	<g>
		<path fill="none" d="M126.407,12.476c-1.359-0.303-2.733-0.312-4.103-0.097c-2.693,0.426-4.823,2.038-5.433,4.822
			c-0.188,0.858-0.294,1.749-0.306,2.626c-0.038,2.822-0.027,5.644-0.005,8.466c0.006,0.742,0.067,1.492,0.199,2.222
			c0.434,2.398,1.792,4.119,4.094,4.895c1.088,0.367,2.19,0.553,3.29,0.556c1.285,0.004,2.565-0.245,3.813-0.793
			c1.046-0.462,1.838-1.179,2.427-2.071c0.333-0.503,0.619-1.047,0.807-1.671c0.292-0.965,0.441-1.95,0.433-2.961
			c-0.011-1.469-0.003-2.938-0.003-4.408c0-1.468,0.016-2.938-0.008-4.409c-0.01-0.624-0.057-1.257-0.16-1.874
			c-0.245-1.451-0.825-2.635-1.704-3.534c-0.816-0.834-1.896-1.417-3.214-1.731C126.49,12.502,126.451,12.486,126.407,12.476z"/>
		<path fill="#54B7D9" d="M19.912,42.315c-0.656-6.875-0.419-14.167,0.784-21.629c-0.799-5.036-1.138-9.986-1.081-14.789
			c-1.371,0.511-2.139,1.731-2.136,3.489c0.005,4.876,0.001,9.75,0.001,14.624c0,4.946,0.005,9.891-0.003,14.834
			C17.474,40.678,18.509,41.898,19.912,42.315z"/>
		<path fill="#C7D31F" d="M138.821,20.288c0.007-1.594-0.155-3.167-0.527-4.714c-1.081-4.499-3.743-7.427-7.832-8.932
			c-0.124,2.504-0.365,5.042-0.714,7.603c0.879,0.899,1.459,2.083,1.704,3.534c0.103,0.617,0.15,1.25,0.16,1.874
			c0.023,1.471,0.008,2.94,0.008,4.409c0,1.47-0.008,2.939,0.003,4.408c0.008,1.011-0.142,1.996-0.433,2.961
			c-0.188,0.624-0.474,1.167-0.807,1.671c0.201,2.815,0.263,5.591,0.189,8.315c1.675-0.625,3.204-1.512,4.476-2.831
			c2.368-2.457,3.422-5.467,3.667-8.785c0.14-1.904,0.119-5.734,0.106-5.734C138.821,22.808,138.816,21.546,138.821,20.288z"/>
		<path fill="#4EA6D3" d="M19.912,42.315c0.823,0.245,1.771,0.214,2.711-0.134c1.448-0.535,2.054-1.762,2.056-3.268
			c0-0.739,0-1.477,0-2.216c-1.82-5.362-3.145-10.729-3.983-16.012C19.493,28.148,19.256,35.44,19.912,42.315z"/>
		<path fill="#B2C630" d="M129.748,14.245c0.349-2.561,0.59-5.099,0.714-7.603c-0.496-0.183-1.004-0.354-1.543-0.495
			c-1.474-0.381-2.985-0.494-4.505-0.512c-0.079-0.001-0.157,0.002-0.235,0.002c0.878,2.29,1.662,4.584,2.356,6.877
			C127.852,12.827,128.932,13.41,129.748,14.245z"/>
		<path fill="#B2C630" d="M130.383,33.102c-0.589,0.892-1.381,1.609-2.427,2.071c-1.248,0.549-2.528,0.797-3.813,0.793
			c-0.324,0.844-0.657,1.688-1.006,2.531c-0.53,1.28-1.088,2.537-1.662,3.778c0.48,0.055,0.908,0.092,1.421,0.132
			c2.442,0.188,4.855-0.021,7.182-0.798c0.169-0.057,0.328-0.13,0.494-0.192C130.646,38.692,130.584,35.917,130.383,33.102z"/>
		<path fill="#3795C7" d="M20.696,20.686c0.733-4.54,1.819-9.142,3.274-13.748c-0.627-0.829-1.621-1.33-2.844-1.31
			c-0.564,0.01-1.068,0.104-1.511,0.269C19.558,10.7,19.897,15.65,20.696,20.686z"/>
		<path fill="#2687C1" d="M24.679,36.698c0.005-9.175,0-18.351,0.008-27.524c0-0.881-0.266-1.641-0.717-2.236
			c-1.455,4.606-2.542,9.208-3.274,13.748C21.534,25.968,22.859,31.335,24.679,36.698z"/>
		<path fill="#2687C1" d="M34.422,20.971c0,1.017,0,2.035,0,3.052c0.143-0.534,0.275-1.064,0.425-1.601
			C34.698,21.935,34.566,21.455,34.422,20.971z"/>
		<path fill="#A0C53F" d="M124.143,35.966c-1.099-0.003-2.201-0.189-3.29-0.556c-2.302-0.775-3.66-2.496-4.094-4.895
			c-0.132-0.729-0.193-1.48-0.199-2.222c-0.022-2.822-0.032-5.644,0.005-8.466c0.012-0.877,0.118-1.768,0.306-2.626
			c0.61-2.785,2.74-4.396,5.433-4.822c1.37-0.215,2.744-0.207,4.103,0.097c0.044,0.01,0.083,0.026,0.127,0.037
			c-0.694-2.292-1.478-4.587-2.356-6.877c-2.917-0.011-5.723,0.442-8.344,1.852c-2.704,1.454-4.484,3.675-5.5,6.521
			c-0.718,2.014-1,4.114-0.987,6.254c0.015,2.567,0.008,5.097,0.001,7.702c-0.005,1.784,0.224,3.536,0.713,5.249
			c1.017,3.562,3.155,6.182,6.554,7.734c1.128,0.517,2.276,0.947,3.508,1.141c0.545,0.086,0.964,0.142,1.351,0.186
			c0.574-1.241,1.131-2.498,1.662-3.778C123.486,37.654,123.819,36.81,124.143,35.966z"/>
		<path fill="#A0C53F" d="M100.375,22.044c0.189,0.536,0.368,1.069,0.55,1.604c0.001-1.04-0.002-2.08-0.001-3.12
			C100.741,21.033,100.563,21.538,100.375,22.044z"/>
		<path fill="#22718D" d="M38.979,39.906c0.954,0.707,1.99,1.238,3.079,1.628c-0.657-1.463-1.303-2.938-1.925-4.441
			c-2.047-4.943-3.807-9.856-5.287-14.672c-0.15,0.537-0.282,1.067-0.425,1.601c0,1.574,0.001,3.149,0,4.723
			c-0.002,1.805,0.241,3.576,0.696,5.321C35.741,36.456,37.016,38.452,38.979,39.906z"/>
		<path fill="#81AF51" d="M100.375,22.044c0.188-0.506,0.366-1.011,0.549-1.516c0-0.497-0.001-0.994,0-1.491
			c0.002-2.027-0.3-4.005-0.99-5.902c-0.828-2.273-2.197-4.158-4.308-5.421c-0.452-0.271-0.914-0.504-1.384-0.716
			c0.985,2.12,1.939,4.285,2.855,6.498C98.282,16.353,99.374,19.208,100.375,22.044z"/>
		<path fill="#81AF51" d="M98.159,27.683c-1.389,3.352-2.866,6.604-4.407,9.753c-0.001,0.528,0.001,1.056,0,1.584
			c-0.001,0.679,0.177,1.278,0.525,1.851c0.658,1.08,1.663,1.513,2.868,1.59c2.478,0.159,3.79-1.782,3.786-3.403
			c-0.014-5.137-0.009-10.274-0.006-15.411c-0.182-0.534-0.361-1.068-0.55-1.604C99.676,23.916,98.94,25.797,98.159,27.683z"/>
		<path fill="#22718D" d="M40.303,6.329c-0.695-0.551-1.588-0.75-2.618-0.678c-1.953,0.14-3.265,1.549-3.263,3.493
			c0.002,3.942,0,7.885,0,11.827c0.144,0.484,0.276,0.964,0.425,1.451C36.319,17.146,38.15,11.75,40.303,6.329z"/>
		<path fill="#5F905F" d="M100.375,22.044c-1.001-2.836-2.093-5.691-3.277-8.549c-0.917-2.213-1.871-4.378-2.855-6.498
			c-1.782-0.805-3.684-1.211-5.666-1.318c-3.186-0.175-6.337,0.077-9.44,0.846c-0.517,0.128-1.034,0.257-1.548,0.394
			c-1.393,3.593-2.862,7.265-4.407,10.995c-0.143,0.344-0.285,0.682-0.428,1.024c0,1.216,0.001,2.433,0.001,3.649
			c0.181,0.433,0.362,0.86,0.542,1.296c2.312,5.582,4.457,11.033,6.421,16.279c0.131-0.372,0.208-0.754,0.207-1.126
			c-0.022-8.334,0.001-25.277-0.016-25.416c-0.039-0.323,0.132-0.46,0.417-0.531c2.733-0.688,5.494-1.089,8.312-0.707
			c2.491,0.339,4.266,1.925,4.827,4.332c0.18,0.766,0.284,1.568,0.287,2.354c0.019,6.122,0.01,12.245,0.001,18.368
			c1.542-3.149,3.019-6.401,4.407-9.753C98.94,25.797,99.676,23.916,100.375,22.044z"/>
		<path fill="#1A595D" d="M40.134,37.093c0.622,1.503,1.268,2.978,1.925,4.441c0.509,0.183,1.031,0.331,1.562,0.453
			c0.692-2.088,1.42-4.229,2.191-6.426c-1.964-0.562-3.38-1.897-3.882-4.097c-0.18-0.789-0.29-1.612-0.292-2.418
			c-0.021-6.651,0-13.301-0.021-19.953c-0.002-0.517-0.142-1.07-0.364-1.54c-0.249-0.525-0.572-0.925-0.95-1.225
			c-2.153,5.421-3.983,10.817-5.456,16.092C36.327,27.237,38.086,32.15,40.134,37.093z"/>
		<path fill="#266163" d="M45.747,42.33c3.411,0.315,6.808,0.124,10.142-0.703c1.215-0.301,2.424-0.643,3.602-1.058
			c-1.326-3.034-2.652-6.145-3.97-9.324c-0.032-0.076-0.061-0.15-0.092-0.226c0.001,2.131,0.003,3.498,0.007,3.538
			c0.028,0.282-0.101,0.433-0.371,0.49c-0.387,0.081-0.772,0.177-1.16,0.258c-2.291,0.476-4.597,0.794-6.943,0.499
			c-0.403-0.051-0.781-0.138-1.148-0.243c-0.771,2.198-1.499,4.338-2.191,6.426C44.316,42.147,45.026,42.264,45.747,42.33z"/>
		<path fill="#477C5F" d="M77.589,6.918c-0.901,0.239-1.792,0.513-2.644,0.92c-0.892,0.43-1.53,1.085-1.851,1.995
			c-0.197,0.56-0.321,1.175-0.324,1.767c-0.014,2.445-0.017,4.89-0.017,7.336c0.143-0.342,0.286-0.68,0.428-1.024
			C74.727,14.183,76.196,10.511,77.589,6.918z"/>
		<path fill="#477C5F" d="M72.755,22.585c0.001,0.866,0.001,1.732,0.001,2.599c-0.002,0-0.005,0-0.008,0
			c0,4.617,0.006,9.238-0.004,13.859c-0.001,0.681,0.188,1.279,0.542,1.849c0.648,1.047,1.625,1.481,2.807,1.566
			c1.93,0.142,3.168-0.999,3.626-2.298c-1.965-5.247-4.109-10.698-6.421-16.279C73.117,23.446,72.936,23.018,72.755,22.585z"/>
		<path fill="#266163" d="M55.429,9.074c0,0.448,0,0.926,0,1.419c0.627-1.514,1.257-3.006,1.887-4.488
			C56.17,6.559,55.428,7.697,55.429,9.074z"/>
		<path fill="#286560" d="M59.49,40.569c0.178-0.062,0.362-0.111,0.539-0.179c1.816-0.698,2.608-2.146,2.606-4.068
			c-0.006-4.479-0.002-8.96-0.002-13.439c0.003,0,0.005,0,0.007,0c0-4.597-0.002-9.194,0.002-13.792
			c0.001-0.597-0.139-1.15-0.428-1.671c-0.79-1.418-2.042-1.887-3.593-1.765c-0.474,0.038-0.913,0.16-1.305,0.35
			c-0.63,1.482-1.26,2.975-1.887,4.488c0.001,6.129-0.003,15.473-0.001,20.527c0.031,0.076,0.061,0.15,0.092,0.226
			C56.838,34.425,58.164,37.535,59.49,40.569z"/>
	</g>
	<g>
		<path fill="#003C59" d="M151.403,52.698H4.502c-0.11,0-0.2-0.09-0.2-0.2s0.09-0.2,0.2-0.2h146.901c0.11,0,0.2,0.09,0.2,0.2
			S151.514,52.698,151.403,52.698z"/>
	</g>
</g>
<g id="Ebene_3">
</g>
<g id="Ebene_4">
</g>
</svg>
