<?xml version="1.0" encoding="UTF-8" standalone="no"?>
<!-- Generator: Adobe Illustrator 16.0.4, SVG Export Plug-In . SVG Version: 6.00 Build 0)  -->

<svg
   xmlns:dc="http://purl.org/dc/elements/1.1/"
   xmlns:cc="http://creativecommons.org/ns#"
   xmlns:rdf="http://www.w3.org/1999/02/22-rdf-syntax-ns#"
   xmlns:svg="http://www.w3.org/2000/svg"
   xmlns="http://www.w3.org/2000/svg"
   xmlns:sodipodi="http://sodipodi.sourceforge.net/DTD/sodipodi-0.dtd"
   xmlns:inkscape="http://www.inkscape.org/namespaces/inkscape"
   version="1.1"
   x="0px"
   y="0px"
   width="121.35342"
   height="36.848732"
   viewBox="0 0 121.35342 36.848732"
   enable-background="new 0 0 155.905 85.04"
   xml:space="preserve"
   id="svg161"
   sodipodi:docname="logo_iuno_rgb_rz_01.svg"
   inkscape:version="0.92.1 r15371"><metadata
     id="metadata167"><rdf:RDF><cc:Work
         rdf:about=""><dc:format>image/svg+xml</dc:format><dc:type
           rdf:resource="http://purl.org/dc/dcmitype/StillImage" /><dc:title></dc:title></cc:Work></rdf:RDF></metadata><defs
     id="defs165" /><sodipodi:namedview
     pagecolor="#ffffff"
     bordercolor="#666666"
     borderopacity="1"
     objecttolerance="10"
     gridtolerance="10"
     guidetolerance="10"
     inkscape:pageopacity="0"
     inkscape:pageshadow="2"
     inkscape:window-width="1080"
     inkscape:window-height="1857"
     id="namedview163"
     showgrid="false"
     inkscape:pagecheckerboard="false"
     fit-margin-top="0"
     fit-margin-left="0"
     fit-margin-right="0"
     fit-margin-bottom="0"
     inkscape:zoom="2.2706135"
     inkscape:cx="60.475506"
     inkscape:cy="-0.045307436"
     inkscape:window-x="1916"
     inkscape:window-y="-4"
     inkscape:window-maximized="1"
     inkscape:current-layer="Ebene_2" /><g
     id="Ebene_2"
     transform="translate(-17.476993,-5.6259594)"><g
       id="g152"><path
         d="m 126.407,12.476 c -1.359,-0.303 -2.733,-0.312 -4.103,-0.097 -2.693,0.426 -4.823,2.038 -5.433,4.822 -0.188,0.858 -0.294,1.749 -0.306,2.626 -0.038,2.822 -0.027,5.644 -0.005,8.466 0.006,0.742 0.067,1.492 0.199,2.222 0.434,2.398 1.792,4.119 4.094,4.895 1.088,0.367 2.19,0.553 3.29,0.556 1.285,0.004 2.565,-0.245 3.813,-0.793 1.046,-0.462 1.838,-1.179 2.427,-2.071 0.333,-0.503 0.619,-1.047 0.807,-1.671 0.292,-0.965 0.441,-1.95 0.433,-2.961 -0.011,-1.469 -0.003,-2.938 -0.003,-4.408 0,-1.468 0.016,-2.938 -0.008,-4.409 -0.01,-0.624 -0.057,-1.257 -0.16,-1.874 -0.245,-1.451 -0.825,-2.635 -1.704,-3.534 -0.816,-0.834 -1.896,-1.417 -3.214,-1.731 -0.044,-0.012 -0.083,-0.028 -0.127,-0.038 z"
         id="path108"
         inkscape:connector-curvature="0"
         style="fill:none" /><path
         d="M 19.912,42.315 C 19.256,35.44 19.493,28.148 20.696,20.686 19.897,15.65 19.558,10.7 19.615,5.897 c -1.371,0.511 -2.139,1.731 -2.136,3.489 0.005,4.876 0.001,9.75 0.001,14.624 0,4.946 0.005,9.891 -0.003,14.834 -0.003,1.834 1.032,3.054 2.435,3.471 z"
         id="path110"
         inkscape:connector-curvature="0"
         style="fill:#54b7d9" /><path
         d="m 138.821,20.288 c 0.007,-1.594 -0.155,-3.167 -0.527,-4.714 -1.081,-4.499 -3.743,-7.427 -7.832,-8.932 -0.124,2.504 -0.365,5.042 -0.714,7.603 0.879,0.899 1.459,2.083 1.704,3.534 0.103,0.617 0.15,1.25 0.16,1.874 0.023,1.471 0.008,2.94 0.008,4.409 0,1.47 -0.008,2.939 0.003,4.408 0.008,1.011 -0.142,1.996 -0.433,2.961 -0.188,0.624 -0.474,1.167 -0.807,1.671 0.201,2.815 0.263,5.591 0.189,8.315 1.675,-0.625 3.204,-1.512 4.476,-2.831 2.368,-2.457 3.422,-5.467 3.667,-8.785 0.14,-1.904 0.119,-5.734 0.106,-5.734 0,-1.259 -0.005,-2.521 0,-3.779 z"
         id="path112"
         inkscape:connector-curvature="0"
         style="fill:#c7d31f" /><path
         d="m 19.912,42.315 c 0.823,0.245 1.771,0.214 2.711,-0.134 1.448,-0.535 2.054,-1.762 2.056,-3.268 0,-0.739 0,-1.477 0,-2.216 -1.82,-5.362 -3.145,-10.729 -3.983,-16.012 -1.203,7.463 -1.44,14.755 -0.784,21.63 z"
         id="path114"
         inkscape:connector-curvature="0"
         style="fill:#4ea6d3" /><path
         d="m 129.748,14.245 c 0.349,-2.561 0.59,-5.099 0.714,-7.603 -0.496,-0.183 -1.004,-0.354 -1.543,-0.495 -1.474,-0.381 -2.985,-0.494 -4.505,-0.512 -0.079,-10e-4 -0.157,0.002 -0.235,0.002 0.878,2.29 1.662,4.584 2.356,6.877 1.317,0.313 2.397,0.896 3.213,1.731 z"
         id="path116"
         inkscape:connector-curvature="0"
         style="fill:#b2c630" /><path
         d="m 130.383,33.102 c -0.589,0.892 -1.381,1.609 -2.427,2.071 -1.248,0.549 -2.528,0.797 -3.813,0.793 -0.324,0.844 -0.657,1.688 -1.006,2.531 -0.53,1.28 -1.088,2.537 -1.662,3.778 0.48,0.055 0.908,0.092 1.421,0.132 2.442,0.188 4.855,-0.021 7.182,-0.798 0.169,-0.057 0.328,-0.13 0.494,-0.192 0.074,-2.725 0.012,-5.5 -0.189,-8.315 z"
         id="path118"
         inkscape:connector-curvature="0"
         style="fill:#b2c630" /><path
         d="m 20.696,20.686 c 0.733,-4.54 1.819,-9.142 3.274,-13.748 -0.627,-0.829 -1.621,-1.33 -2.844,-1.31 -0.564,0.01 -1.068,0.104 -1.511,0.269 -0.057,4.803 0.282,9.753 1.081,14.789 z"
         id="path120"
         inkscape:connector-curvature="0"
         style="fill:#3795c7" /><path
         d="m 24.679,36.698 c 0.005,-9.175 0,-18.351 0.008,-27.524 0,-0.881 -0.266,-1.641 -0.717,-2.236 -1.455,4.606 -2.542,9.208 -3.274,13.748 0.838,5.282 2.163,10.649 3.983,16.012 z"
         id="path122"
         inkscape:connector-curvature="0"
         style="fill:#2687c1" /><path
         d="m 34.422,20.971 c 0,1.017 0,2.035 0,3.052 0.143,-0.534 0.275,-1.064 0.425,-1.601 -0.149,-0.487 -0.281,-0.967 -0.425,-1.451 z"
         id="path124"
         inkscape:connector-curvature="0"
         style="fill:#2687c1" /><path
         d="m 124.143,35.966 c -1.099,-0.003 -2.201,-0.189 -3.29,-0.556 -2.302,-0.775 -3.66,-2.496 -4.094,-4.895 -0.132,-0.729 -0.193,-1.48 -0.199,-2.222 -0.022,-2.822 -0.032,-5.644 0.005,-8.466 0.012,-0.877 0.118,-1.768 0.306,-2.626 0.61,-2.785 2.74,-4.396 5.433,-4.822 1.37,-0.215 2.744,-0.207 4.103,0.097 0.044,0.01 0.083,0.026 0.127,0.037 -0.694,-2.292 -1.478,-4.587 -2.356,-6.877 -2.917,-0.011 -5.723,0.442 -8.344,1.852 -2.704,1.454 -4.484,3.675 -5.5,6.521 -0.718,2.014 -1,4.114 -0.987,6.254 0.015,2.567 0.008,5.097 0.001,7.702 -0.005,1.784 0.224,3.536 0.713,5.249 1.017,3.562 3.155,6.182 6.554,7.734 1.128,0.517 2.276,0.947 3.508,1.141 0.545,0.086 0.964,0.142 1.351,0.186 0.574,-1.241 1.131,-2.498 1.662,-3.778 0.35,-0.843 0.683,-1.687 1.007,-2.531 z"
         id="path126"
         inkscape:connector-curvature="0"
         style="fill:#a0c53f" /><path
         d="m 100.375,22.044 c 0.189,0.536 0.368,1.069 0.55,1.604 0.001,-1.04 -0.002,-2.08 -10e-4,-3.12 -0.183,0.505 -0.361,1.01 -0.549,1.516 z"
         id="path128"
         inkscape:connector-curvature="0"
         style="fill:#a0c53f" /><path
         d="m 38.979,39.906 c 0.954,0.707 1.99,1.238 3.079,1.628 -0.657,-1.463 -1.303,-2.938 -1.925,-4.441 -2.047,-4.943 -3.807,-9.856 -5.287,-14.672 -0.15,0.537 -0.282,1.067 -0.425,1.601 0,1.574 10e-4,3.149 0,4.723 -0.002,1.805 0.241,3.576 0.696,5.321 0.624,2.39 1.899,4.386 3.862,5.84 z"
         id="path130"
         inkscape:connector-curvature="0"
         style="fill:#22718d" /><path
         d="m 100.375,22.044 c 0.188,-0.506 0.366,-1.011 0.549,-1.516 0,-0.497 -0.001,-0.994 0,-1.491 0.002,-2.027 -0.3,-4.005 -0.99,-5.902 C 99.106,10.862 97.737,8.977 95.626,7.714 95.174,7.443 94.712,7.21 94.242,6.998 c 0.985,2.12 1.939,4.285 2.855,6.498 1.185,2.857 2.277,5.712 3.278,8.548 z"
         id="path132"
         inkscape:connector-curvature="0"
         style="fill:#81af51" /><path
         d="m 98.159,27.683 c -1.389,3.352 -2.866,6.604 -4.407,9.753 -10e-4,0.528 0.001,1.056 0,1.584 -10e-4,0.679 0.177,1.278 0.525,1.851 0.658,1.08 1.663,1.513 2.868,1.59 2.478,0.159 3.79,-1.782 3.786,-3.403 -0.014,-5.137 -0.009,-10.274 -0.006,-15.411 -0.182,-0.534 -0.361,-1.068 -0.55,-1.604 -0.699,1.873 -1.435,3.754 -2.216,5.64 z"
         id="path134"
         inkscape:connector-curvature="0"
         style="fill:#81af51" /><path
         d="M 40.303,6.329 C 39.608,5.778 38.715,5.579 37.685,5.651 35.732,5.791 34.42,7.2 34.422,9.144 c 0.002,3.942 0,7.885 0,11.827 0.144,0.484 0.276,0.964 0.425,1.451 1.472,-5.276 3.303,-10.672 5.456,-16.093 z"
         id="path136"
         inkscape:connector-curvature="0"
         style="fill:#22718d" /><path
         d="M 100.375,22.044 C 99.374,19.208 98.282,16.353 97.098,13.495 96.181,11.282 95.227,9.117 94.243,6.997 92.461,6.192 90.559,5.786 88.577,5.679 85.391,5.504 82.24,5.756 79.137,6.525 78.62,6.653 78.103,6.782 77.589,6.919 c -1.393,3.593 -2.862,7.265 -4.407,10.995 -0.143,0.344 -0.285,0.682 -0.428,1.024 0,1.216 10e-4,2.433 10e-4,3.649 0.181,0.433 0.362,0.86 0.542,1.296 2.312,5.582 4.457,11.033 6.421,16.279 0.131,-0.372 0.208,-0.754 0.207,-1.126 -0.022,-8.334 0.001,-25.277 -0.016,-25.416 -0.039,-0.323 0.132,-0.46 0.417,-0.531 2.733,-0.688 5.494,-1.089 8.312,-0.707 2.491,0.339 4.266,1.925 4.827,4.332 0.18,0.766 0.284,1.568 0.287,2.354 0.019,6.122 0.01,12.245 0.001,18.368 1.542,-3.149 3.019,-6.401 4.407,-9.753 0.78,-1.886 1.516,-3.767 2.215,-5.639 z"
         id="path138"
         inkscape:connector-curvature="0"
         style="fill:#5f905f" /><path
         d="m 40.134,37.093 c 0.622,1.503 1.268,2.978 1.925,4.441 0.509,0.183 1.031,0.331 1.562,0.453 0.692,-2.088 1.42,-4.229 2.191,-6.426 -1.964,-0.562 -3.38,-1.897 -3.882,-4.097 -0.18,-0.789 -0.29,-1.612 -0.292,-2.418 -0.021,-6.651 0,-13.301 -0.021,-19.953 C 41.615,8.576 41.475,8.023 41.253,7.553 41.004,7.028 40.681,6.628 40.303,6.328 38.15,11.749 36.32,17.145 34.847,22.42 c 1.48,4.817 3.239,9.73 5.287,14.673 z"
         id="path140"
         inkscape:connector-curvature="0"
         style="fill:#1a595d" /><path
         d="m 45.747,42.33 c 3.411,0.315 6.808,0.124 10.142,-0.703 1.215,-0.301 2.424,-0.643 3.602,-1.058 -1.326,-3.034 -2.652,-6.145 -3.97,-9.324 -0.032,-0.076 -0.061,-0.15 -0.092,-0.226 10e-4,2.131 0.003,3.498 0.007,3.538 0.028,0.282 -0.101,0.433 -0.371,0.49 -0.387,0.081 -0.772,0.177 -1.16,0.258 -2.291,0.476 -4.597,0.794 -6.943,0.499 -0.403,-0.051 -0.781,-0.138 -1.148,-0.243 -0.771,2.198 -1.499,4.338 -2.191,6.426 0.693,0.16 1.403,0.277 2.124,0.343 z"
         id="path142"
         inkscape:connector-curvature="0"
         style="fill:#266163" /><path
         d="m 77.589,6.918 c -0.901,0.239 -1.792,0.513 -2.644,0.92 -0.892,0.43 -1.53,1.085 -1.851,1.995 -0.197,0.56 -0.321,1.175 -0.324,1.767 -0.014,2.445 -0.017,4.89 -0.017,7.336 0.143,-0.342 0.286,-0.68 0.428,-1.024 1.546,-3.729 3.015,-7.401 4.408,-10.994 z"
         id="path144"
         inkscape:connector-curvature="0"
         style="fill:#477c5f" /><path
         d="m 72.755,22.585 c 0.001,0.866 0.001,1.732 0.001,2.599 -0.002,0 -0.005,0 -0.008,0 0,4.617 0.006,9.238 -0.004,13.859 -0.001,0.681 0.188,1.279 0.542,1.849 0.648,1.047 1.625,1.481 2.807,1.566 1.93,0.142 3.168,-0.999 3.626,-2.298 C 77.754,34.913 75.61,29.462 73.298,23.881 73.117,23.446 72.936,23.018 72.755,22.585 Z"
         id="path146"
         inkscape:connector-curvature="0"
         style="fill:#477c5f" /><path
         d="m 55.429,9.074 c 0,0.448 0,0.926 0,1.419 0.627,-1.514 1.257,-3.006 1.887,-4.488 -1.146,0.554 -1.888,1.692 -1.887,3.069 z"
         id="path148"
         inkscape:connector-curvature="0"
         style="fill:#266163" /><path
         d="m 59.49,40.569 c 0.178,-0.062 0.362,-0.111 0.539,-0.179 1.816,-0.698 2.608,-2.146 2.606,-4.068 -0.006,-4.479 -0.002,-8.96 -0.002,-13.439 0.003,0 0.005,0 0.007,0 0,-4.597 -0.002,-9.194 0.002,-13.792 10e-4,-0.597 -0.139,-1.15 -0.428,-1.671 -0.79,-1.418 -2.042,-1.887 -3.593,-1.765 -0.474,0.038 -0.913,0.16 -1.305,0.35 -0.63,1.482 -1.26,2.975 -1.887,4.488 10e-4,6.129 -0.003,15.473 -0.001,20.527 0.031,0.076 0.061,0.15 0.092,0.226 1.318,3.179 2.644,6.289 3.97,9.323 z"
         id="path150"
         inkscape:connector-curvature="0"
         style="fill:#286560" /></g></g><g
     id="Ebene_3"
     transform="translate(-17.476993,-5.6259594)" /><g
     id="Ebene_4"
     transform="translate(-17.476993,-5.6259594)" /></svg>