<?xml version="1.0" encoding="UTF-8" standalone="no"?>
<!DOCTYPE svg PUBLIC "-//W3C//DTD SVG 1.1//EN" "http://www.w3.org/Graphics/SVG/1.1/DTD/svg11.dtd">
<svg width="100%" height="100%" viewBox="0 0 20 20" version="1.1" xmlns="http://www.w3.org/2000/svg" xmlns:xlink="http://www.w3.org/1999/xlink" xml:space="preserve" style="fill-rule:evenodd;clip-rule:evenodd;stroke-linejoin:round;stroke-miterlimit:1.41421;">
    <g transform="matrix(0.9,0,0,0.9,1.0018,1)">
        <path d="M10,15C8.346,15 7,13.654 7,12C7,10.346 8.346,9 10,9C11.654,9 13,10.346 13,12C13,13.654 11.654,15 10,15ZM10,10C8.897,10 8,10.897 8,12C8,13.103 8.897,14 10,14C11.103,14 12,13.103 12,12C12,10.897 11.103,10 10,10Z" style="fill-rule:nonzero;"/>
    </g>
    <g transform="matrix(0.9,0,0,0.9,1.0018,1)">
        <path d="M15.904,2.056L15.727,1.349C15.538,0.593 14.779,0 13.999,0L5.999,0C5.219,0 4.461,0.593 4.271,1.349L4.094,2.056C3.463,2.233 2.998,2.813 2.998,3.5L2.998,4.5C2.998,5.163 3.43,5.726 4.027,5.924L4.928,18.538C4.986,19.344 5.69,20 6.498,20L13.498,20C14.306,20 15.01,19.344 15.068,18.538L15.969,5.924C16.566,5.726 16.998,5.163 16.998,4.5L16.998,3.5C16.998,2.813 16.534,2.233 15.902,2.056L15.904,2.056ZM6,1L14,1C14.319,1 14.68,1.282 14.757,1.591L14.859,2L5.14,2L5.242,1.591C5.319,1.282 5.68,1 5.999,1L6,1ZM14.892,7L5.109,7L5.038,6L14.964,6L14.893,7L14.892,7ZM14.249,16L5.752,16L5.181,8L14.821,8L14.25,16L14.249,16ZM13.5,19L6.5,19C6.21,19 5.948,18.756 5.927,18.467L5.822,17L14.177,17L14.072,18.467C14.051,18.756 13.789,19 13.499,19L13.5,19ZM16,4.5C16,4.776 15.776,5 15.5,5L4.5,5C4.224,5 4,4.776 4,4.5L4,3.5C4,3.225 4.224,3.001 4.499,3L15.501,3C15.777,3 16.001,3.224 16.001,3.5L16.001,4.5L16,4.5Z" style="fill-rule:nonzero;"/>
    </g>
</svg>
