<?xml version="1.0" encoding="UTF-8" standalone="no"?>
<!DOCTYPE svg PUBLIC "-//W3C//DTD SVG 1.1//EN" "http://www.w3.org/Graphics/SVG/1.1/DTD/svg11.dtd">
<svg width="100%" height="100%" viewBox="0 0 20 20" version="1.1" xmlns="http://www.w3.org/2000/svg" xmlns:xlink="http://www.w3.org/1999/xlink" xml:space="preserve" style="fill-rule:evenodd;clip-rule:evenodd;stroke-linejoin:round;stroke-miterlimit:1.41421;">
    <g id="cloud" transform="matrix(0.59886,0,0,0.580504,0.418535,0.711937)">
        <path d="M25.913,12.642C25.476,8.08 21.677,4.5 16.999,4.5C13.38,4.5 10.282,6.648 8.853,9.73C8.423,9.594 7.975,9.5 7.5,9.5C5.015,9.5 3,11.516 3,14C3,14.494 3.099,14.961 3.246,15.404C1.313,16.531 0,18.599 0,20.998C0,24.588 2.91,27.498 6.5,27.498L6.5,27.5L24.499,27.5L24.499,27.498C28.642,27.498 31.999,24.141 31.999,19.998C31.999,16.341 29.378,13.305 25.913,12.642ZM24.499,25.497L24.499,25.5L6.5,25.5C4.019,25.497 2,23.479 2,20.998C2,19.398 2.843,17.953 4.254,17.131C5.625,16.344 5.719,16.188 5.144,14.774C5.047,14.483 5,14.23 5,14.001C5,12.622 6.121,11.501 7.5,11.501C7.5,11.501 8.156,11.454 8.853,11.731C10,12.188 10.125,11.751 10.667,10.572C11.814,8.099 14.299,6.5 16.999,6.5C20.599,6.5 23.575,9.223 23.923,12.834C24.046,14.266 24.046,14.266 25.538,14.607C28.124,15.101 29.999,17.369 29.999,19.998C29.999,23.031 27.532,25.497 24.499,25.497Z" style="fill:rgb(1,0,2);fill-rule:nonzero;"/>
    </g>
</svg>
