<?xml version="1.0" encoding="UTF-8" standalone="no"?>
<!-- Generator: Adobe Illustrator 15.1.0, SVG Export Plug-In . SVG Version: 6.00 Build 0)  -->

<svg
   xmlns:dc="http://purl.org/dc/elements/1.1/"
   xmlns:cc="http://creativecommons.org/ns#"
   xmlns:rdf="http://www.w3.org/1999/02/22-rdf-syntax-ns#"
   xmlns:svg="http://www.w3.org/2000/svg"
   xmlns="http://www.w3.org/2000/svg"
   xmlns:xlink="http://www.w3.org/1999/xlink"
   xmlns:sodipodi="http://sodipodi.sourceforge.net/DTD/sodipodi-0.dtd"
   xmlns:inkscape="http://www.inkscape.org/namespaces/inkscape"
   version="1.1"
   id="Ebene_1"
   x="0px"
   y="0px"
   width="364.35501"
   height="111.859"
   viewBox="0 0 364.355 111.859"
   enable-background="new 0 0 841.89 595.28"
   xml:space="preserve"
   sodipodi:docname="powered_by_axoom_vertical.svg"
   inkscape:version="0.92.0 r15299"><metadata
     id="metadata35"><rdf:RDF><cc:Work
         rdf:about=""><dc:format>image/svg+xml</dc:format><dc:type
           rdf:resource="http://purl.org/dc/dcmitype/StillImage" /></cc:Work></rdf:RDF></metadata><defs
     id="defs33" /><sodipodi:namedview
     pagecolor="#ffffff"
     bordercolor="#666666"
     borderopacity="1"
     objecttolerance="10"
     gridtolerance="10"
     guidetolerance="10"
     inkscape:pageopacity="0"
     inkscape:pageshadow="2"
     inkscape:window-width="1920"
     inkscape:window-height="1058"
     id="namedview31"
     showgrid="false"
     inkscape:zoom="0.33733623"
     inkscape:cx="182.94501"
     inkscape:cy="55.640985"
     inkscape:window-x="1912"
     inkscape:window-y="-8"
     inkscape:window-maximized="1"
     inkscape:current-layer="Ebene_1" /><g
     id="g12"
     transform="translate(-238,-241.422)"><defs
       id="defs3"><rect
         id="SVGID_1_"
         x="238"
         y="241.422"
         width="364.35501"
         height="111.858" /></defs><clipPath
       id="SVGID_2_"><use
         xlink:href="#SVGID_1_"
         overflow="visible"
         id="use5"
         style="overflow:visible"
         x="0"
         y="0"
         width="100%"
         height="100%" /></clipPath><path
       clip-path="url(#SVGID_2_)"
       d="m 416.346,289.423 c -17.072,0 -30.961,14.259 -30.961,31.787 0,17.528 13.889,31.786 30.961,31.786 17.07,0 30.959,-14.258 30.959,-31.786 0,-17.528 -13.889,-31.787 -30.959,-31.787 m 0,50.669 c -10.141,0 -18.392,-8.471 -18.392,-18.882 0,-10.412 8.251,-18.883 18.392,-18.883 10.141,0 18.391,8.471 18.391,18.883 -0.001,10.411 -8.251,18.882 -18.391,18.882"
       id="path8"
       inkscape:connector-curvature="0"
       style="fill:#262726" /><path
       clip-path="url(#SVGID_2_)"
       d="m 491.242,289.423 c -17.072,0 -30.959,14.259 -30.959,31.787 0,17.528 13.887,31.786 30.959,31.786 17.07,0 30.959,-14.258 30.959,-31.786 0,-17.528 -13.888,-31.787 -30.959,-31.787 m 0,50.669 c -10.141,0 -18.393,-8.471 -18.393,-18.882 0,-10.412 8.252,-18.883 18.393,-18.883 10.14,0 18.393,8.471 18.393,18.883 0,10.411 -8.253,18.882 -18.393,18.882"
       id="path10"
       inkscape:connector-curvature="0"
       style="fill:#262726" /></g><polygon
     points="238,351.952 251.26,351.952 269.443,307.656 287.627,351.952 300.886,351.952 280.27,301.941 275.906,291.245 262.981,291.245 258.618,301.941 "
     id="polygon14"
     style="fill:#262726"
     transform="translate(-238,-241.422)" /><polygon
     points="310.734,299.142 332.582,321.571 310.77,343.966 319.802,353.239 341.613,330.845 363.462,353.281 372.497,344.007 350.645,321.571 372.495,299.141 363.461,289.868 341.613,312.299 319.766,289.869 "
     id="polygon16"
     style="fill:#262726"
     transform="translate(-238,-241.422)" /><g
     id="g26"
     transform="translate(-238,-241.422)"><defs
       id="defs19"><rect
         id="SVGID_3_"
         x="238"
         y="241.422"
         width="364.35501"
         height="111.858" /></defs><clipPath
       id="SVGID_4_"><use
         xlink:href="#SVGID_3_"
         overflow="visible"
         id="use21"
         style="overflow:visible"
         x="0"
         y="0"
         width="100%"
         height="100%" /></clipPath><path
       clip-path="url(#SVGID_4_)"
       d="m 420.26,247.435 h -4.783 l -3.523,12.672 h -0.065 l -3.684,-12.672 h -5.042 l 6.335,17.909 c -0.42,2.359 -1.325,2.586 -2.973,2.586 -0.388,0 -0.679,-0.033 -0.873,-0.064 v 3.616 c 0.646,0.032 1.422,0.064 2.036,0.064 3.943,0 4.525,-0.839 6.658,-7.205 z m -30.384,-6.013 h -4.522 v 23.206 h 4.425 v -2.163 h 0.065 c 1.099,1.938 3.105,2.616 4.98,2.616 5.107,0 7.239,-4.522 7.239,-9.243 0,-5.949 -3.359,-8.855 -7.142,-8.855 -2.91,0 -4.269,1.582 -4.98,2.681 h -0.065 z m 7.537,14.739 c 0,2.037 -0.809,5.207 -3.72,5.207 -2.878,0 -4.01,-2.395 -4.01,-4.948 0,-2.749 0.776,-5.53 3.881,-5.53 2.878,0 3.849,2.554 3.849,5.271 m -37.663,0 c 0,-2.717 0.97,-5.271 3.848,-5.271 3.105,0 3.881,2.781 3.881,5.53 0,2.554 -1.131,4.948 -4.01,4.948 -2.911,0 -3.719,-3.17 -3.719,-5.207 m 12.057,-14.739 h -4.522 v 8.241 h -0.064 c -0.712,-1.099 -2.07,-2.681 -4.981,-2.681 -3.782,0 -7.141,2.906 -7.141,8.855 0,4.721 2.131,9.243 7.238,9.243 1.876,0 3.881,-0.679 4.981,-2.616 h 0.064 v 2.163 h 4.425 z m -30.829,12.897 c 0.259,-2.265 1.391,-3.624 3.526,-3.624 1.455,0 3.234,0.842 3.493,3.624 z m 6.825,5.269 c -0.356,1.229 -1.65,1.876 -2.911,1.876 -3.655,0 -3.914,-2.912 -4.043,-4.206 h 11.799 v -0.807 c 0,-7.854 -4.684,-9.469 -8.08,-9.469 -7.53,0 -8.241,6.626 -8.241,8.693 0,7.08 3.714,9.405 8.565,9.405 2.943,0 6.367,-1.356 7.562,-5.493 h -4.651 z m -23.161,5.04 h 4.521 v -8.954 c 0,-1.907 0.647,-4.105 4.17,-4.105 0.42,0 0.905,0 1.293,0.064 v -4.586 c -0.291,-0.032 -0.582,-0.064 -0.873,-0.064 -2.747,0 -3.782,1.68 -4.719,3.424 h -0.065 v -2.972 h -4.327 z m -15.023,-10.309 c 0.259,-2.265 1.391,-3.624 3.526,-3.624 1.455,0 3.234,0.842 3.493,3.624 z m 6.824,5.269 c -0.356,1.229 -1.65,1.876 -2.911,1.876 -3.655,0 -3.914,-2.912 -4.043,-4.206 h 11.799 v -0.807 c 0,-7.854 -4.684,-9.469 -8.08,-9.469 -7.53,0 -8.241,6.626 -8.241,8.693 0,7.08 3.714,9.405 8.565,9.405 2.943,0 6.367,-1.356 7.562,-5.493 h -4.651 z m -12.597,-12.153 h -4.655 l -2.682,12.35 h -0.065 l -2.586,-12.35 h -4.557 l -2.424,12.35 h -0.064 l -2.683,-12.35 h -4.816 l 4.848,17.193 h 4.655 l 2.682,-12.542 h 0.065 l 2.682,12.542 h 4.654 z m -30.467,8.597 c 0,2.198 -0.647,5.238 -4.14,5.238 -3.493,0 -4.14,-3.04 -4.14,-5.238 0,-2.199 0.647,-5.239 4.14,-5.239 3.493,0 4.14,3.04 4.14,5.239 m 4.651,0 c 0,-6.208 -4.166,-9.05 -8.79,-9.05 -4.624,0 -8.791,2.842 -8.791,9.05 0,6.207 4.167,9.049 8.791,9.049 4.624,0 8.79,-2.842 8.79,-9.049 m -32.726,-3.78 v -6.825 h 3.849 c 3.008,0 4.269,0.938 4.269,3.202 0,1.035 0,3.623 -3.622,3.623 z m 0,4.004 h 5.563 c 6.237,0 7.4,-5.298 7.4,-7.401 0,-4.558 -2.713,-7.433 -7.206,-7.433 h -10.602 v 23.206 h 4.845 z"
       id="path24"
       inkscape:connector-curvature="0"
       style="fill:#262726" /></g><polygon
     points="548.9,351.95 536.75,351.95 536.75,291.244 548.031,291.244 553.354,296.013 569.553,311.507 585.752,296.013 591.074,291.244 602.355,291.244 602.355,351.95 590.205,351.95 590.205,307.846 569.553,328.85 548.9,307.846 "
     id="polygon28"
     style="fill:#262726"
     transform="translate(-238,-241.422)" /></svg>