<?xml version="1.0" encoding="UTF-8" standalone="no"?>
<!DOCTYPE svg PUBLIC "-//W3C//DTD SVG 1.1//EN" "http://www.w3.org/Graphics/SVG/1.1/DTD/svg11.dtd">
<svg width="100%" height="100%" viewBox="0 0 320 320" version="1.1" xmlns="http://www.w3.org/2000/svg" xmlns:xlink="http://www.w3.org/1999/xlink" xml:space="preserve" style="fill-rule:evenodd;clip-rule:evenodd;stroke-linejoin:round;stroke-miterlimit:1.41421;">
    <g transform="matrix(1,0,0,1,-18.5507,-9.71754)">
        <g transform="matrix(0.707107,-0.707107,0.707107,0.707107,-56.2228,201.414)">
            <g id="path8" transform="matrix(1,0,0,1,-238,-184.246)">
                <path d="M416.346,289.423C399.274,289.423 385.385,303.682 385.385,321.21C385.385,338.738 399.274,352.996 416.346,352.996C433.416,352.996 447.305,338.738 447.305,321.21C447.305,303.682 433.416,289.423 416.346,289.423M416.346,340.092C406.205,340.092 397.954,331.621 397.954,321.21C397.954,310.798 406.205,302.327 416.346,302.327C426.487,302.327 434.737,310.798 434.737,321.21C434.736,331.621 426.486,340.092 416.346,340.092" style="fill:rgb(38,39,38);fill-rule:nonzero;"/>
            </g>
            <g id="path10" transform="matrix(1,0,0,1,-238,-184.246)">
                <path d="M491.242,289.423C474.17,289.423 460.283,303.682 460.283,321.21C460.283,338.738 474.17,352.996 491.242,352.996C508.312,352.996 522.201,338.738 522.201,321.21C522.201,303.682 508.313,289.423 491.242,289.423M491.242,340.092C481.101,340.092 472.849,331.621 472.849,321.21C472.849,310.798 481.101,302.327 491.242,302.327C501.382,302.327 509.635,310.798 509.635,321.21C509.635,331.621 501.382,340.092 491.242,340.092" style="fill:rgb(38,39,38);fill-rule:nonzero;"/>
            </g>
            <g id="polygon14" transform="matrix(1,0,0,1,-238,-184.246)">
                <path d="M238,351.952L251.26,351.952L269.443,307.656L287.627,351.952L300.886,351.952L280.27,301.941L275.906,291.245L262.981,291.245L258.618,301.941L238,351.952Z" style="fill:rgb(38,39,38);fill-rule:nonzero;"/>
            </g>
            <g id="polygon16" transform="matrix(1,0,0,1,-238,-184.246)">
                <path d="M310.734,299.142L332.582,321.571L310.77,343.966L319.802,353.239L341.613,330.845L363.462,353.281L372.497,344.007L350.645,321.571L372.495,299.141L363.461,289.868L341.613,312.299L319.766,289.869L310.734,299.142Z" style="fill:rgb(38,39,38);fill-rule:nonzero;"/>
            </g>
            <g id="polygon28" transform="matrix(1,0,0,1,-238,-184.246)">
                <path d="M548.9,351.95L536.75,351.95L536.75,291.244L548.031,291.244L553.354,296.013L569.553,311.507L585.752,296.013L591.074,291.244L602.355,291.244L602.355,351.95L590.205,351.95L590.205,307.846L569.553,328.85L548.9,307.846L548.9,351.95Z" style="fill:rgb(38,39,38);fill-rule:nonzero;"/>
            </g>
        </g>
        <g id="path24" transform="matrix(0.707107,-0.707107,0.707107,0.707107,-291.285,175.913)">
            <path d="M420.26,247.435L415.477,247.435L411.954,260.107L411.889,260.107L408.205,247.435L403.163,247.435L409.498,265.344C409.078,267.703 408.173,267.93 406.525,267.93C406.137,267.93 405.846,267.897 405.652,267.866L405.652,271.482C406.298,271.514 407.074,271.546 407.688,271.546C411.631,271.546 412.213,270.707 414.346,264.341L420.26,247.435ZM389.876,241.422L385.354,241.422L385.354,264.628L389.779,264.628L389.779,262.465L389.844,262.465C390.943,264.403 392.949,265.081 394.824,265.081C399.931,265.081 402.063,260.559 402.063,255.838C402.063,249.889 398.704,246.983 394.921,246.983C392.011,246.983 390.652,248.565 389.941,249.664L389.876,249.664L389.876,241.422ZM397.413,256.161C397.413,258.198 396.604,261.368 393.693,261.368C390.815,261.368 389.683,258.973 389.683,256.42C389.683,253.671 390.459,250.89 393.564,250.89C396.442,250.89 397.413,253.444 397.413,256.161M359.75,256.161C359.75,253.444 360.72,250.89 363.598,250.89C366.703,250.89 367.479,253.671 367.479,256.42C367.479,258.974 366.348,261.368 363.469,261.368C360.558,261.368 359.75,258.198 359.75,256.161M371.807,241.422L367.285,241.422L367.285,249.663L367.221,249.663C366.509,248.564 365.151,246.982 362.24,246.982C358.458,246.982 355.099,249.888 355.099,255.837C355.099,260.558 357.23,265.08 362.337,265.08C364.213,265.08 366.218,264.401 367.318,262.464L367.382,262.464L367.382,264.627L371.807,264.627L371.807,241.422ZM340.978,254.319C341.237,252.054 342.369,250.695 344.504,250.695C345.959,250.695 347.738,251.537 347.997,254.319L340.978,254.319ZM347.803,259.588C347.447,260.817 346.153,261.464 344.892,261.464C341.237,261.464 340.978,258.552 340.849,257.258L352.648,257.258L352.648,256.451C352.648,248.597 347.964,246.982 344.568,246.982C337.038,246.982 336.327,253.608 336.327,255.675C336.327,262.755 340.041,265.08 344.892,265.08C347.835,265.08 351.259,263.724 352.454,259.587L347.803,259.587L347.803,259.588ZM324.642,264.628L329.163,264.628L329.163,255.674C329.163,253.767 329.81,251.569 333.333,251.569C333.753,251.569 334.238,251.569 334.626,251.633L334.626,247.047C334.335,247.015 334.044,246.983 333.753,246.983C331.006,246.983 329.971,248.663 329.034,250.407L328.969,250.407L328.969,247.435L324.642,247.435L324.642,264.628ZM309.619,254.319C309.878,252.054 311.01,250.695 313.145,250.695C314.6,250.695 316.379,251.537 316.638,254.319L309.619,254.319ZM316.443,259.588C316.087,260.817 314.793,261.464 313.532,261.464C309.877,261.464 309.618,258.552 309.489,257.258L321.288,257.258L321.288,256.451C321.288,248.597 316.604,246.982 313.208,246.982C305.678,246.982 304.967,253.608 304.967,255.675C304.967,262.755 308.681,265.08 313.532,265.08C316.475,265.08 319.899,263.724 321.094,259.587L316.443,259.587L316.443,259.588ZM303.846,247.435L299.191,247.435L296.509,259.785L296.444,259.785L293.858,247.435L289.301,247.435L286.877,259.785L286.813,259.785L284.13,247.435L279.314,247.435L284.162,264.628L288.817,264.628L291.499,252.086L291.564,252.086L294.246,264.628L298.9,264.628L303.846,247.435ZM273.379,256.032C273.379,258.23 272.732,261.27 269.239,261.27C265.746,261.27 265.099,258.23 265.099,256.032C265.099,253.833 265.746,250.793 269.239,250.793C272.732,250.793 273.379,253.833 273.379,256.032M278.03,256.032C278.03,249.824 273.864,246.982 269.24,246.982C264.616,246.982 260.449,249.824 260.449,256.032C260.449,262.239 264.616,265.081 269.24,265.081C273.864,265.081 278.03,262.239 278.03,256.032M245.304,252.252L245.304,245.427L249.153,245.427C252.161,245.427 253.422,246.365 253.422,248.629C253.422,249.664 253.422,252.252 249.8,252.252L245.304,252.252ZM245.304,256.256L250.867,256.256C257.104,256.256 258.267,250.958 258.267,248.855C258.267,244.297 255.554,241.422 251.061,241.422L240.459,241.422L240.459,264.628L245.304,264.628L245.304,256.256Z" style="fill:rgb(38,39,38);fill-rule:nonzero;"/>
        </g>
    </g>
</svg>
