<?xml version="1.0" encoding="UTF-8" standalone="no"?>
<!DOCTYPE svg PUBLIC "-//W3C//DTD SVG 1.1//EN" "http://www.w3.org/Graphics/SVG/1.1/DTD/svg11.dtd">
<svg width="100%" height="100%" viewBox="0 0 1184 1184" version="1.1" xmlns="http://www.w3.org/2000/svg" xmlns:xlink="http://www.w3.org/1999/xlink" xml:space="preserve" xmlns:serif="http://www.serif.com/" style="fill-rule:evenodd;clip-rule:evenodd;stroke-linejoin:round;stroke-miterlimit:1.41421;">
    <g transform="matrix(4.16667,0,0,4.16667,0,0)">
        <rect x="0" y="62.898" width="283.465" height="221.102" style="fill:rgb(0,90,170);fill-rule:nonzero;"/>
        <path d="M24.952,57.23L10.969,57.23L10.969,13.375L0,13.375L0,0.536L36,0.536L36,13.375L24.952,13.375L24.952,57.23Z" style="fill:rgb(35,31,32);fill-rule:nonzero;"/>
        <path d="M60.398,29.076C64.936,29.076 68.166,25.596 68.166,20.723C68.166,16.16 65.474,13.144 61.398,13.144L54.554,13.144L54.554,29.076L60.398,29.076ZM40.48,0.536L62.013,0.536C74.779,0.536 82.086,7.497 82.086,19.64C82.086,29.618 77.856,35.419 69.012,37.352L84.701,57.23L67.243,57.23L54.4,38.743L54.4,57.23L40.48,57.23L40.48,0.536Z" style="fill:rgb(35,31,32);fill-rule:nonzero;"/>
        <path d="M129.988,35.928C129.988,51.46 123.125,58.647 108.162,58.647C99.448,58.647 93.046,55.556 89.729,49.683C88.033,46.747 87.184,42.033 87.184,35.542L87.184,0.536L101.145,0.536L101.145,35.774C101.145,42.342 103.381,45.046 108.855,45.046C113.869,45.046 116.028,42.265 116.028,35.618L116.028,0.536L129.988,0.536L129.988,35.928Z" style="fill:rgb(35,31,32);fill-rule:nonzero;"/>
        <path d="M136.854,0.537L155.514,0.537L166.926,38.744L177.721,0.537L196.381,0.537L196.381,57.23L183.583,57.23L183.583,18.017L171.554,57.23L161.22,57.23L149.423,18.481L149.423,57.23L136.854,57.23L136.854,0.537Z" style="fill:rgb(35,31,32);fill-rule:nonzero;"/>
        <path d="M223.583,26.525C227.659,26.525 230.349,23.895 230.349,19.95C230.349,15.774 227.736,13.376 223.198,13.376L217.738,13.376L217.738,26.525L223.583,26.525ZM203.667,0.537L225.582,0.537C236.964,0.537 244.344,8.039 244.344,19.564C244.344,31.01 236.425,39.518 225.736,39.518L217.586,39.518L217.586,57.23L203.667,57.23L203.667,0.537Z" style="fill:rgb(35,31,32);fill-rule:nonzero;"/>
        <path d="M248.75,0.536L283.333,0.536L283.333,13.375L264.005,13.375L264.005,22.347L283.333,22.347L283.333,35.341L264.005,35.341L264.005,57.23L248.75,57.23L248.75,0.536Z" style="fill:rgb(35,31,32);fill-rule:nonzero;"/>
    </g>
</svg>
